<svg width="48" height="48" viewBox="0 0 48 48" fill="none" xmlns="http://www.w3.org/2000/svg">
<path d="M22.3117 32.6232C21.769 32.6232 21.2865 32.382 20.985 32.0203L11.8795 22.1308C11.2161 21.4072 11.2765 20.2614 12.0001 19.5981C12.7237 18.9348 13.8694 18.9951 14.5328 19.7187L22.3719 28.2212L44.0805 6.57295C44.8041 5.84938 45.9499 5.84938 46.6132 6.57295C47.2765 7.29653 47.3368 8.44231 46.6132 9.10564L23.5781 32.0805C23.2765 32.4424 22.7941 32.6232 22.3117 32.6232Z" fill="#0ABB87"/>
<path d="M24.0001 48C10.7939 48 0 37.2061 0 24.0001C0 10.7941 10.7939 0 24.0001 0C25.0252 0 25.8091 0.783939 25.8091 1.80899C25.8091 2.83405 25.0251 3.61799 24.0001 3.61799C12.7839 3.61799 3.6181 12.7838 3.6181 23.9999C3.6181 35.2161 12.7839 44.3819 24.0001 44.3819C35.2162 44.3819 44.382 35.2161 44.382 23.9999C44.382 22.9748 45.166 22.191 46.191 22.191C47.2161 22.191 48 22.9749 48 23.9999C48 37.2061 37.2061 48 24.0001 48Z" fill="#0ABB87"/>
</svg>
