<svg width="10" height="12" viewBox="0 0 10 12" fill="none" xmlns="http://www.w3.org/2000/svg">
<path fill-rule="evenodd" clip-rule="evenodd" d="M4.90909 0C3.61735 0.0324728 2.38748 0.560111 1.47379 1.4738C0.560104 2.38749 0.0324728 3.61735 0 4.90909C0.0457929 5.70228 0.264641 6.47585 0.641181 7.17547C0.652636 7.19729 0.665181 7.2191 0.678818 7.24092C3.64745 12 4.53164 12 4.90909 12C5.49791 12 6.13636 11.5854 7.64809 9.47181C8.43655 8.37 9.11127 7.28729 9.13964 7.24092C9.15327 7.2191 9.16555 7.19729 9.177 7.17547C9.55348 6.47583 9.77233 5.70227 9.81818 4.90909C9.78571 3.61735 9.25808 2.38749 8.34439 1.4738C7.4307 0.560111 6.20083 0.0324728 4.90909 0ZM8.445 6.80999C8.445 6.80999 5.72373 11.1818 4.90909 11.1818C4.10127 11.1818 1.37318 6.80999 1.37318 6.80999C1.05402 6.22348 0.864735 5.57519 0.818182 4.90909C0.818182 3.82411 1.24919 2.78359 2.01638 2.01639C2.78357 1.2492 3.82411 0.818182 4.90909 0.818182C5.99407 0.818182 7.03461 1.2492 7.8018 2.01639C8.569 2.78359 9 3.82411 9 4.90909C8.95348 5.5752 8.7642 6.2235 8.445 6.80999ZM4.90909 2.45455C4.47757 2.45455 4.05574 2.58251 3.69694 2.82225C3.33814 3.062 3.05849 3.40273 2.89335 3.8014C2.72822 4.20008 2.68501 4.63877 2.7692 5.062C2.85338 5.48523 3.06118 5.87401 3.36631 6.17914C3.67145 6.48428 4.06021 6.69208 4.48344 6.77627C4.90667 6.86045 5.34536 6.81723 5.74404 6.65209C6.14271 6.48695 6.48347 6.20732 6.72321 5.84852C6.96295 5.48972 7.09091 5.06789 7.09091 4.63636C7.09019 4.05793 6.86009 3.5034 6.45107 3.09438C6.04206 2.68537 5.48752 2.45527 4.90909 2.45455ZM4.90909 6C4.63939 6 4.37574 5.92002 4.15149 5.77019C3.92725 5.62035 3.75247 5.40739 3.64925 5.15821C3.54604 4.90904 3.51904 4.63485 3.57166 4.37033C3.62427 4.10581 3.75415 3.86284 3.94485 3.67213C4.13556 3.48142 4.37854 3.35154 4.64306 3.29893C4.90758 3.24631 5.18176 3.27332 5.43093 3.37653C5.6801 3.47974 5.89307 3.65452 6.04291 3.87877C6.19275 4.10302 6.27273 4.36666 6.27273 4.63636C6.27273 4.99802 6.12906 5.34487 5.87333 5.6006C5.6176 5.85633 5.27075 6 4.90909 6Z" fill="#333333"/>
</svg>
