<svg width="12" height="13" viewBox="0 0 12 13" fill="none" xmlns="http://www.w3.org/2000/svg">
<path fill-rule="evenodd" clip-rule="evenodd" d="M6.18141 7.31184C6.08638 7.31238 5.99334 7.28459 5.91414 7.23207C5.83493 7.17955 5.77316 7.10469 5.73668 7.01694C5.7002 6.92918 5.69068 6.83254 5.70932 6.73935C5.72795 6.64616 5.7739 6.56063 5.84132 6.49366C5.93275 6.40582 6.05462 6.35676 6.18141 6.35676C6.3082 6.35676 6.43007 6.40582 6.5215 6.49366C6.56625 6.53785 6.60173 6.59053 6.62589 6.6486C6.65005 6.70666 6.66241 6.76894 6.66223 6.83183C6.66223 6.94033 6.70533 7.04436 6.78205 7.12107C6.85877 7.19779 6.96282 7.24093 7.07132 7.24093C7.17982 7.24093 7.28387 7.19779 7.36059 7.12107C7.43731 7.04436 7.48041 6.94033 7.48041 6.83183C7.48164 6.53713 7.38166 6.25088 7.19719 6.02104C7.01272 5.7912 6.75495 5.63166 6.46696 5.56907L6.45332 5.31545C6.45332 5.20696 6.41022 5.10293 6.3335 5.02621C6.25678 4.94949 6.15273 4.90636 6.04423 4.90636C5.93573 4.90636 5.83168 4.94949 5.75496 5.02621C5.67824 5.10293 5.63514 5.20696 5.63514 5.31545V5.65909C5.49692 5.72091 5.37078 5.80677 5.2626 5.91271C5.08057 6.09429 4.95655 6.32587 4.90628 6.57802C4.85601 6.83017 4.88175 7.09158 4.98022 7.32908C5.0787 7.56659 5.24548 7.7695 5.45943 7.91209C5.67337 8.05468 5.92485 8.13052 6.18196 8.13002C6.29666 8.13003 6.40877 8.16406 6.50411 8.22783C6.59945 8.2916 6.67372 8.38224 6.71752 8.48824C6.76132 8.59424 6.77268 8.71082 6.75017 8.82329C6.72766 8.93576 6.67228 9.03901 6.59105 9.11999C6.51433 9.19376 6.41919 9.24558 6.31559 9.27C6.22969 9.27 6.14351 9.27273 6.05732 9.27273C5.91787 9.24421 5.79409 9.16463 5.71024 9.04961C5.62639 8.93458 5.58852 8.7924 5.60405 8.6509C5.6147 8.54295 5.58204 8.43522 5.51325 8.35134C5.44446 8.26747 5.34518 8.21435 5.23723 8.20366C5.18368 8.19755 5.12945 8.20222 5.07773 8.21738C5.02601 8.23254 4.97785 8.2579 4.93607 8.29195C4.89429 8.326 4.85975 8.36806 4.83447 8.41566C4.80919 8.46326 4.79369 8.51539 4.78887 8.56907C4.75778 8.86671 4.82376 9.16642 4.97696 9.42348C5.13016 9.68054 5.36238 9.88116 5.63895 9.99543C5.648 10.0886 5.68881 10.1757 5.75454 10.2423C5.82027 10.3089 5.90692 10.3509 5.99992 10.3611C6.09292 10.3713 6.18661 10.3493 6.26525 10.2986C6.34389 10.2479 6.40269 10.1716 6.43177 10.0827C6.77509 10.0205 7.08269 9.83211 7.29405 9.55451C7.50541 9.27692 7.60522 8.93027 7.57382 8.58279C7.54242 8.2353 7.3821 7.91213 7.1244 7.67692C6.86671 7.4417 6.53031 7.31148 6.18141 7.31184ZM11.3632 9.81819C11.2541 8.59364 10.6754 4.78094 8.30705 3.30276C8.30923 3.2973 8.31223 3.29183 8.31414 3.28638L9.13232 1.10456C9.17858 0.980758 9.19416 0.847577 9.17772 0.716442C9.16129 0.585308 9.11333 0.460122 9.03796 0.351563C8.96258 0.243004 8.86203 0.154307 8.7449 0.0930845C8.62778 0.0318618 8.49757 -7.67978e-05 8.36541 3.43864e-07H3.99686C3.86468 -0.000120885 3.73444 0.0318138 3.61728 0.093018C3.50012 0.154222 3.39953 0.242865 3.32413 0.35143C3.24872 0.459995 3.20074 0.58522 3.18429 0.716376C3.16784 0.847532 3.18342 0.980737 3.22968 1.10456L4.04787 3.28638C4.04978 3.29183 4.05278 3.2973 4.05496 3.30276C1.68605 4.78094 1.10705 8.59364 0.998503 9.81819C0.971911 10.4123 1.16622 10.9952 1.54396 11.4545C1.72662 11.6398 1.9465 11.7842 2.18908 11.8782C2.43166 11.9722 2.69143 12.0138 2.95123 12H9.40914C9.66898 12.0138 9.92879 11.9722 10.1714 11.8782C10.414 11.7842 10.634 11.6398 10.8167 11.4545C11.1948 10.9954 11.3895 10.4124 11.3632 9.81819ZM3.99686 0.818182H8.3665L7.54832 3H4.81614L3.99686 0.818182ZM9.41023 11.1818H2.95232C2.31687 11.1818 1.76159 10.7236 1.81778 10.0909C2.01932 7.81909 2.8915 4.70182 4.81614 3.81818H7.54669C9.47132 4.70182 10.3435 7.81909 10.545 10.0909C10.601 10.7236 10.0457 11.1818 9.41023 11.1818Z" fill="#333333"/>
</svg>
