<svg width="140" height="60" viewBox="0 0 140 60" fill="none" xmlns="http://www.w3.org/2000/svg">
<path d="M27.9316 28.0921H31.8478V19.5326C31.8478 17.043 33.2184 15.7004 35.3443 15.7004C37.4143 15.7004 38.7849 17.043 38.7849 19.5326V28.0921H42.701V19.0011C42.701 14.7213 40.1555 12.3717 36.659 12.3717C34.5891 12.3717 32.8548 13.2108 31.8478 14.5255V7.39258H27.9316V28.0921Z" fill="#333333"/>
<path d="M53.7621 15.5606C55.7761 15.5606 57.3985 16.8473 57.4544 18.8893H50.0977C50.4054 16.7634 51.8879 15.5606 53.7621 15.5606ZM61.1188 23.225H56.895C56.3915 24.26 55.4684 25.0991 53.79 25.0991C51.832 25.0991 50.2655 23.8124 50.0697 21.5187H61.3985C61.4824 21.0152 61.5104 20.5117 61.5104 20.0082C61.5104 15.3927 58.3495 12.3438 53.874 12.3438C49.2865 12.3438 46.0977 15.4487 46.0977 20.3438C46.0977 25.211 49.3704 28.3439 53.874 28.3439C57.7062 28.3439 60.2796 26.0782 61.1188 23.225Z" fill="#333333"/>
<path d="M68.9982 7.39258H65.082V28.0921H68.9982V7.39258Z" fill="#333333"/>
<path d="M77.4669 7.39258H73.5508V28.0921H77.4669V7.39258Z" fill="#333333"/>
<path d="M97.0067 20.3438C97.0067 15.4487 93.5102 12.3438 89.0346 12.3438C84.559 12.3438 81.0625 15.4487 81.0625 20.3438C81.0625 25.211 84.4472 28.3439 88.9227 28.3439C93.4263 28.3439 97.0067 25.211 97.0067 20.3438ZM85.0346 20.3438C85.0346 17.2389 86.9087 15.7564 88.9787 15.7564C91.0486 15.7564 92.9787 17.2389 92.9787 20.3438C92.9787 23.4208 90.9927 24.9313 88.9227 24.9313C86.8248 24.9313 85.0346 23.4208 85.0346 20.3438Z" fill="#333333"/>
<path d="M0 44.9841C0 49.8233 3.1329 53.0401 7.077 53.0401C9.51059 53.0401 11.2449 51.9212 12.168 50.4947V52.7884H16.14V32.0889H12.168V39.4456C11.105 37.991 9.14695 37.04 7.10497 37.04C3.1329 37.04 0 40.1449 0 44.9841ZM12.1959 45.0401C12.1959 47.9771 10.2379 49.5995 8.084 49.5995C5.98608 49.5995 4.00004 47.9212 4.00004 44.9841C4.00004 42.047 5.98608 40.4806 8.084 40.4806C10.2379 40.4806 12.1959 42.103 12.1959 45.0401Z" fill="#3F51B5"/>
<path d="M18.9854 44.9842C18.9854 49.8234 22.1183 53.0402 26.0344 53.0402C28.4959 53.0402 30.2582 51.8654 31.1813 50.5227V52.7885H35.1254V37.2918H31.1813V39.5016C30.2582 38.2149 28.5519 37.04 26.0623 37.04C22.1183 37.04 18.9854 40.145 18.9854 44.9842ZM31.1813 45.0401C31.1813 47.9772 29.2232 49.5996 27.0694 49.5996C24.9714 49.5996 22.9854 47.9213 22.9854 44.9842C22.9854 42.0471 24.9714 40.4806 27.0694 40.4806C29.2232 40.4806 31.1813 42.103 31.1813 45.0401Z" fill="#3F51B5"/>
<path d="M38.9362 52.7897H42.8523V37.293H38.9362V52.7897ZM40.9222 35.4468C42.2929 35.4468 43.3278 34.4398 43.3278 33.1531C43.3278 31.8664 42.2929 30.8594 40.9222 30.8594C39.5236 30.8594 38.5166 31.8664 38.5166 33.1531C38.5166 34.4398 39.5236 35.4468 40.9222 35.4468Z" fill="#3F51B5"/>
<path d="M46.7119 52.7884H50.628V44.2289C50.628 41.7393 51.9987 40.3966 54.1246 40.3966C56.1945 40.3966 57.5652 41.7393 57.5652 44.2289V52.7884H61.4813V43.6974C61.4813 39.4176 58.9358 37.0679 55.4393 37.0679C53.3693 37.0679 51.635 37.9071 50.628 39.2218V32.0889H46.7119V52.7884Z" fill="#3F51B5"/>
<path d="M80.1386 45.0401C80.1386 40.145 76.642 37.04 72.1664 37.04C67.6909 37.04 64.1943 40.145 64.1943 45.0401C64.1943 49.9073 67.579 53.0402 72.0546 53.0402C76.5581 53.0402 80.1386 49.9073 80.1386 45.0401ZM68.1664 45.0401C68.1664 41.9352 70.0406 40.4527 72.1105 40.4527C74.1805 40.4527 76.1105 41.9352 76.1105 45.0401C76.1105 48.1171 74.1245 49.6276 72.0546 49.6276C69.9566 49.6276 68.1664 48.1171 68.1664 45.0401Z" fill="#3F51B5"/>
<path d="M82.0186 45.0401C82.0186 49.9073 85.2074 53.0402 89.683 53.0402C93.5431 53.0402 96.1446 50.8584 96.9837 47.5576H92.7599C92.2844 48.9563 91.2774 49.6835 89.655 49.6835C87.4732 49.6835 86.0186 48.0611 86.0186 45.0401C86.0186 42.0191 87.4732 40.3687 89.655 40.3687C91.2774 40.3687 92.3124 41.2079 92.7599 42.5226H96.9837C96.1446 39.054 93.5431 37.04 89.683 37.04C85.2074 37.04 82.0186 40.1729 82.0186 45.0401Z" fill="#3F51B5"/>
<path fill-rule="evenodd" clip-rule="evenodd" d="M139.514 1.74898C139.514 1.23281 139.287 0.738879 138.889 0.405864C138.491 0.0784001 137.971 -0.065936 137.457 0.0284181L106.129 5.6231C105.294 5.77296 104.691 6.49448 104.691 7.34367V52.6558C104.691 53.505 105.294 54.2321 106.129 54.3764L137.457 59.971C137.971 60.0654 138.491 59.9267 138.889 59.5936C139.287 59.2606 139.514 58.7722 139.514 58.2505V1.74898ZM108.186 8.80894V51.1961L136.019 56.1636V3.83588L108.186 8.80894Z" fill="#3F51B5"/>
<path d="M129.765 34.4736C131.618 34.4736 133.121 32.9708 133.121 31.1172C133.121 29.2635 131.618 27.7607 129.765 27.7607C127.911 27.7607 126.408 29.2635 126.408 31.1172C126.408 32.9708 127.911 34.4736 129.765 34.4736Z" fill="#3F51B5"/>
</svg>
