<svg width="54" height="48" viewBox="0 0 54 48" fill="none" xmlns="http://www.w3.org/2000/svg">
<path d="M20.8302 35.0943V42.1132C20.8302 42.4151 18.4151 43.4717 13.5849 45.283C8.90566 47.0943 6.11321 48 5.20755 48C4.45283 48 3.39623 47.0189 2.03774 45.0566C0.679245 43.0943 0 41.0566 0 38.9434V29.8868C0 26.566 1.35849 21.434 4.07547 14.4906C6.94339 7.39623 10.6415 2.56604 15.1698 0L22.8679 7.24528C20.9057 8 19.3962 10.1887 18.3396 13.8113C17.434 17.283 16.9811 20.4528 16.9811 23.3207C16.9811 23.7736 17.5849 25.1321 18.7925 27.3962C20.1509 29.5094 20.8302 32.0755 20.8302 35.0943ZM51.6038 35.0943V42.1132C51.6038 42.4151 49.1887 43.4717 44.3585 45.283C39.6792 47.0943 36.8868 48 35.9811 48C35.2264 48 34.1698 47.0189 32.8113 45.0566C31.4528 43.0943 30.7736 41.0566 30.7736 38.9434V29.8868C30.7736 26.566 32.1321 21.434 34.8491 14.4906C37.717 7.39623 41.4151 2.56604 45.9434 0L53.6415 7.24528C51.6792 8 50.1698 10.1887 49.1132 13.8113C48.2075 17.283 47.7547 20.4528 47.7547 23.3207C47.7547 23.7736 48.3585 25.1321 49.566 27.3962C50.9245 29.5094 51.6038 32.0755 51.6038 35.0943Z" fill="#666666"/>
</svg>
