<svg id="OBJECT" xmlns="http://www.w3.org/2000/svg" xmlns:xlink="http://www.w3.org/1999/xlink" viewBox="0 0 417.66 425">
  <defs>
    <style>
      .cls-1 {
        opacity: 0.8;
      }

      .cls-2, .cls-4, .cls-7 {
        fill: #fcdc3f;
      }

      .cls-2, .cls-8 {
        opacity: 0.4;
      }

      .cls-3, .cls-5, .cls-6, .cls-8 {
        fill: #fff;
      }

      .cls-3 {
        opacity: 0.2;
      }

      .cls-5, .cls-7 {
        opacity: 0.5;
      }

      .cls-9 {
        fill: #33b0ff;
      }

      .cls-10 {
        fill: #ff217b;
      }

      .cls-11, .cls-13, .cls-14 {
        fill: none;
        stroke-width: 2px;
      }

      .cls-11 {
        stroke: #e00e6e;
      }

      .cls-11, .cls-13 {
        stroke-miterlimit: 10;
      }

      .cls-12 {
        fill: #e00e6e;
      }

      .cls-13, .cls-14 {
        stroke: #139fe5;
      }

      .cls-14 {
        stroke-linecap: round;
        stroke-linejoin: round;
      }

      .cls-15 {
        fill: #139fe5;
      }

      .cls-16 {
        fill: url(#linear-gradient);
      }

      .cls-17 {
        fill: url(#linear-gradient-2);
      }
    </style>
    <linearGradient id="linear-gradient" x1="90.08" y1="192.93" x2="90.08" y2="204.93" gradientUnits="userSpaceOnUse">
      <stop offset="0" stop-color="#bcbec0" stop-opacity="0"/>
      <stop offset="0.15" stop-color="#bcbec0" stop-opacity="0.02"/>
      <stop offset="0.3" stop-color="#bcbec0" stop-opacity="0.08"/>
      <stop offset="0.44" stop-color="#bcbec0" stop-opacity="0.18"/>
      <stop offset="0.58" stop-color="#bcbec0" stop-opacity="0.32"/>
      <stop offset="0.72" stop-color="#bcbec0" stop-opacity="0.51"/>
      <stop offset="0.86" stop-color="#bcbec0" stop-opacity="0.73"/>
      <stop offset="1" stop-color="#bcbec0" stop-opacity="0.99"/>
      <stop offset="1" stop-color="#bcbec0"/>
    </linearGradient>
    <linearGradient id="linear-gradient-2" x1="382.33" y1="192.93" x2="382.33" y2="204.93" xlink:href="#linear-gradient"/>
  </defs>
  <title>page-not-found</title>
  <g id="group-mini-star">
    <g class="cls-1">
      <circle class="cls-2" cx="398.33" cy="30.33" r="1.67"/>
      <circle class="cls-3" cx="334" cy="155.49" r="1.67"/>
      <circle class="cls-4" cx="380.33" cy="131.28" r="1.67"/>
      <circle class="cls-4" cx="406.33" cy="191.38" r="1.67"/>
      <circle class="cls-5" cx="409.67" cy="100.25" r="1.67"/>
      <circle class="cls-6" cx="360.95" cy="90.52" r="1.67"/>
      <circle class="cls-6" cx="125.49" cy="17.83" r="1.67"/>
      <circle class="cls-4" cx="172.53" cy="30.33" r="1.67"/>
      <circle class="cls-4" cx="9" cy="334.22" r="1.67"/>
      <circle class="cls-5" cx="139.28" cy="395.87" r="1.67"/>
      <circle class="cls-6" cx="287.47" cy="390.91" r="1.67"/>
      <circle class="cls-5" cx="403" cy="330.89" r="1.67"/>
      <circle class="cls-4" cx="360.95" cy="352.16" r="1.67"/>
      <circle class="cls-5" cx="274.51" cy="423.33" r="1.67"/>
      <circle class="cls-4" cx="211.99" cy="392.58" r="1.67"/>
      <circle class="cls-7" cx="1.67" cy="19.5" r="1.67"/>
      <circle class="cls-5" cx="242.03" cy="28.67" r="1.67"/>
      <circle class="cls-3" cx="60" cy="62.09" r="1.67"/>
      <circle class="cls-3" cx="52.2" cy="402" r="1.67"/>
      <circle class="cls-4" cx="76" cy="415.33" r="1.67"/>
      <circle class="cls-6" cx="323" cy="53.83" r="1.67"/>
      <circle class="cls-4" cx="102.44" cy="101.91" r="1.67"/>
      <circle class="cls-5" cx="9" cy="150.14" r="1.67"/>
      <circle class="cls-2" cx="308" cy="1.67" r="1.67"/>
      <circle class="cls-6" cx="53.86" cy="152.63" r="1.67"/>
      <circle class="cls-8" cx="408" cy="43.38" r="1.67"/>
    </g>
    <g>
      <circle class="cls-9" cx="314.83" cy="115.67" r="3.17"/>
      <circle class="cls-9" cx="31.26" cy="200.85" r="3.17"/>
      <circle class="cls-10" cx="366.16" cy="193.05" r="3.83"/>
      <circle class="cls-10" cx="28.1" cy="130.32" r="1.72"/>
      <circle class="cls-9" cx="414.5" cy="271.16" r="3.17"/>
    </g>
  </g>
  <g id="planer-big">
    <path class="cls-11" d="M131.25,26a54.93,54.93,0,0,1,15.53-7.16,53.26,53.26,0,0,1,18.12-2.41" transform="translate(-6.33 52.16)"/>
    <circle class="cls-10" cx="144.5" cy="83.42" r="19.67"/>
    <ellipse class="cls-12" cx="147.15" cy="68.88" rx="4.44" ry="2.16"/>
    <ellipse class="cls-12" cx="144.5" cy="96.03" rx="5.36" ry="3.36"/>
    <ellipse class="cls-12" cx="136.72" cy="29.1" rx="4.44" ry="2.16" transform="translate(60.89 202.55) rotate(-72.2)"/>
    <ellipse class="cls-12" cx="161.03" cy="29.92" rx="4.44" ry="4.09" transform="translate(77 226.26) rotate(-72.2)"/>
    <ellipse class="cls-12" cx="147.25" cy="28.28" rx="2.49" ry="2.3" transform="translate(68.99 212.01) rotate(-72.2)"/>
    <path class="cls-11" d="M164.9,16.42c5.59.38,9.54,2.14,10.43,5.12C177,27.22,167,35.21,152.88,39.39s-26.87,3-28.55-2.71c-.95-3.19,1.82-7.12,6.93-10.69" transform="translate(-6.33 52.16)"/>
  </g>
  <g id="small-planet">
    <path class="cls-13" d="M314.06,241.85c8.62,3.12,14.18,6.93,13.56,9.82-.88,4.08-13.7,4.78-28.65,1.57s-26.36-9.11-25.48-13.19c.62-2.89,7.26-4.09,16.41-3.39" transform="translate(-6.33 52.16)"/>
    <g>
      <ellipse class="cls-14" cx="300.56" cy="245.86" rx="7.55" ry="27.68" transform="translate(-9.25 540.28) rotate(-77.88)"/>
      <circle class="cls-9" cx="294.22" cy="298.02" r="14.08"/>
      <ellipse class="cls-15" cx="293.11" cy="288.76" rx="3.47" ry="2.05"/>
      <ellipse class="cls-15" cx="309.6" cy="245.39" rx="2.41" ry="3.47" transform="translate(-30.26 85.82) rotate(-5.99)"/>
      <circle class="cls-15" cx="298.83" cy="253.89" r="3.47" transform="translate(-31.2 84.74) rotate(-5.99)"/>
      <ellipse class="cls-15" cx="290.12" cy="244.81" rx="1.9" ry="3.47" transform="translate(-30.3 83.78) rotate(-5.99)"/>
    </g>
  </g>
  <g id="text">
    <g>
      <path class="cls-6" d="M81.69,198.08q-4.57-5.76-4.57-20.12H45.82q-11,0-16.33-5.5t-5.33-14.18a31.23,31.23,0,0,1,4.57-16.66Q38,126.38,55.81,99.07,64.6,85.6,80,85.6q3.21,0,7.61.09t7.11.09q12.35,0,16.75,4.34t4.4,15.16v46.8a21.33,21.33,0,0,1,7.7,2,8.3,8.3,0,0,1,3.89,4.17,18.93,18.93,0,0,1,1.1,7.09q0,6.74-2.88,9.31t-9.81,3.1q0,14-4.91,20t-14.72,6Q86.26,203.84,81.69,198.08ZM77.46,115,54.79,152.79H77Z" transform="translate(-6.33 52.16)"/>
      <path class="cls-6" d="M374,198.08q-4.57-5.76-4.57-20.12H338.1q-11,0-16.33-5.5t-5.33-14.18A31.24,31.24,0,0,1,321,141.62q9.3-15.24,27.07-42.55,8.79-13.47,24.19-13.47,3.21,0,7.61.09t7.11.09q12.35,0,16.75,4.34t4.4,15.16v46.8a21.32,21.32,0,0,1,7.7,2,8.29,8.29,0,0,1,3.89,4.17,18.94,18.94,0,0,1,1.1,7.09q0,6.74-2.88,9.31t-9.81,3.1q0,14-4.91,20t-14.72,6Q378.53,203.84,374,198.08ZM369.74,115l-22.67,37.76h22.16Z" transform="translate(-6.33 52.16)"/>
    </g>
    <polygon class="cls-16" points="109.54 204.24 70.62 204.95 70.78 193.05 109.54 193.05 109.54 204.24"/>
    <polygon class="cls-17" points="401.79 204.24 362.87 204.95 363.03 193.05 401.79 193.05 401.79 204.24"/>
  </g>
  <image width="453" height="450" transform="translate(143.49 125.31) scale(0.31 0.32)" xlink:href="logo.png"/>
</svg>
