<svg id="Objects" xmlns="http://www.w3.org/2000/svg" viewBox="0 0 734.12 680.2"><defs><style>.cls-1,.cls-11,.cls-13,.cls-14,.cls-15,.cls-16,.cls-18,.cls-20,.cls-6,.cls-7,.cls-8{fill-rule:evenodd;}.cls-1{opacity:0.2;}.cls-2,.cls-7{fill:#013c5c;}.cls-11,.cls-3{fill:#fff;}.cls-18,.cls-4{fill:#5895cb;}.cls-5,.cls-6{fill:#055a87;}.cls-8{fill:#8fbfea;}.cls-9{fill:#90bce2;}.cls-10{fill:#dfeefb;}.cls-12,.cls-16{fill:#d32a13;}.cls-13{fill:#f65741;}.cls-14{fill:#ffd96b;}.cls-15{fill:#ddab14;}.cls-17,.cls-19{fill:none;stroke:#5895cb;stroke-linecap:round;stroke-linejoin:round;}.cls-17{stroke-width:6px;}.cls-19{stroke-width:3.6px;}.cls-20{fill:#68a4d3;}</style></defs><title>serverces1</title><path class="cls-1" d="M543.59,638.51l4.34,5a13.27,13.27,0,0,1-5.28-3.33,4.88,4.88,0,0,1,.67,1l50.31,58.31c4,4.63,1,8.42-6.69,8.42H546.46c-7.68,0-17.23-3.79-21.23-8.42l-49.81-57.73a9.38,9.38,0,0,1-1.8-1.56c1.15,1.33,1.25,2.53.47,3.33l-4.34-5a5,5,0,0,1-3.58,1.06c-3.81,0-8.6-2-10.69-4.39h0l6.31-5.92h0l-4.63-5.37H531l4.63,5.37h0l16.54,5.92c2.09,2.42.7,4.39-3.12,4.39A16.05,16.05,0,0,1,543.59,638.51Z" transform="translate(-37.89 -29.53)"/><path class="cls-1" d="M503.45,480.6l8.29,9.82,64.15,76c2.73,3.24-1.2,5.88-8.73,5.88h13.7L666,591.63H132.38l52.44-19.36h13.7c-7.54,0-15.93-2.65-18.67-5.88l-64.15-76-8.29-9.82-1.44,0c-11,0-23.19-3.83-27.18-8.57,4,4.73-1.7,8.57-12.71,8.57s-23.19-3.83-27.18-8.57h0L90.44,460.5,81.59,450h396l8.84,10.47,71.06,11.56h0c4,4.73-1.7,8.57-12.72,8.57s-23.19-3.83-27.18-8.57c4,4.73-1.7,8.57-12.71,8.57l-1.48,0ZM668.31,594.38,666,591.63H132.38l2.32,2.75.46.55h.08c2.39,2.08,7.93,3.7,12.95,3.7H662c5,0,7.82-1.62,6.69-3.7h.08Z" transform="translate(-37.89 -29.53)"/><rect class="cls-2" x="164.83" y="257.19" width="396.04" height="260.29" rx="13.7" ry="13.7"/><rect class="cls-3" x="185.38" y="284.37" width="354.94" height="190.55"/><circle class="cls-4" cx="362.85" cy="271.26" r="4.98"/><rect class="cls-5" x="354.43" y="486.78" width="16.84" height="16.84"/><polygon class="cls-6" points="164.83 517.48 560.87 517.48 629.66 562.57 96.05 562.57 164.83 517.48"/><path class="cls-7" d="M133.94,592.1H667.55v6.41a9.93,9.93,0,0,1-9.9,9.9H143.84a9.93,9.93,0,0,1-9.9-9.9Z" transform="translate(-37.89 -29.53)"/><rect class="cls-2" x="96.05" y="562.57" width="533.61" height="7.68"/><path class="cls-8" d="M577.74,572.82v-.33l.42.33Zm0-8.94c1.93,1.44,3.88,2.87,5.89,4.31s4.24,3.08,6.35,4.62l34.43,0-7.54-4.6c-2.51-1.53-5-3.07-7.44-4.61h-31.7v.31Zm0-3.9v-9.21l10.76,0c2.56,1.54,5,3.08,7.54,4.61l7.54,4.6Zm0-9.21V560h-5.39c-2.12-1.54-4.29-3.08-6.4-4.62-1.78-1.3-3.54-2.6-5.37-3.9v-.73l17.17,0Zm0,12.8v.31l-.42-.31Zm0,8.93c-1.84-1.43-3.73-2.86-5.59-4.3s-3.94-3.09-5.91-4.63h-5.66v9.28l17.17,0v-.33ZM560.57,560h1l-1-.79Zm-297.39,17H535.82l9.58,10H254l9.18-10Zm297.39-26.2v.73l-1-.73Zm0,8.45c-1.66-1.28-3.3-2.56-5-3.83-2-1.54-3.94-3.09-6-4.64l-28.87-.05c1.67,1.55,3.24,3.11,4.83,4.65s3.25,3.1,4.88,4.64l30.15,0v-.79Zm0,4.39v9.28l-16.75,0-4.88-4.65c-1.62-1.55-3.15-3.1-4.78-4.65Zm-322.7,9.62v-9.64h26.5c-1.58,1.6-3.19,3.22-4.78,4.81s-3.2,3.2-4.83,4.8l-16.9,0Zm0-13.39V559c1.66-1.34,3.33-2.68,5-4,2-1.61,3.94-3.22,6-4.83l28.87.05c-1.58,1.61-3.19,3.22-4.78,4.81s-3.25,3.2-4.83,4.81Zm0-8.93,1-.75h-1v.75Zm37.54,12.68h32.12c-1.08,1.59-2.2,3.2-3.25,4.78s-2.17,3.19-3.25,4.78l-34.38,0c1.48-1.6,2.92-3.19,4.38-4.8s3-3.2,4.38-4.8Zm43.1,0h32.12c-.54,1.59-1.16,3.18-1.72,4.76s-1.13,3.17-1.72,4.75l-34.38,0c1-1.59,1.92-3.18,2.86-4.77s1.92-3.18,2.86-4.78Zm43.15,0h32.07c0,1.58-.15,3.16-.2,4.74s-.1,3.15-.15,4.73l-34.33,0c.44-1.58.84-3.17,1.28-4.75s.94-3.17,1.33-4.76Zm43.15,0h32.07c.44,1.57.86,3.14,1.33,4.71s.89,3.14,1.33,4.7l-34.33,0c0-1.57-.12-3.15-.2-4.72s-.15-3.15-.2-4.73Zm43.1,0H480q1.4,2.34,2.86,4.68c1,1.55,1.92,3.12,2.91,4.67l-34.38,0-1.77-4.69c-.59-1.57-1.13-3.13-1.72-4.7Zm43.1,0h32.12c1.48,1.55,2.91,3.11,4.38,4.66l4.43,4.65-34.38,0c-1.08-1.56-2.19-3.1-3.3-4.67s-2.17-3.12-3.25-4.68ZM287.62,550.21l28.92.06L313.28,555,310,559.83H278.8c1.48-1.6,3-3.19,4.43-4.8s2.91-3.2,4.38-4.81Zm38.87.07,28.92.06c-.59,1.59-1.16,3.18-1.72,4.76s-1.18,3.17-1.72,4.75l-31.23,0c.94-1.59,2-3.16,2.91-4.77s1.87-3.19,2.86-4.78Zm38.87.07,28.87.06-.15,4.73c0,1.58-.15,3.15-.2,4.73H362.69l1.33-4.75,1.33-4.76Zm38.82.07,28.87.06c.49,1.57.94,3.14,1.38,4.71s.89,3.14,1.38,4.71l-31.18,0c-.1-1.57-.12-3.15-.2-4.72s-.15-3.15-.25-4.73Zm38.87.07,28.92.06c1,1.56,1.94,3.12,2.91,4.69s1.92,3.11,2.91,4.67l-31.23,0-1.77-4.69c-.59-1.56-1.13-3.13-1.72-4.71Zm38.82.07,28.92.05c1.53,1.56,3,3.11,4.43,4.66s3,3.1,4.48,4.65l-31.23,0c-1.08-1.56-2.2-3.12-3.3-4.67S483,552.14,481.85,550.58Zm-244-.46v.75c-1.8,1.37-3.61,2.74-5.37,4.09-2.11,1.62-4.24,3.22-6.35,4.83h-5.32v-9.7l17,0Zm0,8.88-1,.8h1V559Zm0,4.55v9.64l-17,0v-.31c1.88-1.5,3.7-3,5.57-4.51l5.91-4.83Zm-17,.31.39-.31h-.39Zm0-13.77v9.7H195c2.46-1.62,5-3.22,7.49-4.85l7.49-4.86,10.84,0Zm0,13.46v.31c-1.94,1.51-3.93,3-5.91,4.53s-4.19,3.22-6.3,4.83l-34.33,0c2.51-1.62,5-3.22,7.49-4.85s5-3.24,7.44-4.86Zm0,9.34-.39.31h.39Z" transform="translate(-37.89 -29.53)"/><rect class="cls-4" x="292.09" y="308.42" width="141.53" height="24.47"/><path class="cls-1" d="M261.11,336.51a19.95,19.95,0,1,0,39.9,0,19.95,19.95,0,1,0,39.9,0,19.95,19.95,0,1,0,39.9,0,19.95,19.95,0,1,0,39.9,0,19.95,19.95,0,1,0,39.9,0,19.95,19.95,0,1,0,39.9,0,19.95,19.95,0,1,0,39.9,0,19.95,19.95,0,1,0,39.9,0,20,20,0,0,0,18.49,19.89v-56a13.74,13.74,0,0,0-13.7-13.7H216.42a13.74,13.74,0,0,0-13.7,13.7v56a20,20,0,0,0,18.49-19.89,19.95,19.95,0,1,0,39.9,0Z" transform="translate(-37.89 -29.53)"/><rect class="cls-4" x="210.8" y="364.45" width="304.09" height="110.47"/><rect class="cls-9" x="269.21" y="342.46" width="187.28" height="10.26"/><path class="cls-10" d="M533.63,441.48a1.48,1.48,0,1,1,2.34-1.81l6.65,8.61a1.38,1.38,0,0,1,.12.18h0l.06.12,0,.07v0l0,.1,0,.1s0,.09,0,.14h0v.3h0l0,.14,0,.1,0,.09v0l0,.07-.06.12h0a1.29,1.29,0,0,1-.12.18L536,458.75a1.48,1.48,0,1,1-2.34-1.81l6-7.73Z" transform="translate(-37.89 -29.53)"/><path class="cls-10" d="M265.51,439.67a1.48,1.48,0,1,1,2.34,1.81l-6,7.72,6,7.73a1.48,1.48,0,1,1-2.34,1.81l-6.65-8.61a1.38,1.38,0,0,1-.12-.18h0l-.06-.12,0-.07v0l0-.09,0-.1a1.34,1.34,0,0,1,0-.14h0v-.3h0l0-.14,0-.1,0-.1v0l0-.07.06-.12h0a1.37,1.37,0,0,1,.12-.18Z" transform="translate(-37.89 -29.53)"/><rect class="cls-5" x="308.96" y="567.83" width="107.79" height="5.02"/><path class="cls-11" d="M437.66,454.66h3.12c9,0,9.35-10.16,0-10.17h-3.12v.81h0a4.26,4.26,0,0,1,0,8.52h0Zm-73.85,0h73.85v-.84a4.26,4.26,0,0,1,0-8.52v-.81q-36.92-.06-73.85,0v.81h0a4.26,4.26,0,0,1,0,8.52h0Zm-3.12,0h3.12v-.84a4.26,4.26,0,0,1,0-8.52v-.81h-3.12C351.34,444.5,351.72,454.66,360.69,454.66Z" transform="translate(-37.89 -29.53)"/><circle class="cls-3" cx="368.51" cy="384.53" r="4.26"/><path class="cls-11" d="M439.32,448.42,410.24,415.9a1.84,1.84,0,0,0-2.58-.15h0a1.84,1.84,0,0,0-.15,2.59l29.08,32.52a1.84,1.84,0,0,0,2.59.14h0A1.84,1.84,0,0,0,439.32,448.42Z" transform="translate(-37.89 -29.53)"/><circle class="cls-3" cx="357.19" cy="384.53" r="4.26"/><path class="cls-11" d="M362.16,448.42,393.88,413a1.84,1.84,0,0,1,2.59-.14h0a1.84,1.84,0,0,1,.14,2.58l-31.71,35.47a1.84,1.84,0,0,1-2.59.14h0A1.84,1.84,0,0,1,362.16,448.42Z" transform="translate(-37.89 -29.53)"/><path class="cls-11" d="M425.37,457.69h14.89l-3.9,22.45c-.84,4.83-3.21,8.47-10.63,8.47h-.36v-6.77a3.74,3.74,0,0,0,2-2.78q.52-3.84,1.06-7.68t1.06-7.69a2.79,2.79,0,0,0-3-3.13h0a3.82,3.82,0,0,0-1.19.19Zm-12.26,0h12.26v3.06a3.63,3.63,0,0,0-2.54,2.94c-.26,2.56-.54,5.13-.81,7.69s-.54,5.13-.81,7.68a2.74,2.74,0,0,0,2.73,3.13h0a3.27,3.27,0,0,0,1.44-.35v6.77H413.11v-6.53a3.44,3.44,0,0,0,2.51-3c.2-2.56.4-5.12.59-7.68s.4-5.12.59-7.69a3,3,0,0,0-3.15-3.13h0a3.67,3.67,0,0,0-.54,0Zm-12.38,0h12.38v2.91a3.43,3.43,0,0,0-3,3.09c-.11,2.56-.23,5.13-.34,7.69s-.23,5.13-.34,7.68a2.94,2.94,0,0,0,2.92,3.13h0a3.05,3.05,0,0,0,.78-.1v6.53H400.73v-6.42a3.16,3.16,0,0,0,3.1-3.13q.06-3.84.12-7.68t.12-7.69a3.21,3.21,0,0,0-3.34-3.13h0Zm-12.38,0h12.38v2.87a3.22,3.22,0,0,0-3.35,3.13q.06,3.84.12,7.69c0,2.56.08,5.13.12,7.68a3.17,3.17,0,0,0,3.1,3.13h0v6.42H388.35v-6.53a3,3,0,0,0,.78.1h0a2.94,2.94,0,0,0,2.91-3.13q-.17-3.84-.34-7.68t-.35-7.69a3.42,3.42,0,0,0-3-3.09Zm-12.25,0h12.25v2.91a3.74,3.74,0,0,0-.53,0h0a3,3,0,0,0-3.16,3.13q.29,3.85.59,7.69t.58,7.68a3.45,3.45,0,0,0,2.51,3v6.53H376.1v-6.77a3.26,3.26,0,0,0,1.44.34h0a2.74,2.74,0,0,0,2.72-3.13q-.4-3.84-.81-7.68t-.81-7.69a3.62,3.62,0,0,0-2.54-2.94Zm-.35,30.93c-7.42,0-9.79-3.64-10.63-8.47l-3.9-22.45H376.1v3.06a3.8,3.8,0,0,0-1.18-.19h0a2.8,2.8,0,0,0-3,3.13q.52,3.84,1.06,7.69t1.05,7.68a3.74,3.74,0,0,0,2,2.78v6.77Z" transform="translate(-37.89 -29.53)"/><path class="cls-7" d="M330,452.29h1.76c5.06,0,5.28-5.73,0-5.74H330V447h0a2.4,2.4,0,0,1,0,4.81h0Zm-41.67,0H330v-.47a2.4,2.4,0,0,1,0-4.81v-.46q-20.83,0-41.67,0V447a2.4,2.4,0,0,1,0,4.81Zm-1.76,0h1.76v-.47a2.4,2.4,0,1,1,0-4.81v-.46H286.6C281.32,446.55,281.54,452.29,286.6,452.29Z" transform="translate(-37.89 -29.53)"/><circle class="cls-2" cx="274.51" cy="399.85" r="2.4"/><path class="cls-7" d="M331,448.77l-16.41-18.35a1,1,0,0,0-1.46-.08h0a1,1,0,0,0-.08,1.46l16.41,18.35a1,1,0,0,0,1.46.08h0A1,1,0,0,0,331,448.77Z" transform="translate(-37.89 -29.53)"/><circle class="cls-2" cx="268.12" cy="399.85" r="2.4"/><path class="cls-7" d="M287.43,448.77l17.9-20a1,1,0,0,1,1.46-.08h0a1,1,0,0,1,.08,1.46l-17.9,20a1,1,0,0,1-1.46.08h0A1,1,0,0,1,287.43,448.77Z" transform="translate(-37.89 -29.53)"/><path class="cls-7" d="M323.1,454h8.4l-2.2,12.67c-.47,2.73-1.81,4.78-6,4.78h-.21v-3.82a2.11,2.11,0,0,0,1.15-1.57c.2-1.45.4-2.89.6-4.34s.4-2.89.6-4.34a1.58,1.58,0,0,0-1.68-1.77h0a2.15,2.15,0,0,0-.67.11Zm-6.92,0h6.92v1.73a2,2,0,0,0-1.44,1.66c-.15,1.45-.31,2.89-.46,4.34l-.46,4.34a1.55,1.55,0,0,0,1.54,1.77h0a1.85,1.85,0,0,0,.81-.2v3.82h-6.92v-3.68a1.94,1.94,0,0,0,1.42-1.71c.11-1.45.22-2.89.33-4.34s.22-2.89.33-4.34a1.69,1.69,0,0,0-1.78-1.77h0l-.3,0Zm-7,0h7v1.64a1.93,1.93,0,0,0-1.7,1.74c-.06,1.45-.13,2.89-.2,4.34s-.13,2.89-.19,4.34a1.66,1.66,0,0,0,1.65,1.77h0a1.75,1.75,0,0,0,.44-.06v3.68h-7v-3.62a1.78,1.78,0,0,0,1.75-1.77q0-2.17.07-4.34t.07-4.34a1.81,1.81,0,0,0-1.89-1.77h0Zm-7,0h7v1.62a1.82,1.82,0,0,0-1.89,1.77q0,2.17.07,4.34c0,1.44,0,2.89.07,4.34a1.79,1.79,0,0,0,1.75,1.77h0v3.62h-7v-3.68a1.75,1.75,0,0,0,.44.06h0a1.66,1.66,0,0,0,1.64-1.77l-.19-4.34q-.1-2.17-.19-4.34a1.93,1.93,0,0,0-1.7-1.74Zm-6.92,0h6.92v1.64l-.3,0h0a1.69,1.69,0,0,0-1.78,1.77q.17,2.17.33,4.34c.11,1.44.22,2.89.33,4.34a1.94,1.94,0,0,0,1.42,1.71v3.68h-6.92v-3.82a1.82,1.82,0,0,0,.81.2h0a1.54,1.54,0,0,0,1.54-1.77q-.23-2.17-.46-4.34t-.46-4.34a2,2,0,0,0-1.43-1.66Zm-.2,17.45c-4.19,0-5.52-2.05-6-4.78L286.9,454h8.4v1.73a2.12,2.12,0,0,0-.67-.11h0a1.58,1.58,0,0,0-1.67,1.77q.3,2.17.6,4.34t.59,4.34a2.11,2.11,0,0,0,1.15,1.57v3.82Z" transform="translate(-37.89 -29.53)"/><path class="cls-7" d="M513.11,452.29h1.76c5.06,0,5.28-5.73,0-5.74h-1.76V447h0a2.4,2.4,0,0,1,0,4.81h0Zm-41.67,0h41.67v-.47a2.4,2.4,0,1,1,0-4.81v-.46q-20.84,0-41.67,0V447a2.4,2.4,0,1,1,0,4.81Zm-1.76,0h1.76v-.47h0a2.4,2.4,0,0,1,0-4.81h0v-.46h-1.76C464.4,446.55,464.62,452.29,469.68,452.29Z" transform="translate(-37.89 -29.53)"/><circle class="cls-2" cx="457.58" cy="399.85" r="2.4"/><path class="cls-7" d="M514,448.77l-16.41-18.35a1,1,0,0,0-1.46-.08h0a1,1,0,0,0-.08,1.46l16.41,18.35a1,1,0,0,0,1.46.08h0A1,1,0,0,0,514,448.77Z" transform="translate(-37.89 -29.53)"/><circle class="cls-2" cx="451.2" cy="399.85" r="2.4"/><path class="cls-7" d="M470.51,448.77l17.9-20a1,1,0,0,1,1.46-.08h0a1,1,0,0,1,.08,1.46l-17.9,20a1,1,0,0,1-1.46.08h0A1,1,0,0,1,470.51,448.77Z" transform="translate(-37.89 -29.53)"/><path class="cls-7" d="M506.18,454h8.4l-2.2,12.67c-.47,2.73-1.81,4.78-6,4.78h-.2v-3.82a2.11,2.11,0,0,0,1.15-1.57q.3-2.17.6-4.34t.6-4.34a1.58,1.58,0,0,0-1.67-1.77h0a2.15,2.15,0,0,0-.67.11Zm-6.92,0h6.92v1.73a2,2,0,0,0-1.44,1.66c-.15,1.45-.31,2.89-.46,4.34s-.31,2.89-.46,4.34a1.55,1.55,0,0,0,1.54,1.77h0a1.85,1.85,0,0,0,.81-.2v3.82h-6.92v-3.68a1.94,1.94,0,0,0,1.42-1.71q.17-2.17.33-4.34c.11-1.45.22-2.89.33-4.34a1.69,1.69,0,0,0-1.78-1.77h0l-.31,0Zm-7,0h7v1.64a1.93,1.93,0,0,0-1.7,1.74c-.06,1.45-.13,2.89-.19,4.34s-.13,2.89-.2,4.34a1.66,1.66,0,0,0,1.65,1.77h0a1.74,1.74,0,0,0,.44-.06v3.68h-7v-3.62a1.78,1.78,0,0,0,1.75-1.77q0-2.17.07-4.34t.07-4.34a1.81,1.81,0,0,0-1.89-1.77h0Zm-7,0h7v1.62a1.82,1.82,0,0,0-1.89,1.77q0,2.17.07,4.34c0,1.44,0,2.89.07,4.34a1.79,1.79,0,0,0,1.75,1.77h0v3.62h-7v-3.68a1.76,1.76,0,0,0,.44.06h0a1.66,1.66,0,0,0,1.64-1.77q-.1-2.17-.19-4.34c-.06-1.45-.13-2.89-.19-4.34a1.93,1.93,0,0,0-1.7-1.74Zm-6.91,0h6.91v1.64l-.3,0h0a1.69,1.69,0,0,0-1.78,1.77q.17,2.17.33,4.34c.11,1.44.22,2.89.33,4.34a2,2,0,0,0,1.42,1.71v3.68h-6.91v-3.82a1.83,1.83,0,0,0,.81.2h0a1.54,1.54,0,0,0,1.54-1.77q-.23-2.17-.46-4.34t-.46-4.34a2,2,0,0,0-1.43-1.66Zm-.2,17.45c-4.19,0-5.53-2.05-6-4.78L470,454h8.4v1.73a2.14,2.14,0,0,0-.67-.11h0a1.58,1.58,0,0,0-1.67,1.77q.29,2.17.6,4.34t.59,4.34a2.11,2.11,0,0,0,1.15,1.57v3.82Z" transform="translate(-37.89 -29.53)"/><rect class="cls-12" x="164.83" y="232.8" width="396.04" height="24.39"/><polygon class="cls-13" points="103.53 284.1 622.18 284.1 560.87 257.19 164.83 257.19 103.53 284.1"/><polygon class="cls-14" points="582.28 284.1 542.38 284.1 499.94 257.19 530.41 257.19 582.28 284.1"/><polygon class="cls-13" points="502.49 284.1 542.38 284.1 499.94 257.19 469.48 257.19 502.49 284.1"/><polygon class="cls-14" points="502.49 284.1 462.59 284.1 439.01 257.19 469.48 257.19 502.49 284.1"/><polygon class="cls-13" points="422.7 284.1 462.59 284.1 439.01 257.19 408.55 257.19 422.7 284.1"/><polygon class="cls-14" points="422.7 284.1 382.8 284.1 378.08 257.19 408.55 257.19 422.7 284.1"/><polygon class="cls-13" points="342.9 284.1 382.8 284.1 378.08 257.19 347.62 257.19 342.9 284.1"/><polygon class="cls-14" points="342.9 284.1 303.01 284.1 317.16 257.19 347.62 257.19 342.9 284.1"/><polygon class="cls-13" points="263.11 284.1 303.01 284.1 317.16 257.19 286.69 257.19 263.11 284.1"/><polygon class="cls-14" points="263.11 284.1 223.22 284.1 256.23 257.19 286.69 257.19 263.11 284.1"/><polygon class="cls-13" points="183.32 284.1 223.22 284.1 256.23 257.19 225.76 257.19 183.32 284.1"/><polygon class="cls-14" points="183.32 284.1 143.43 284.1 195.3 257.19 225.76 257.19 183.32 284.1"/><polygon class="cls-13" points="103.53 284.1 143.43 284.1 195.3 257.19 164.83 257.19 103.53 284.1"/><path class="cls-15" d="M221.21,313.63a19.95,19.95,0,0,1-39.9,0Z" transform="translate(-37.89 -29.53)"/><path class="cls-16" d="M141.42,313.63a19.95,19.95,0,1,0,39.9,0Z" transform="translate(-37.89 -29.53)"/><path class="cls-15" d="M301,313.63a19.95,19.95,0,0,1-39.9,0Z" transform="translate(-37.89 -29.53)"/><path class="cls-16" d="M221.21,313.63a19.95,19.95,0,0,0,39.9,0Z" transform="translate(-37.89 -29.53)"/><path class="cls-15" d="M380.79,313.63a19.95,19.95,0,1,1-39.9,0Z" transform="translate(-37.89 -29.53)"/><path class="cls-16" d="M301,313.63a19.95,19.95,0,1,0,39.9,0Z" transform="translate(-37.89 -29.53)"/><path class="cls-15" d="M460.59,313.63a19.95,19.95,0,0,1-39.9,0Z" transform="translate(-37.89 -29.53)"/><path class="cls-16" d="M380.79,313.63a19.95,19.95,0,0,0,39.9,0Z" transform="translate(-37.89 -29.53)"/><path class="cls-15" d="M540.38,313.63a19.95,19.95,0,0,1-39.9,0Z" transform="translate(-37.89 -29.53)"/><path class="cls-16" d="M460.59,313.63a19.95,19.95,0,1,0,39.9,0Z" transform="translate(-37.89 -29.53)"/><path class="cls-15" d="M620.17,313.63a19.95,19.95,0,0,1-39.9,0Z" transform="translate(-37.89 -29.53)"/><path class="cls-16" d="M540.38,313.63a19.95,19.95,0,0,0,39.9,0Z" transform="translate(-37.89 -29.53)"/><path class="cls-16" d="M620.17,313.63a19.95,19.95,0,1,0,39.9,0Z" transform="translate(-37.89 -29.53)"/><path class="cls-1" d="M494.3,583.44l7.08,8.4a3.67,3.67,0,0,0,1.53-1.87l52.78,62.61c6.84,8.11,26.37,14.75,43.42,14.75h88c17,0,25.39-6.63,18.56-14.75L652.88,590a32.57,32.57,0,0,0,4.68,1.87l-7.08-8.4a37.45,37.45,0,0,0,11,1.77c8.06,0,11.84-3.28,8.43-7.32L637.42,568h0l-7.55-9H473.78l7.55,9h0l-15.83,9.88h0c3.41,4,12.71,7.32,20.78,7.32C489.91,585.21,492.67,584.54,494.3,583.44Z" transform="translate(-37.89 -29.53)"/><rect class="cls-17" x="533.38" y="422.19" width="149.97" height="213.89" rx="30.99" ry="30.99"/><path class="cls-7" d="M690.26,451.72h-88a31.08,31.08,0,0,0-31,31V634.63a31.08,31.08,0,0,0,31,31h88a31.08,31.08,0,0,0,31-31V482.71A31.08,31.08,0,0,0,690.26,451.72Z" transform="translate(-37.89 -29.53)"/><rect class="cls-3" x="544.03" y="440.13" width="128.68" height="176.23" rx="0.45" ry="0.45"/><rect class="cls-4" x="590.3" y="427.48" width="36.14" height="3.24" rx="1.62" ry="1.62"/><path class="cls-18" d="M646.26,660.93a5.48,5.48,0,1,0-5.48-5.48A5.49,5.49,0,0,0,646.26,660.93Z" transform="translate(-37.89 -29.53)"/><rect class="cls-3" x="544.03" y="440.13" width="128.68" height="176.23"/><rect class="cls-9" x="544.03" y="440.13" width="128.68" height="11"/><rect class="cls-4" x="574.13" y="457.83" width="68.48" height="17.16"/><rect class="cls-4" x="544.03" y="496.04" width="128.68" height="62.39"/><rect class="cls-9" x="563.06" y="481.69" width="90.62" height="7.19"/><path class="cls-10" d="M702.49,553.5a.63.63,0,0,1,1-.77l2.81,3.64.05.08h0l0,0v0h0v.14h0v0h0v0h0V557h0v0l0,0h0l-.05.08-2.81,3.64a.63.63,0,0,1-1-.77l2.53-3.27Z" transform="translate(-37.89 -29.53)"/><path class="cls-10" d="M589,552.73a.63.63,0,0,1,1,.77l-2.53,3.27L590,560a.63.63,0,0,1-1,.77l-2.81-3.64-.05-.08h0l0,0v0h0v-.14h0v0h0v0h0v-.14h0v0l0,0h0l.05-.08Z" transform="translate(-37.89 -29.53)"/><path class="cls-11" d="M664.72,559.49h1.56c4.48,0,4.68-5.08,0-5.09h-1.56v.41h0a2.13,2.13,0,0,1,0,4.26h0Zm-36.93,0h36.93v-.42a2.13,2.13,0,0,1,0-4.26v-.41q-18.46,0-36.93,0v.41a2.13,2.13,0,0,1,0,4.26Zm-1.56,0h1.56v-.42a2.13,2.13,0,1,1,0-4.26v-.41h-1.56C621.55,554.41,621.75,559.49,626.23,559.49Z" transform="translate(-37.89 -29.53)"/><circle class="cls-3" cx="611.2" cy="509.66" r="2.13"/><path class="cls-11" d="M665.55,556.37,651,540.11a.92.92,0,0,0-1.29-.07h0a.92.92,0,0,0-.07,1.29l14.54,16.26a.92.92,0,0,0,1.29.07h0A.92.92,0,0,0,665.55,556.37Z" transform="translate(-37.89 -29.53)"/><circle class="cls-3" cx="605.54" cy="509.66" r="2.13"/><path class="cls-11" d="M627,556.37l15.86-17.74a.92.92,0,0,1,1.29-.07h0a.92.92,0,0,1,.07,1.29l-15.86,17.74a.92.92,0,0,1-1.29.07h0A.92.92,0,0,1,627,556.37Z" transform="translate(-37.89 -29.53)"/><path class="cls-11" d="M658.57,561H666l-2,11.23c-.42,2.42-1.6,4.24-5.32,4.24h-.18v-3.39a1.87,1.87,0,0,0,1-1.39q.26-1.92.53-3.84l.53-3.84a1.4,1.4,0,0,0-1.48-1.57h0a1.93,1.93,0,0,0-.6.1Zm-6.13,0h6.13v1.53A1.82,1.82,0,0,0,657.3,564c-.13,1.28-.27,2.56-.41,3.84s-.27,2.56-.41,3.84a1.37,1.37,0,0,0,1.36,1.56h0a1.63,1.63,0,0,0,.72-.17v3.39h-6.13v-3.26a1.72,1.72,0,0,0,1.26-1.51c.1-1.28.2-2.56.29-3.84s.2-2.56.29-3.84a1.49,1.49,0,0,0-1.58-1.57h0l-.27,0Zm-6.19,0h6.19v1.46a1.71,1.71,0,0,0-1.5,1.55c-.06,1.28-.12,2.56-.17,3.84s-.12,2.56-.17,3.84a1.47,1.47,0,0,0,1.46,1.56h0a1.52,1.52,0,0,0,.39-.05v3.26h-6.19v-3.21a1.58,1.58,0,0,0,1.55-1.56q0-1.92.06-3.84t.06-3.84a1.61,1.61,0,0,0-1.67-1.57h0Zm-6.19,0h6.19v1.44a1.61,1.61,0,0,0-1.67,1.57q0,1.92.06,3.84c0,1.28,0,2.56.06,3.84a1.58,1.58,0,0,0,1.55,1.56h0v3.21h-6.19v-3.26a1.54,1.54,0,0,0,.39.05h0a1.47,1.47,0,0,0,1.46-1.56q-.08-1.92-.17-3.84t-.17-3.84a1.71,1.71,0,0,0-1.5-1.55Zm-6.13,0h6.13v1.46l-.26,0h0a1.5,1.5,0,0,0-1.58,1.57q.15,1.92.29,3.84t.29,3.84a1.72,1.72,0,0,0,1.26,1.51v3.26h-6.13v-3.39a1.62,1.62,0,0,0,.72.17h0a1.37,1.37,0,0,0,1.36-1.56q-.2-1.92-.4-3.84c-.14-1.28-.27-2.56-.41-3.84a1.81,1.81,0,0,0-1.27-1.47Zm-.17,15.46c-3.71,0-4.9-1.82-5.31-4.24l-2-11.23h7.44v1.53a1.9,1.9,0,0,0-.59-.09h0a1.4,1.4,0,0,0-1.48,1.57q.26,1.92.53,3.84t.53,3.84a1.87,1.87,0,0,0,1,1.39v3.39Z" transform="translate(-37.89 -29.53)"/><path class="cls-7" d="M614.88,558h.73c2.1,0,2.19-2.38,0-2.38h-.73v.19a1,1,0,0,1,0,2Zm-17.29,0h17.29v-.2a1,1,0,0,1,0-2v-.19H597.59v.19h0a1,1,0,1,1,0,2h0Zm-.73,0h.73v-.2a1,1,0,0,1,0-2v-.19h-.73C594.67,555.66,594.76,558,596.86,558Z" transform="translate(-37.89 -29.53)"/><circle class="cls-2" cx="569.68" cy="519.01" r="1"/><path class="cls-7" d="M615.27,556.58,608.46,549a.43.43,0,0,0-.61,0h0a.43.43,0,0,0,0,.61l6.81,7.61a.43.43,0,0,0,.61,0h0A.43.43,0,0,0,615.27,556.58Z" transform="translate(-37.89 -29.53)"/><circle class="cls-2" cx="567.03" cy="519.01" r="1"/><path class="cls-7" d="M597.21,556.58l7.42-8.3a.43.43,0,0,1,.61,0h0a.43.43,0,0,1,0,.61l-7.42,8.3a.43.43,0,0,1-.61,0h0A.43.43,0,0,1,597.21,556.58Z" transform="translate(-37.89 -29.53)"/><path class="cls-7" d="M612,558.75h3.49l-.91,5.26a2.16,2.16,0,0,1-2.49,2H612v-1.58a.88.88,0,0,0,.48-.65l.25-1.8.25-1.8a.65.65,0,0,0-.7-.73h0a.89.89,0,0,0-.28,0Zm-2.87,0H612v.72a.85.85,0,0,0-.6.69l-.19,1.8-.19,1.8a.64.64,0,0,0,.64.73h0a.76.76,0,0,0,.34-.08V566h-2.87v-1.53a.81.81,0,0,0,.59-.71c0-.6.09-1.2.14-1.8s.09-1.2.14-1.8a.7.7,0,0,0-.74-.73h-.13Zm-2.9,0h2.9v.68a.8.8,0,0,0-.7.72c0,.6-.05,1.2-.08,1.8s-.05,1.2-.08,1.8a.69.69,0,0,0,.68.73h0l.18,0V566h-2.9v-1.5a.74.74,0,0,0,.73-.73q0-.9,0-1.8t0-1.8a.75.75,0,0,0-.78-.73h0Zm-2.9,0h2.9v.67a.75.75,0,0,0-.78.73q0,.9,0,1.8c0,.6,0,1.2,0,1.8a.74.74,0,0,0,.73.73h0V566h-2.9v-1.53l.18,0h0a.69.69,0,0,0,.68-.73l-.08-1.8q0-.9-.08-1.8a.8.8,0,0,0-.7-.72Zm-2.87,0h2.87v.68h-.12a.7.7,0,0,0-.74.73q.07.9.14,1.8c0,.6.09,1.2.14,1.8a.81.81,0,0,0,.59.71V566h-2.87v-1.58a.76.76,0,0,0,.34.08h0a.64.64,0,0,0,.64-.73l-.19-1.8-.19-1.8a.85.85,0,0,0-.59-.69Zm-.08,7.24a2.16,2.16,0,0,1-2.49-2l-.91-5.26h3.48v.72a.9.9,0,0,0-.28,0h0a.65.65,0,0,0-.7.73l.25,1.8.25,1.8a.87.87,0,0,0,.48.65V566Z" transform="translate(-37.89 -29.53)"/><path class="cls-7" d="M694.92,558h.73c2.1,0,2.19-2.38,0-2.38h-.73v.19a1,1,0,0,1,0,2Zm-17.29,0h17.29v-.2a1,1,0,0,1,0-2v-.19H677.63v.19a1,1,0,1,1,0,2Zm-.73,0h.73v-.2a1,1,0,0,1,0-2v-.19h-.73C674.71,555.66,674.8,558,676.9,558Z" transform="translate(-37.89 -29.53)"/><circle class="cls-2" cx="649.71" cy="519.01" r="1"/><path class="cls-7" d="M695.3,556.58,688.5,549a.43.43,0,0,0-.61,0h0a.43.43,0,0,0,0,.61l6.81,7.61a.43.43,0,0,0,.6,0h0A.43.43,0,0,0,695.3,556.58Z" transform="translate(-37.89 -29.53)"/><circle class="cls-2" cx="647.06" cy="519.01" r="1"/><path class="cls-7" d="M677.24,556.58l7.42-8.3a.43.43,0,0,1,.61,0h0a.43.43,0,0,1,0,.61l-7.42,8.3a.43.43,0,0,1-.61,0h0A.43.43,0,0,1,677.24,556.58Z" transform="translate(-37.89 -29.53)"/><path class="cls-7" d="M692,558.75h3.49l-.91,5.26a2.16,2.16,0,0,1-2.49,2H692v-1.58a.88.88,0,0,0,.48-.65l.25-1.8.25-1.8a.65.65,0,0,0-.7-.73h0a.88.88,0,0,0-.28,0Zm-2.87,0H692v.72a.85.85,0,0,0-.6.69l-.19,1.8-.19,1.8a.64.64,0,0,0,.64.73h0a.76.76,0,0,0,.34-.08V566h-2.87v-1.53a.81.81,0,0,0,.59-.71q.07-.9.14-1.8c0-.6.09-1.2.14-1.8a.7.7,0,0,0-.74-.73h-.13Zm-2.9,0h2.9v.68a.8.8,0,0,0-.7.72c0,.6-.05,1.2-.08,1.8s-.05,1.2-.08,1.8a.69.69,0,0,0,.68.73h0l.18,0V566h-2.9v-1.5a.74.74,0,0,0,.73-.73q0-.9,0-1.8l0-1.8a.75.75,0,0,0-.78-.73h0Zm-2.9,0h2.9v.67a.75.75,0,0,0-.78.73q0,.9,0,1.8c0,.6,0,1.2,0,1.8a.74.74,0,0,0,.73.73h0V566h-2.9v-1.53l.18,0h0a.69.69,0,0,0,.68-.73l-.08-1.8c0-.6-.05-1.2-.08-1.8a.8.8,0,0,0-.7-.72Zm-2.87,0h2.87v.68h-.12a.7.7,0,0,0-.74.73q.07.9.14,1.8c0,.6.09,1.2.14,1.8a.81.81,0,0,0,.59.71V566H680.5v-1.58a.76.76,0,0,0,.34.08h0a.64.64,0,0,0,.64-.73l-.19-1.8-.19-1.8a.85.85,0,0,0-.59-.69Zm-.08,7.24a2.16,2.16,0,0,1-2.49-2l-.91-5.26h3.48v.72a.9.9,0,0,0-.28,0h0a.65.65,0,0,0-.7.73l.25,1.8.25,1.8a.87.87,0,0,0,.48.65V566Z" transform="translate(-37.89 -29.53)"/><rect class="cls-4" x="551.82" y="563.02" width="32.31" height="17.02"/><rect class="cls-4" x="592.21" y="563.02" width="32.31" height="17.02"/><rect class="cls-4" x="632.6" y="563.02" width="32.31" height="17.02"/><rect class="cls-9" x="544.03" y="607.18" width="128.67" height="9.18"/><rect class="cls-9" x="551.82" y="582.37" width="32.31" height="3.2"/><rect class="cls-9" x="551.82" y="587.87" width="32.31" height="3.2"/><rect class="cls-9" x="551.82" y="593.37" width="32.31" height="3.2"/><rect class="cls-9" x="551.82" y="598.87" width="20.46" height="3.2"/><rect class="cls-9" x="592.21" y="582.37" width="32.31" height="3.2"/><rect class="cls-9" x="592.21" y="587.87" width="32.31" height="3.2"/><rect class="cls-9" x="592.21" y="593.37" width="32.31" height="3.2"/><rect class="cls-9" x="592.21" y="598.87" width="20.46" height="3.2"/><rect class="cls-9" x="632.6" y="582.37" width="32.31" height="3.2"/><rect class="cls-9" x="632.6" y="587.87" width="32.31" height="3.2"/><rect class="cls-9" x="632.6" y="593.37" width="32.31" height="3.2"/><rect class="cls-9" x="632.6" y="598.87" width="20.46" height="3.2"/><path class="cls-1" d="M568.16,499a15.71,15.71,0,0,0,5.09-11.67c0,8.5,6.54,15.39,14.6,15.39s14.6-6.89,14.6-15.39c0,8.5,6.54,15.39,14.6,15.39s14.6-6.89,14.6-15.39c0,8.5,6.54,15.39,14.6,15.39s14.6-6.89,14.6-15.39c0,8.5,6.54,15.39,14.6,15.39s14.6-6.89,14.6-15.39c0,8.5,6.54,15.39,14.6,15.39s14.6-6.89,14.6-15.39A15.71,15.71,0,0,0,724.35,499V475.05a32.29,32.29,0,0,0-13.42-26.15H581.59a32.28,32.28,0,0,0-13.42,26.15Z" transform="translate(-37.89 -29.53)"/><rect class="cls-12" x="530.32" y="408.55" width="156.09" height="18.82"/><polygon class="cls-13" points="506.16 448.14 710.58 448.14 686.41 427.37 530.32 427.37 506.16 448.14"/><polygon class="cls-14" points="710.58 448.14 681.37 448.14 664.12 427.37 686.41 427.37 710.58 448.14"/><polygon class="cls-13" points="652.17 448.14 681.37 448.14 664.12 427.37 641.82 427.37 652.17 448.14"/><polygon class="cls-14" points="652.17 448.14 622.97 448.14 619.52 427.37 641.82 427.37 652.17 448.14"/><polygon class="cls-13" points="593.77 448.14 622.97 448.14 619.52 427.37 597.22 427.37 593.77 448.14"/><polygon class="cls-14" points="593.77 448.14 564.57 448.14 574.92 427.37 597.22 427.37 593.77 448.14"/><polygon class="cls-13" points="535.36 448.14 564.57 448.14 574.92 427.37 552.62 427.37 535.36 448.14"/><polygon class="cls-14" points="535.36 448.14 506.16 448.14 530.32 427.37 552.62 427.37 535.36 448.14"/><path class="cls-15" d="M573.25,477.67c0,8.5-6.54,15.39-14.6,15.39S544,486.17,544,477.67Z" transform="translate(-37.89 -29.53)"/><path class="cls-15" d="M631.66,477.67c0,8.5-6.54,15.39-14.6,15.39s-14.6-6.89-14.6-15.39Z" transform="translate(-37.89 -29.53)"/><path class="cls-16" d="M573.25,477.67c0,8.5,6.54,15.39,14.6,15.39s14.6-6.89,14.6-15.39Z" transform="translate(-37.89 -29.53)"/><path class="cls-15" d="M690.06,477.67c0,8.5-6.54,15.39-14.6,15.39s-14.6-6.89-14.6-15.39Z" transform="translate(-37.89 -29.53)"/><path class="cls-16" d="M631.66,477.67c0,8.5,6.54,15.39,14.6,15.39s14.6-6.89,14.6-15.39Z" transform="translate(-37.89 -29.53)"/><path class="cls-15" d="M748.46,477.67c0,8.5-6.54,15.39-14.6,15.39s-14.6-6.89-14.6-15.39Z" transform="translate(-37.89 -29.53)"/><path class="cls-16" d="M690.06,477.67c0,8.5,6.54,15.39,14.6,15.39s14.6-6.89,14.6-15.39Z" transform="translate(-37.89 -29.53)"/><rect class="cls-19" x="494.61" y="541.58" width="68.41" height="136.82" rx="13.96" ry="13.96"/><path class="cls-7" d="M546.46,571.11H587a14,14,0,0,1,14,14V694a14,14,0,0,1-14,14H546.46a14,14,0,0,1-14-14V585.07A14,14,0,0,1,546.46,571.11Z" transform="translate(-37.89 -29.53)"/><rect class="cls-3" x="499.63" y="555.88" width="58.44" height="103.53"/><rect class="cls-4" x="514.41" y="546.54" width="28.88" height="2.6" rx="1.3" ry="1.3"/><path class="cls-18" d="M544.59,700.61h44.29a2,2,0,0,0,2-2h0a2,2,0,0,0-2-2H544.59a2,2,0,0,0-2,2h0A2,2,0,0,0,544.59,700.61Z" transform="translate(-37.89 -29.53)"/><circle class="cls-2" cx="528.82" cy="669.07" r="7.88"/><circle class="cls-4" cx="528.82" cy="669.07" r="5.55"/><rect class="cls-9" x="499.63" y="555.87" width="58.44" height="6.46"/><rect class="cls-4" x="513.3" y="566.33" width="31.1" height="7.53"/><rect class="cls-4" x="499.63" y="584.31" width="58.44" height="29.91"/><rect class="cls-9" x="508.27" y="576.8" width="41.15" height="3.15"/><path class="cls-10" d="M592.27,627.36a.27.27,0,0,1,.05-.39.29.29,0,0,1,.4,0l1.28,1.6,0,0h0v0h0v0a.11.11,0,0,1,0,0h0v.06h0v0h0l0,0-1.28,1.6a.29.29,0,0,1-.4,0,.27.27,0,0,1-.05-.39l1.15-1.43Z" transform="translate(-37.89 -29.53)"/><path class="cls-10" d="M540.75,627a.29.29,0,0,1,.4,0,.27.27,0,0,1,.05.39l-1.15,1.43,1.15,1.43a.27.27,0,0,1-.05.39.29.29,0,0,1-.4,0l-1.28-1.6,0,0h0v0h0v-.06h0v-.06h0v0h0l0,0Z" transform="translate(-37.89 -29.53)"/><path class="cls-11" d="M574.83,630h.68c2,0,2.05-2.23,0-2.23h-.68v.18a.94.94,0,0,1,0,1.87Zm-16.2,0h16.2v-.18h0a.94.94,0,0,1,0-1.87h0v-.18h-16.2v.18h0a.94.94,0,0,1,0,1.87h0Zm-.68,0h.68v-.18a.94.94,0,0,1,0-1.87v-.18H558C555.9,627.76,556,630,558,630Z" transform="translate(-37.89 -29.53)"/><circle class="cls-3" cx="530.09" cy="591.56" r="0.93"/><path class="cls-11" d="M575.2,628.62l-6.38-7.13a.4.4,0,0,0-.57,0h0a.4.4,0,0,0,0,.57l6.38,7.13a.4.4,0,0,0,.57,0h0A.4.4,0,0,0,575.2,628.62Z" transform="translate(-37.89 -29.53)"/><circle class="cls-3" cx="527.61" cy="591.56" r="0.93"/><path class="cls-11" d="M558.27,628.62l7-7.78a.4.4,0,0,1,.57,0h0a.4.4,0,0,1,0,.57l-7,7.78a.4.4,0,0,1-.57,0h0A.4.4,0,0,1,558.27,628.62Z" transform="translate(-37.89 -29.53)"/><path class="cls-11" d="M572.14,630.66h3.27l-.86,4.92a2,2,0,0,1-2.33,1.86h-.08V636a.82.82,0,0,0,.45-.61l.23-1.69L573,632a.61.61,0,0,0-.65-.69h0a.84.84,0,0,0-.26,0Zm-2.69,0h2.69v.67a.79.79,0,0,0-.56.64c-.06.56-.12,1.12-.18,1.69l-.18,1.69a.6.6,0,0,0,.6.69h0a.71.71,0,0,0,.32-.08v1.49h-2.69V636a.75.75,0,0,0,.55-.66l.13-1.69c0-.56.09-1.12.13-1.69a.66.66,0,0,0-.69-.69h-.12Zm-2.71,0h2.71v.64a.75.75,0,0,0-.66.68c0,.56-.05,1.12-.08,1.69s-.05,1.13-.08,1.69a.64.64,0,0,0,.64.69h0l.17,0v1.43h-2.71V636a.69.69,0,0,0,.68-.69q0-.84,0-1.69l0-1.69a.71.71,0,0,0-.73-.69h0Zm-2.72,0h2.72v.63a.71.71,0,0,0-.73.69c0,.56,0,1.12,0,1.69s0,1.13,0,1.69a.69.69,0,0,0,.68.69h0v1.41H564V636l.17,0h0a.64.64,0,0,0,.64-.69q0-.84-.07-1.69c0-.56-.05-1.12-.08-1.69a.75.75,0,0,0-.66-.68Zm-2.69,0H564v.64h-.12a.66.66,0,0,0-.69.69l.13,1.69c0,.56.08,1.13.13,1.69a.75.75,0,0,0,.55.66v1.43h-2.69V636a.72.72,0,0,0,.31.08h0a.6.6,0,0,0,.6-.69l-.18-1.69c-.06-.56-.12-1.12-.18-1.69a.79.79,0,0,0-.56-.64Zm-.08,6.78a2,2,0,0,1-2.33-1.86l-.86-4.92h3.26v.67a.83.83,0,0,0-.26,0h0a.61.61,0,0,0-.65.69l.23,1.69.23,1.69a.82.82,0,0,0,.45.61v1.48Z" transform="translate(-37.89 -29.53)"/><path class="cls-7" d="M553,629.36h.32c.92,0,1-1,0-1H553v.08h0a.44.44,0,1,1,0,.87h0Zm-7.58,0H553v-.09a.44.44,0,1,1,0-.87v-.08h-7.58v.08a.44.44,0,1,1,0,.87Zm-.32,0h.32v-.09h0a.44.44,0,1,1,0-.87h0v-.08h-.32C544.11,628.31,544.15,629.36,545.07,629.36Z" transform="translate(-37.89 -29.53)"/><circle class="cls-2" cx="511.88" cy="595.66" r="0.44"/><path class="cls-7" d="M553.14,628.72l-3-3.34a.19.19,0,0,0-.27,0h0a.19.19,0,0,0,0,.27l3,3.34a.19.19,0,0,0,.27,0h0A.19.19,0,0,0,553.14,628.72Z" transform="translate(-37.89 -29.53)"/><circle class="cls-2" cx="510.72" cy="595.66" r="0.44"/><path class="cls-7" d="M545.22,628.72l3.26-3.64a.19.19,0,0,1,.27,0h0a.19.19,0,0,1,0,.26L545.5,629a.19.19,0,0,1-.27,0h0A.19.19,0,0,1,545.22,628.72Z" transform="translate(-37.89 -29.53)"/><path class="cls-7" d="M551.71,629.67h1.53l-.4,2.3a1,1,0,0,1-1.09.87h0v-.7a.38.38,0,0,0,.21-.29l.11-.79.11-.79a.29.29,0,0,0-.3-.32h0l-.12,0Zm-1.26,0h1.26V630a.37.37,0,0,0-.26.3c0,.26-.05.53-.08.79l-.08.79a.28.28,0,0,0,.28.32h0a.34.34,0,0,0,.15,0v.7h-1.26v-.67a.36.36,0,0,0,.26-.31l.06-.79.06-.79a.31.31,0,0,0-.32-.32h-.06Zm-1.27,0h1.27v.3a.35.35,0,0,0-.31.32l0,.79,0,.79a.3.3,0,0,0,.3.32h.08v.67h-1.27v-.66a.32.32,0,0,0,.32-.32c0-.26,0-.53,0-.79s0-.53,0-.79a.33.33,0,0,0-.34-.32h0Zm-1.27,0h1.27V630a.33.33,0,0,0-.34.32c0,.26,0,.53,0,.79s0,.53,0,.79a.33.33,0,0,0,.32.32h0v.66h-1.27v-.67H548a.3.3,0,0,0,.3-.32l0-.79,0-.79a.35.35,0,0,0-.31-.32Zm-1.26,0h1.26v.3h-.05a.31.31,0,0,0-.32.32l.06.79.06.79a.36.36,0,0,0,.26.31v.67h-1.26v-.69a.34.34,0,0,0,.15,0h0a.28.28,0,0,0,.28-.32c0-.26-.05-.53-.08-.79l-.08-.79a.37.37,0,0,0-.26-.3Zm0,3.17a1,1,0,0,1-1.09-.87l-.4-2.3h1.53V630l-.12,0h0a.29.29,0,0,0-.31.32l.11.79.11.79a.38.38,0,0,0,.21.29v.69Z" transform="translate(-37.89 -29.53)"/><path class="cls-7" d="M588.08,629.36h.32c.92,0,1-1,0-1h-.32v.08h0a.44.44,0,0,1,0,.87h0Zm-7.58,0h7.58v-.09a.44.44,0,1,1,0-.87v-.08H580.5v.08a.44.44,0,1,1,0,.87Zm-.32,0h.32v-.09h0a.44.44,0,1,1,0-.87h0v-.08h-.32C579.22,628.31,579.26,629.36,580.18,629.36Z" transform="translate(-37.89 -29.53)"/><circle class="cls-2" cx="546.98" cy="595.66" r="0.44"/><path class="cls-7" d="M588.25,628.72l-3-3.34a.19.19,0,0,0-.27,0h0a.19.19,0,0,0,0,.27l3,3.34a.19.19,0,0,0,.27,0h0A.19.19,0,0,0,588.25,628.72Z" transform="translate(-37.89 -29.53)"/><circle class="cls-2" cx="545.82" cy="595.66" r="0.44"/><path class="cls-7" d="M580.33,628.72l3.26-3.64a.19.19,0,0,1,.27,0h0a.19.19,0,0,1,0,.26L580.61,629a.19.19,0,0,1-.27,0h0A.19.19,0,0,1,580.33,628.72Z" transform="translate(-37.89 -29.53)"/><path class="cls-7" d="M586.82,629.67h1.53l-.4,2.3a1,1,0,0,1-1.09.87h0v-.69a.38.38,0,0,0,.21-.29l.11-.79.11-.79a.29.29,0,0,0-.3-.32h0l-.12,0Zm-1.26,0h1.26V630a.37.37,0,0,0-.26.3l-.08.79-.08.79a.28.28,0,0,0,.28.32h0a.33.33,0,0,0,.15,0v.69h-1.26v-.67a.35.35,0,0,0,.26-.31l.06-.79.06-.79a.31.31,0,0,0-.32-.32h-.05Zm-1.27,0h1.27v.3a.35.35,0,0,0-.31.32l0,.79c0,.26,0,.53,0,.79a.3.3,0,0,0,.3.32h.08v.67h-1.27v-.66a.32.32,0,0,0,.32-.32c0-.26,0-.53,0-.79s0-.53,0-.79a.33.33,0,0,0-.34-.32h0Zm-1.27,0h1.27V630a.33.33,0,0,0-.34.32c0,.26,0,.53,0,.79s0,.53,0,.79a.32.32,0,0,0,.32.32h0v.66H583v-.67h.08a.3.3,0,0,0,.3-.32c0-.26,0-.53,0-.79s0-.53,0-.79A.35.35,0,0,0,583,630Zm-1.26,0H583v.3H583a.31.31,0,0,0-.32.32l.06.79c0,.26,0,.53.06.79a.36.36,0,0,0,.26.31v.67h-1.26v-.69a.33.33,0,0,0,.15,0h0a.28.28,0,0,0,.28-.32l-.08-.79c0-.26-.06-.53-.08-.79a.37.37,0,0,0-.26-.3Zm0,3.17a1,1,0,0,1-1.09-.87l-.4-2.3h1.53V630l-.12,0h0a.29.29,0,0,0-.3.32l.11.79.11.79a.39.39,0,0,0,.21.29v.69Z" transform="translate(-37.89 -29.53)"/><rect class="cls-4" x="503.17" y="622.16" width="14.67" height="12.57"/><rect class="cls-4" x="521.51" y="622.16" width="14.67" height="12.57"/><rect class="cls-4" x="539.85" y="622.16" width="14.67" height="12.57"/><rect class="cls-9" x="499.63" y="654.01" width="58.44" height="5.39"/><rect class="cls-9" x="503.17" y="636.46" width="14.67" height="2.36"/><rect class="cls-9" x="503.17" y="640.52" width="14.67" height="2.36"/><rect class="cls-9" x="503.17" y="644.58" width="14.67" height="2.36"/><rect class="cls-9" x="521.51" y="636.46" width="14.67" height="2.36"/><rect class="cls-9" x="521.51" y="640.52" width="14.67" height="2.36"/><rect class="cls-9" x="521.51" y="644.58" width="14.67" height="2.36"/><rect class="cls-9" x="521.51" y="648.65" width="9.29" height="2.37"/><rect class="cls-9" x="539.85" y="636.46" width="14.67" height="2.36"/><rect class="cls-9" x="539.85" y="640.52" width="14.67" height="2.36"/><rect class="cls-9" x="539.85" y="644.58" width="14.67" height="2.36"/><rect class="cls-9" x="539.85" y="648.65" width="9.29" height="2.37"/><path class="cls-1" d="M529.65,601.24a7.42,7.42,0,0,0,2.41-5.52,6.91,6.91,0,1,0,13.81,0,6.91,6.91,0,1,0,13.81,0,6.91,6.91,0,1,0,13.81,0,6.91,6.91,0,1,0,13.81,0,6.91,6.91,0,1,0,13.81,0,7.43,7.43,0,0,0,2.4,5.52V589.92a15.26,15.26,0,0,0-6.35-12.37H536a15.27,15.27,0,0,0-6.35,12.37Z" transform="translate(-37.89 -29.53)"/><rect class="cls-12" x="491.78" y="539.13" width="73.8" height="8.9"/><polygon class="cls-13" points="480.36 557.84 577.01 557.84 565.58 548.02 491.78 548.02 480.36 557.84"/><polygon class="cls-14" points="577 557.84 563.2 557.84 555.04 548.02 565.58 548.02 577 557.84"/><polygon class="cls-13" points="549.39 557.84 563.2 557.84 555.04 548.02 544.49 548.02 549.39 557.84"/><polygon class="cls-14" points="549.39 557.84 535.58 557.84 533.95 548.02 544.49 548.02 549.39 557.84"/><polygon class="cls-13" points="521.78 557.84 535.58 557.84 533.95 548.02 523.41 548.02 521.78 557.84"/><polygon class="cls-14" points="521.78 557.84 507.97 557.84 512.87 548.02 523.41 548.02 521.78 557.84"/><polygon class="cls-13" points="494.16 557.84 507.97 557.84 512.87 548.02 502.32 548.02 494.16 557.84"/><polygon class="cls-14" points="494.16 557.84 480.36 557.84 491.78 548.02 502.32 548.02 494.16 557.84"/><path class="cls-15" d="M532.05,587.37a6.91,6.91,0,1,1-13.81,0Z" transform="translate(-37.89 -29.53)"/><path class="cls-15" d="M559.67,587.37a6.91,6.91,0,1,1-13.81,0Z" transform="translate(-37.89 -29.53)"/><path class="cls-16" d="M532.05,587.37a6.91,6.91,0,1,0,13.81,0Z" transform="translate(-37.89 -29.53)"/><path class="cls-15" d="M587.28,587.37a6.91,6.91,0,1,1-13.81,0Z" transform="translate(-37.89 -29.53)"/><path class="cls-16" d="M559.67,587.37a6.91,6.91,0,1,0,13.81,0Z" transform="translate(-37.89 -29.53)"/><path class="cls-15" d="M614.89,587.37a6.91,6.91,0,1,1-13.81,0Z" transform="translate(-37.89 -29.53)"/><path class="cls-16" d="M587.28,587.37a6.91,6.91,0,1,0,13.81,0Z" transform="translate(-37.89 -29.53)"/><path class="cls-20" d="M189.52,159.94A54.87,54.87,0,0,0,212,155.31c3.32,12,18.72,21.05,37.23,21.05,18.09,0,33.22-8.67,37-20.26a51.43,51.43,0,0,0,19.85,3.83C327,159.94,344,148.35,344,134c0-14-16.14-25.32-36.36-25.87a15.1,15.1,0,0,0,.27-2.84c0-12-14.26-21.76-31.85-21.76a44.93,44.93,0,0,0-12,1.6c-8.25-4.77-18.92-7.65-30.58-7.65-23.34,0-42.74,11.54-46.65,26.72-21.28.95-38.11,13-38.11,27.82C148.72,147.46,167,159.94,189.52,159.94Z" transform="translate(-37.89 -29.53)"/><path class="cls-20" d="M58.78,178.35a29,29,0,0,1,9.34,1.5c3-7.14,12.66-12.37,24.09-12.37,12,0,22,5.73,24.47,13.4a34,34,0,0,1,13.13-2.54c13.85,0,25.07,7.67,25.07,17.13,0,7.58-7.2,14-17.18,16.26a12.29,12.29,0,0,1,1.3,5.46c0,9.46-11.22,17.13-25.07,17.13A32.37,32.37,0,0,1,97.34,230a42.86,42.86,0,0,1-15.58,2.83c-17.31,0-31.34-9.59-31.34-21.41a15.13,15.13,0,0,1,1-5.46c-7.92-2-13.57-7.25-13.57-13.37C37.89,184.74,47.24,178.35,58.78,178.35Z" transform="translate(-37.89 -29.53)"/><path class="cls-20" d="M752.34,142.9a27.25,27.25,0,0,0-8.79,1.42c-2.84-6.72-11.92-11.64-22.67-11.64-11.27,0-20.69,5.4-23,12.61a32,32,0,0,0-12.36-2.39c-13,0-23.6,7.22-23.6,16.12,0,7.13,6.78,13.18,16.17,15.31a11.57,11.57,0,0,0-1.23,5.14c0,8.91,10.56,16.12,23.59,16.12a30.46,30.46,0,0,0,15.62-4,40.34,40.34,0,0,0,14.66,2.66c16.29,0,29.49-9,29.49-20.15a14.25,14.25,0,0,0-1-5.14C766.7,167,772,162.1,772,156.34,772,148.92,763.2,142.9,752.34,142.9Z" transform="translate(-37.89 -29.53)"/><path class="cls-20" d="M574.14,139.5c-13,0-25-3-34.51-8.15-7.35,7.53-19.9,12.48-34.13,12.48-21.21,0-38.66-11-40.8-25.11h-1.2c-22.65,0-41-12.55-41-28,0-15.1,17.47-27.41,39.35-28a16.42,16.42,0,0,1-.29-3.07c0-13,15.43-23.56,34.47-23.56a48.57,48.57,0,0,1,13,1.73c8.93-5.16,20.48-8.28,33.1-8.28,28.32,0,51.27,15.69,51.27,35q0,.46,0,.92C614.75,70.83,630,84.87,630,101.33,630,122.41,605,139.5,574.14,139.5Z" transform="translate(-37.89 -29.53)"/><path class="cls-11" d="M423.35,93.3C420.18,75,440,63.3,461.84,62.71a16.42,16.42,0,0,1-.29-3.07c0-13,15.43-23.56,34.47-23.56a48.57,48.57,0,0,1,13,1.73c8.93-5.16,20.48-8.28,33.1-8.28,28.32,0,51.27,15.69,51.27,35q0,.46,0,.92c21.11,5.29,38.13,20.18,36.63,35.23-.71,7.15-15.51,15.71-32.93,15.86s-31.8-4.14-43.7-8c-6.22,8.21-18.89,14.5-34.73,16.14-23.61,2.44-45.89-6.32-51.94-19.88a4,4,0,0,0-1.33.15C455.2,110,426.52,111.63,423.35,93.3Z" transform="translate(-37.89 -29.53)"/><path class="cls-11" d="M752.34,142.9a27.25,27.25,0,0,0-8.79,1.42c-2.84-6.72-11.92-11.64-22.67-11.64-11.27,0-20.69,5.4-23,12.61a27.12,27.12,0,0,0-12.36-2.39c-6,0-16,2.09-18.68,6.64-3.58,6.06,7.07,12.44,16.37,14.55a11.57,11.57,0,0,0-1.23,5.14c0,8.9,10.56,16.12,23.59,16.12a30.47,30.47,0,0,0,15.62-4c4.32,1.69,9.38,1.9,14.66,2.66,14.3,2.08,31.57-9.08,29.5-20.15a28.71,28.71,0,0,0-1-5.14c3.56.8,7.21-.94,7.58-3.49C772.93,148.33,762.64,142.9,752.34,142.9Z" transform="translate(-37.89 -29.53)"/><path class="cls-11" d="M342.59,127c-2.91-11-18.26-18.38-34.95-18.84a15.1,15.1,0,0,0,.27-2.84c0-12-14.26-21.76-31.85-21.76a44.93,44.93,0,0,0-12,1.6c-8.25-4.77-18.92-7.65-30.58-7.65-23.34,0-42.74,11.54-46.65,26.72-21.28.95-42.12,15-37.59,29.11,5.55,17.26,47.49,19.36,58.27,6.61,3.76,12,21.2,21,42.14,21,20.48,0,37.61-8.67,41.87-20.26C302.22,147.63,349.36,152.72,342.59,127Z" transform="translate(-37.89 -29.53)"/><path class="cls-11" d="M68.12,179.85c3-7.14,12.66-12.37,24.09-12.37,12,0,22,5.73,24.47,13.4a34,34,0,0,1,13.13-2.54c18.13,0,38.16,17.17,11.73,23.16a10.13,10.13,0,0,1,1.3,5.46c-1,11.68-12.95,18-25.07,17.13-6.35-.45-12.17-1.62-16.59-4.29a42.84,42.84,0,0,1-15.58,2.83c-17.31,0-31.34-9.59-31.34-21.41a15.11,15.11,0,0,1,1-5.46C29.65,189.2,47.86,172.92,68.12,179.85Z" transform="translate(-37.89 -29.53)"/></svg>