<svg xmlns="http://www.w3.org/2000/svg" viewBox="0 0 407.83 383.9"><defs><style>.cls-1{isolation:isolate;}.cls-2,.cls-20{mix-blend-mode:multiply;}.cls-3{fill:#d0f1ff;}.cls-4{fill:#fff;}.cls-5{fill:#8addff;}.cls-6{fill:#24bfff;}.cls-7{fill:#a0f1e2;}.cls-8{fill:#49ae9b;}.cls-9{fill:#1b8fbf;}.cls-10{fill:#18979e;}.cls-11{opacity:0.43;}.cls-12{opacity:0.74;}.cls-12,.cls-19,.cls-26,.cls-29,.cls-34,.cls-35,.cls-37{mix-blend-mode:overlay;}.cls-13{fill:#334142;}.cls-14{fill:#61e8cf;}.cls-15{fill:#34595f;}.cls-16{fill:#81edd9;}.cls-17{fill:#ebc218;}.cls-18{fill:#f6980d;}.cls-19{opacity:0.51;}.cls-20{opacity:0.52;}.cls-21{fill:#009ddb;}.cls-22{fill:#f9b59d;}.cls-23{fill:#ffcab3;}.cls-24{fill:#274347;}.cls-25{fill:#7f7f7f;}.cls-26{opacity:0.34;}.cls-27{fill:#0d6093;}.cls-28{fill:#ffae0d;}.cls-29{opacity:0.46;}.cls-30{fill:#00b8ac;}.cls-31{fill:#3f2608;}.cls-32{fill:#7e4c0f;}.cls-33{fill:#e8450c;}.cls-35{opacity:0.53;}.cls-36{fill:#df6601;}.cls-37{opacity:0.77;}</style></defs><title>services3</title><g class="cls-1"><g id="Layer_2" data-name="Layer 2"><g class="cls-2"><path class="cls-3" d="M258.2,320.54c-3.08-.1-6.32-.29-9.62-.57l.32-3.79c3.23.27,6.4.46,9.42.56Z" transform="translate(-42.17 -34.18)"/><path class="cls-3" d="M267.91,320.48l-.25-3.8c.68,0,1.27-.1,1.77-.15,1.51-.18,4-.53,7.43-1.17l.71,3.74c-2.77.52-5.43.95-7.69,1.21C269.32,320.37,268.66,320.43,267.91,320.48Z" transform="translate(-42.17 -34.18)"/><path class="cls-3" d="M239,318.95c-3.19-.42-6.39-.91-9.5-1.46l.66-3.75c3.06.54,6.2,1,9.33,1.43Z" transform="translate(-42.17 -34.18)"/><path class="cls-3" d="M287,317l-.92-3.69c3-.75,6.08-1.6,9.08-2.52l1.11,3.64C293.19,315.39,290.07,316.25,287,317Z" transform="translate(-42.17 -34.18)"/><path class="cls-3" d="M220.09,315.6c-3.17-.72-6.31-1.51-9.33-2.36l1-3.66c3,.83,6,1.6,9.14,2.3Z" transform="translate(-42.17 -34.18)"/><path class="cls-3" d="M305.38,311.4l-1.3-3.57c3-1.09,5.93-2.26,8.75-3.47l1.5,3.49C311.45,309.08,308.44,310.28,305.38,311.4Z" transform="translate(-42.17 -34.18)"/><path class="cls-3" d="M201.56,310.39c-3.08-1.06-6.12-2.2-9-3.4l1.46-3.52c2.83,1.17,5.79,2.29,8.8,3.32Z" transform="translate(-42.17 -34.18)"/><path class="cls-3" d="M323.06,303.76l-1.72-3.39c2.84-1.44,5.6-3,8.22-4.53l2,3.26C328.82,300.71,326,302.28,323.06,303.76Z" transform="translate(-42.17 -34.18)"/><path class="cls-3" d="M183.76,303c-2.94-1.48-5.79-3.06-8.46-4.71l2-3.24c2.58,1.59,5.33,3.12,8.17,4.55Z" transform="translate(-42.17 -34.18)"/><path class="cls-3" d="M339.61,293.81l-2.21-3.1c2.58-1.84,5.05-3.78,7.36-5.76l2.48,2.88C344.85,289.9,342.28,291.91,339.61,293.81Z" transform="translate(-42.17 -34.18)"/><path class="cls-3" d="M167.3,292.78a86.74,86.74,0,0,1-7.41-6.29l2.63-2.75a82.83,82.83,0,0,0,7.08,6Z" transform="translate(-42.17 -34.18)"/><path class="cls-3" d="M354.26,281.13l-2.77-2.61a79.76,79.76,0,0,0,6-7.11l3.06,2.27A83.72,83.72,0,0,1,354.26,281.13Z" transform="translate(-42.17 -34.18)"/><path class="cls-3" d="M153.27,279.35a71.49,71.49,0,0,1-5.63-8l3.25-2a67.35,67.35,0,0,0,5.32,7.54Z" transform="translate(-42.17 -34.18)"/><path class="cls-3" d="M143.19,262.7a69.91,69.91,0,0,1-3.18-9.21l3.67-1a66.15,66.15,0,0,0,3,8.71Z" transform="translate(-42.17 -34.18)"/><path class="cls-3" d="M138.11,243.94c-.07-.54-.14-1.08-.2-1.63l3.78-.43q.09.79.19,1.56Z" transform="translate(-42.17 -34.18)"/><polygon class="cls-3" points="105.15 212.82 97.94 210.24 91.08 213.64 97.14 196.55 105.15 212.82"/><path class="cls-3" d="M129.12,311.58c-.07-.13-1.63-3.28-4-8.82l3.51-1.48c2.27,5.41,3.84,8.57,3.85,8.6Zm-7.51-17.73c-1.12-3-2.21-6-3.24-9l3.6-1.22c1,3,2.08,6,3.2,8.9Zm-6.16-18.16c-.93-3.09-1.81-6.19-2.6-9.23l3.68-1c.78,3,1.65,6.05,2.57,9.1Zm-4.86-18.55c-.7-3.15-1.33-6.32-1.88-9.41l3.75-.67c.54,3,1.17,6.16,1.85,9.26Zm-3.36-18.91c-.42-3.22-.76-6.44-1-9.56l3.79-.3c.24,3.05.58,6.21,1,9.37Zm-1.52-19.17q0-1.88,0-3.77c0-2,0-3.91.11-5.87l3.8.15q-.11,2.86-.11,5.72,0,1.84,0,3.67Zm4.57-18.83-3.78-.42c.36-3.25.84-6.46,1.44-9.55l3.74.72C111.09,194,110.62,197.09,110.28,200.23Zm3.55-18.35-3.66-1c.9-3.15,1.94-6.24,3.11-9.19l3.54,1.4C115.7,175.89,114.69,178.86,113.83,181.89Zm6.85-17.3-3.37-1.76a88.19,88.19,0,0,1,5-8.36l3.16,2.12A84.92,84.92,0,0,0,120.68,164.59ZM131,149.18l-2.9-2.46q.63-.74,1.28-1.47c1.7-1.92,3.47-3.81,5.27-5.63l2.71,2.68c-1.75,1.76-3.47,3.61-5.13,5.48C131.83,148.24,131.43,148.71,131,149.18Zm13.16-13.33L141.67,133c2.39-2.11,4.89-4.18,7.43-6.14l2.33,3C148.95,131.77,146.52,133.79,144.19,135.84ZM159,124.37l-2.12-3.16c2.65-1.78,5.4-3.51,8.16-5.12l1.92,3.29C164.29,121,161.62,122.63,159,124.37Zm16.21-9.46-1.71-3.4c2.85-1.43,5.79-2.8,8.73-4.05l1.5,3.5C180.89,112.18,178,113.51,175.25,114.91Zm137-3.83a64.68,64.68,0,0,1-9.74-1.09l.74-3.74a60.66,60.66,0,0,0,9.16,1ZM322,111l-.21-3.8c3-.17,6.15-.47,9.33-.89l.5,3.77C328.31,110.5,325.08,110.81,322,111Zm19.13-2.5-.74-3.73c3-.61,6.12-1.32,9.16-2.11l1,3.68C347.37,107.13,344.22,107.87,341.1,108.48Zm-148.58-1-1.29-3.58c3-1.07,6.06-2.08,9.15-3l1.08,3.65C198.44,105.47,195.43,106.46,192.52,107.5ZM293,106.68l-.47-.28a42.16,42.16,0,0,0-7.82-3.59L286,99.22a45.6,45.6,0,0,1,8.54,3.93l.39.23Zm66.74-3.08L358.55,100c3-1,6-2,8.85-3.18l1.39,3.54C365.85,101.5,362.8,102.6,359.73,103.6Zm-149.18-1.43-.87-3.71c3.13-.74,6.29-1.39,9.42-1.95l.66,3.75C216.7,100.8,213.6,101.44,210.55,102.16Zm65.23-1.85c-2.9-.63-6-1.16-9.21-1.58L267,95c3.33.43,6.53,1,9.54,1.64Zm-46.71-1.45-.46-3.78c3.17-.39,6.39-.69,9.58-.89l.25,3.8C235.32,98.19,232.17,98.49,229.07,98.86Zm28.16-1c-2.76-.15-5.58-.23-8.39-.23h-1l0-3.81h1c2.88,0,5.77.08,8.6.24Zm120.42-1.35L376,93.08c2.85-1.34,5.67-2.77,8.36-4.27l1.85,3.33C383.47,93.68,380.58,95.16,377.65,96.53Zm16.86-9.4L392.41,84c2.65-1.76,5.2-3.6,7.57-5.49l2.37,3C399.89,83.41,397.25,85.32,394.51,87.13ZM409.63,75,407,72.33a79.29,79.29,0,0,0,6.26-6.85l3,2.39A83,83,0,0,1,409.63,75Zm12.18-15.17-3.25-2a61.14,61.14,0,0,0,4.17-8.21l3.52,1.46A64.49,64.49,0,0,1,421.81,59.88Z" transform="translate(-42.17 -34.18)"/><polygon class="cls-3" points="389.65 17.85 383.44 13.38 375.9 14.74 386.46 0 389.65 17.85"/><circle class="cls-4" cx="174.12" cy="42.6" r="14.4"/><path class="cls-5" d="M207.32,73.78a5,5,0,0,1,.21-1.44,3.73,3.73,0,0,1,.63-1.24,3.13,3.13,0,0,1,1.08-.87,3.83,3.83,0,0,1,3.09,0,3.21,3.21,0,0,1,1.09.87,3.67,3.67,0,0,1,.64,1.24,5.11,5.11,0,0,1,0,2.88,3.67,3.67,0,0,1-.64,1.24,3.24,3.24,0,0,1-1.09.87,3.83,3.83,0,0,1-3.09,0,3.15,3.15,0,0,1-1.08-.87,3.73,3.73,0,0,1-.63-1.24A5,5,0,0,1,207.32,73.78Zm4.47,0a3.06,3.06,0,0,0-.24-1.32.83.83,0,0,0-1.52,0,3.07,3.07,0,0,0-.24,1.32A3.16,3.16,0,0,0,210,75.1a.82.82,0,0,0,1.52,0A3.14,3.14,0,0,0,211.79,73.78Zm1.77,9.1c-.2,0-.43.06-.66.08l-.68,0h-.61a5.72,5.72,0,0,1-.82-.1l7.47-12.79c.2,0,.42-.06.66-.08s.46,0,.68,0h.62a5.71,5.71,0,0,1,.81.1Zm4-3.64a5,5,0,0,1,.21-1.44,3.71,3.71,0,0,1,.63-1.24,3.14,3.14,0,0,1,1.08-.87,3.83,3.83,0,0,1,3.09,0,3.25,3.25,0,0,1,1.09.87,3.61,3.61,0,0,1,.64,1.24,5.08,5.08,0,0,1,0,2.88,3.62,3.62,0,0,1-.64,1.24,3.18,3.18,0,0,1-1.09.87,3.81,3.81,0,0,1-3.09,0,3.08,3.08,0,0,1-1.08-.87,3.73,3.73,0,0,1-.63-1.24A5,5,0,0,1,217.57,79.24Zm4.47,0a3.11,3.11,0,0,0-.24-1.32.84.84,0,0,0-1.52,0,3.1,3.1,0,0,0-.23,1.32,3.17,3.17,0,0,0,.23,1.32.82.82,0,0,0,1.52,0A3.18,3.18,0,0,0,222,79.24Z" transform="translate(-42.17 -34.18)"/><path class="cls-3" d="M155.56,366.09A23.61,23.61,0,0,1,154.3,319V308.63a34,34,0,0,0,2.29,67.88V366.13C156.36,366.13,156,366.11,155.56,366.09Z" transform="translate(-42.17 -34.18)"/><path class="cls-6" d="M154.3,358.47a9.69,9.69,0,0,1-5-2.79,8.59,8.59,0,0,1-2-3,9.55,9.55,0,0,1-.71-3.42h6a4.1,4.1,0,0,0,1.25,2.86,4.18,4.18,0,0,0,2.78,1h.21a4,4,0,0,0,2.92-1.12,3.82,3.82,0,0,0,1.15-2.83,4,4,0,0,0-1.4-3.2,10,10,0,0,0-2.88-1.55c-.34-.13-.69-.25-1.09-.38l-1.22-.39a15,15,0,0,1-2.55-1.19,8.6,8.6,0,0,1-4-7.24,8.2,8.2,0,0,1,1.21-4.35,8.7,8.7,0,0,1,3.29-3.17,8.35,8.35,0,0,1,2-.84V319a23.61,23.61,0,0,0,1.26,47.09L154.3,366Z" transform="translate(-42.17 -34.18)"/><path class="cls-7" d="M159,366l-.67,0Z" transform="translate(-42.17 -34.18)"/><path class="cls-6" d="M159.17,326.89a9.34,9.34,0,0,1,2.1.82,8.38,8.38,0,0,1,3.22,3.11,9.74,9.74,0,0,1,1.32,4.51h-5.87a3.47,3.47,0,0,0-1.07-2.34,3.36,3.36,0,0,0-2.29-.86h-.1a2.88,2.88,0,0,0-2.2.89,3.28,3.28,0,0,0-.84,2.32,3,3,0,0,0,.86,2.21,7.11,7.11,0,0,0,2.29,1.32c.23.1.46.19.73.28l1.31.44a15.8,15.8,0,0,1,4.7,2.36,8.51,8.51,0,0,1,3.24,6.89,9.75,9.75,0,0,1-4.94,8.56,10.2,10.2,0,0,1-2.45,1V366a23.61,23.61,0,0,0,0-46.94v7.85Z" transform="translate(-42.17 -34.18)"/><path class="cls-8" d="M156.59,366.13c-.34,0-.69,0-1,0C156,366.11,156.36,366.13,156.59,366.13Z" transform="translate(-42.17 -34.18)"/><path class="cls-8" d="M158.31,366.05c-.58,0-1.15.08-1.73.08C156.95,366.14,157.71,366.09,158.31,366.05Z" transform="translate(-42.17 -34.18)"/><path class="cls-8" d="M159.17,366h0l-.18,0Z" transform="translate(-42.17 -34.18)"/><path class="cls-5" d="M180.62,318.48a33.82,33.82,0,0,0-21.45-9.84c-.86-.07-1.72-.12-2.58-.12s-1.53.06-2.29.11v18.3a8.35,8.35,0,0,0-2,.84,8.7,8.7,0,0,0-3.29,3.17,8.2,8.2,0,0,0-1.21,4.35,8.6,8.6,0,0,0,4,7.24,15,15,0,0,0,2.55,1.19l1.22.39c.39.12.74.25,1.09.38a10,10,0,0,1,2.88,1.55,4,4,0,0,1,1.4,3.2,3.82,3.82,0,0,1-1.15,2.83,4,4,0,0,1-2.92,1.12h-.21a4.18,4.18,0,0,1-2.78-1,4.1,4.1,0,0,1-1.25-2.86h-6a9.55,9.55,0,0,0,.71,3.42,8.59,8.59,0,0,0,2,3,9.69,9.69,0,0,0,5,2.79V366l1.26.09c.34,0,.69,0,1,0,.58,0,1.15,0,1.73-.08-.6,0-1.37.08-1.73.08v10.37a34,34,0,0,0,24-58Zm-7.34,40.74A23.49,23.49,0,0,1,159.17,366H159l.18,0V358.4a10.2,10.2,0,0,0,2.45-1,9.75,9.75,0,0,0,4.94-8.56,8.51,8.51,0,0,0-3.24-6.89,15.8,15.8,0,0,0-4.7-2.36l-1.31-.44c-.27-.09-.49-.18-.73-.28a7.11,7.11,0,0,1-2.29-1.32,3,3,0,0,1-.86-2.21,3.28,3.28,0,0,1,.84-2.32,2.88,2.88,0,0,1,2.2-.89h.1a3.36,3.36,0,0,1,2.29.86,3.47,3.47,0,0,1,1.07,2.34h5.87a9.74,9.74,0,0,0-1.32-4.51,8.38,8.38,0,0,0-3.22-3.11,9.34,9.34,0,0,0-2.1-.82V319a23.61,23.61,0,0,1,14.12,40.18Z" transform="translate(-42.17 -34.18)"/><path class="cls-5" d="M57.22,233.22h0a10.34,10.34,0,0,0-10.34,10.34v5.55H67.56v-5.55A10.34,10.34,0,0,0,57.22,233.22Z" transform="translate(-42.17 -34.18)"/><circle class="cls-5" cx="15.05" cy="191.96" r="7.08"/><path class="cls-5" d="M278.83,193l8.81-5.86a25.54,25.54,0,0,0,12,2.88c11.16,0,20.22-6.56,20.22-14.65s-9.05-14.64-20.22-14.64-20.21,6.55-20.21,14.64a11.73,11.73,0,0,0,2.8,7.44Z" transform="translate(-42.17 -34.18)"/><circle class="cls-6" cx="267.96" cy="141.2" r="2.93"/><circle class="cls-6" cx="257.51" cy="141.2" r="2.93"/><circle class="cls-6" cx="247.06" cy="141.2" r="2.93"/><path class="cls-5" d="M254.62,59.21l-6.55-4.36a19,19,0,0,1-9,2.14c-8.3,0-15-4.88-15-10.89s6.73-10.89,15-10.89,15,4.88,15,10.89a8.72,8.72,0,0,1-2.08,5.53Z" transform="translate(-42.17 -34.18)"/><circle class="cls-6" cx="189.17" cy="11.92" r="2.18"/><circle class="cls-6" cx="196.94" cy="11.92" r="2.18"/><circle class="cls-6" cx="204.72" cy="11.92" r="2.18"/><path class="cls-5" d="M273.4,182.78,261.09,191a35.65,35.65,0,0,0-16.83-4c-15.6,0-28.25,9.17-28.25,20.47s12.65,20.46,28.25,20.46,28.25-9.16,28.25-20.46A16.38,16.38,0,0,0,268.6,197Z" transform="translate(-42.17 -34.18)"/><circle class="cls-6" cx="187.49" cy="173.23" r="4.09"/><ellipse class="cls-6" cx="202.09" cy="173.23" rx="4.1" ry="4.09"/><circle class="cls-6" cx="216.69" cy="173.23" r="4.09"/><polygon class="cls-5" points="147.62 362.17 72.77 362.17 72.77 364.59 147.62 364.59 152.96 364.59 193.5 364.59 193.5 362.17 152.96 362.17 147.62 362.17"/><polygon class="cls-5" points="147.62 367 72.77 367 72.77 369.42 147.62 369.42 152.96 369.42 193.5 369.42 193.5 367 152.96 367 147.62 367"/><polygon class="cls-5" points="147.62 371.83 72.77 371.83 72.77 374.24 147.62 374.24 152.96 374.24 193.5 374.24 193.5 371.83 152.96 371.83 147.62 371.83"/><polygon class="cls-5" points="147.62 376.66 72.77 376.66 72.77 379.08 147.62 379.08 152.96 379.08 193.5 379.08 193.5 376.66 152.96 376.66 147.62 376.66"/><polygon class="cls-5" points="147.62 381.49 72.77 381.49 72.77 383.9 147.62 383.9 152.96 383.9 193.5 383.9 193.5 381.49 152.96 381.49 147.62 381.49"/><rect class="cls-5" x="72.77" y="347.74" width="120.73" height="2.41"/><rect class="cls-5" x="72.77" y="352.57" width="120.73" height="2.41"/><rect class="cls-5" x="72.77" y="357.4" width="120.73" height="2.42"/><polygon class="cls-5" points="44.94 158.75 44.94 233.6 47.36 233.6 47.36 158.75 47.36 153.42 47.36 112.87 44.94 112.87 44.94 153.42 44.94 158.75"/><polygon class="cls-5" points="49.77 158.75 49.77 233.6 52.19 233.6 52.19 158.75 52.19 153.42 52.19 112.87 49.77 112.87 49.77 153.42 49.77 158.75"/><polygon class="cls-5" points="54.6 158.75 54.6 233.6 57.02 233.6 57.02 158.75 57.02 153.42 57.02 112.87 54.6 112.87 54.6 153.42 54.6 158.75"/><polygon class="cls-5" points="28.8 158.75 28.8 233.6 31.21 233.6 31.21 158.75 31.21 153.42 31.21 112.87 28.8 112.87 28.8 153.42 28.8 158.75"/><polygon class="cls-5" points="390.44 94.34 362.06 94.34 362.06 96.75 390.44 96.75 392.46 96.75 407.83 96.75 407.83 94.34 392.46 94.34 390.44 94.34"/><rect class="cls-5" x="362.06" y="79.91" width="45.78" height="2.41"/><rect class="cls-5" x="362.06" y="84.74" width="45.78" height="2.41"/><rect class="cls-5" x="362.06" y="89.57" width="45.78" height="2.41"/><rect class="cls-5" x="352.71" y="203.42" width="53.29" height="12.02" transform="translate(-79.14 295.41) rotate(-45)"/><rect class="cls-6" x="378.86" y="183.41" width="4.01" height="49.01" transform="translate(461.13 590.03) rotate(-135.02)"/><rect class="cls-4" x="357.76" y="221.63" width="4.27" height="6.01" transform="translate(-95.59 286.14) rotate(-45.01)"/><rect class="cls-4" x="362.01" y="225.88" width="4.27" height="6.01" transform="translate(-97.38 290.25) rotate(-44.99)"/><polygon class="cls-4" points="363.03 153.28 360.27 160.66 356.02 156.41 361.09 151.34 363.03 153.28"/><polygon class="cls-4" points="359.15 149.41 361.09 151.34 356.02 156.41 351.77 152.16 359.15 149.41"/><path class="cls-5" d="M352,234.84l1,1,1,1a4.6,4.6,0,0,0,6.51,0l4.31-4.31-4.25-4.25L356.26,224,352,228.33A4.6,4.6,0,0,0,352,234.84Z" transform="translate(-42.17 -34.18)"/><polygon class="cls-5" points="359.15 149.41 361.09 151.34 363.03 153.28 365.34 147.09 359.15 149.41"/></g><polygon class="cls-6" points="115.69 96.49 95.76 83.57 95.76 102.28 135.62 102.28 135.62 83.57 115.69 96.49"/><polygon class="cls-9" points="135.62 83.57 95.76 83.57 115.69 96.49 135.62 83.57"/><rect class="cls-10" x="101.16" y="97.43" width="2.9" height="2.9"/><rect class="cls-4" x="105.5" y="97.43" width="2.89" height="2.9"/><rect class="cls-4" x="110.38" y="98.63" width="10.62" height="1.7"/><g class="cls-11"><g class="cls-12"><rect class="cls-4" x="95.76" y="83.57" width="19.93" height="18.71"/></g></g><path class="cls-13" d="M223.56,398.77q-1.36,0-2.72-.11l.29-3.68a31.11,31.11,0,0,0,8.62-.53l.74,3.62A34.64,34.64,0,0,1,223.56,398.77Zm-12.15-2.21a34.14,34.14,0,0,1-8.47-4.66l2.22-2.95a30.63,30.63,0,0,0,7.55,4.16Zm28.18-1.74-1.72-3.27a30.54,30.54,0,0,0,7-5.06l2.56,2.66A34.48,34.48,0,0,1,239.58,394.82ZM196,385.48,189.54,379l2.61-2.61,6.49,6.49Zm57.9-2.84L251.32,380l6.49-6.49,2.61,2.61ZM183.05,372.5,176.57,366l2.61-2.61,6.49,6.49Zm83.85-2.84L264.3,367l6.49-6.49,2.61,2.61Zm-96.83-10.14L163.59,353l2.61-2.61,6.49,6.49Zm109.81-2.84-2.61-2.61,6.49-6.49,2.61,2.61ZM157.1,346.54l-6.49-6.49,2.61-2.61,6.49,6.49Zm135.76-2.84-2.61-2.61,6.49-6.49,2.61,2.61ZM144.12,333.56l-6.49-6.49,2.61-2.61,6.49,6.49Zm161.72-2.84-2.61-2.61,6.49-6.49,2.61,2.61Zm-174.7-10.14-6.49-6.49,2.61-2.61,6.49,6.49Zm187.68-2.84-2.61-2.61,6.49-6.49,2.61,2.61ZM118.17,307.61l-6.49-6.49,2.61-2.61,6.49,6.49Zm213.63-2.84-2.61-2.61,6.49-6.49,2.61,2.61ZM105.19,294.63l-6.49-6.49,2.61-2.61L107.8,292Zm239.59-2.84-2.61-2.61,6.49-6.49,2.61,2.61ZM92.21,281.65l-6.49-6.49,2.61-2.61L94.82,279Zm265.54-2.84-2.61-2.61,6.49-6.49,2.61,2.61ZM79.23,268.67l-6.49-6.49,2.61-2.61,6.49,6.49Zm291.5-2.84-2.61-2.61,6.49-6.49,2.61,2.61ZM66.25,255.7l-6.49-6.49,2.61-2.61,6.49,6.49Zm317.46-2.84-2.61-2.61,6.49-6.49,2.7,2.52-.18.18ZM53.39,242.23a34,34,0,0,1-4.52-8.55l3.47-1.24a30.43,30.43,0,0,0,4,7.63Zm342.67-3.67-3.24-1.77a30.52,30.52,0,0,0,3-8.08l3.6.8A34.17,34.17,0,0,1,396.06,238.56ZM46.92,224.21c0-.71-.07-1.43-.07-2.14a34.67,34.67,0,0,1,.82-7.49l3.6.8a31,31,0,0,0-.73,6.69c0,.64,0,1.28.06,1.91Zm349.58-4.11a30.69,30.69,0,0,0-1.75-8.45l3.47-1.25a34.42,34.42,0,0,1,2,9.46ZM54.32,207.31l-3.23-1.78a34.39,34.39,0,0,1,5.8-7.73l2.61,2.61A30.86,30.86,0,0,0,54.32,207.31ZM390.72,204a31,31,0,0,0-3.13-3.66l-2.87-2.87,2.61-2.61,2.87,2.87a34.71,34.71,0,0,1,3.51,4.1ZM66,193.92l-2.61-2.61,6.49-6.49,2.61,2.61ZM378.22,191l-6.49-6.49,2.61-2.61,6.49,6.49ZM79,180.95l-2.61-2.61,6.49-6.49,2.61,2.61ZM365.25,178l-6.49-6.49,2.61-2.61,6.49,6.49ZM91.94,168l-2.61-2.61,6.49-6.49,2.61,2.61Zm260.33-2.91-6.49-6.49,2.61-2.61,6.49,6.49ZM104.92,155l-2.61-2.61,6.49-6.49,2.61,2.61Zm234.37-2.91-6.49-6.49,2.61-2.61,6.49,6.49ZM117.9,142l-2.61-2.61,6.49-6.49,2.61,2.61Zm208.41-2.91-6.49-6.49,2.61-2.61,6.49,6.49ZM130.88,129l-2.61-2.61,6.49-6.49,2.61,2.61Zm182.46-2.91-6.49-6.49,2.61-2.61,6.49,6.49ZM143.86,116.05l-2.61-2.61,6.49-6.49,2.61,2.61Zm156.5-2.91-6.49-6.49,2.61-2.61,6.49,6.49ZM156.83,103.07l-2.61-2.61L160.71,94l2.61,2.61Zm130.54-2.91-6.49-6.49,2.61-2.61L290,97.56ZM169.81,90.1l-2.61-2.61L173.69,81l2.61,2.61ZM274.4,87.19l-6.49-6.49,2.61-2.61L277,84.58ZM182.79,77.12l-2.61-2.61L186.67,68l2.61,2.61Zm78.63-2.91-6.49-6.49,2.61-2.61L264,71.6ZM195.77,64.14l-2.61-2.61L199.67,55l2.56,2.65Zm52.68-2.91L245.25,58a31.11,31.11,0,0,0-3.32-2.88l2.21-3a34.37,34.37,0,0,1,3.71,3.22l3.19,3.19ZM209.22,52.6l-1.73-3.26a34.14,34.14,0,0,1,9.1-3.27l.75,3.62A30.66,30.66,0,0,0,209.22,52.6ZM234.37,51a30.64,30.64,0,0,0-8.42-1.87l.29-3.68a34.48,34.48,0,0,1,9.44,2.09Z" transform="translate(-42.17 -34.18)"/><polygon class="cls-14" points="244.87 102.65 221.14 87.27 221.14 109.55 268.6 109.55 268.6 87.27 244.87 102.65"/><polygon class="cls-7" points="268.6 87.27 221.14 87.27 244.87 102.65 268.6 87.27"/><rect class="cls-10" x="227.57" y="103.78" width="3.45" height="3.45"/><rect class="cls-4" x="232.74" y="103.78" width="3.45" height="3.45"/><rect class="cls-14" x="238.55" y="105.2" width="12.65" height="2.03"/><g class="cls-11"><g class="cls-12"><rect class="cls-4" x="221.14" y="87.27" width="23.73" height="22.28"/></g></g><polygon class="cls-14" points="162.63 321.81 150.23 313.77 150.23 325.41 175.02 325.41 175.02 313.77 162.63 321.81"/><polygon class="cls-7" points="175.02 313.77 150.23 313.77 162.63 321.81 175.02 313.77"/><rect class="cls-10" x="153.59" y="322.39" width="1.8" height="1.8"/><rect class="cls-4" x="156.29" y="322.39" width="1.8" height="1.8"/><rect class="cls-14" x="159.32" y="323.14" width="6.61" height="1.06"/><g class="cls-11"><g class="cls-12"><rect class="cls-4" x="150.23" y="313.77" width="12.4" height="11.64"/></g></g><polygon class="cls-14" points="217.34 276.81 179.77 252.46 179.77 287.73 254.9 287.73 254.9 252.46 217.34 276.81"/><polygon class="cls-7" points="254.9 252.46 179.77 252.46 217.34 276.81 254.9 252.46"/><rect class="cls-10" x="189.95" y="278.59" width="5.46" height="5.46"/><rect class="cls-4" x="198.13" y="278.59" width="5.46" height="5.46"/><rect class="cls-14" x="207.33" y="280.84" width="20.02" height="3.21"/><g class="cls-11"><g class="cls-12"><rect class="cls-4" x="179.77" y="252.46" width="37.56" height="35.27"/></g></g><polygon class="cls-15" points="227.79 307.27 211.58 296.76 211.58 311.99 243.99 311.99 243.99 296.76 227.79 307.27"/><polygon class="cls-13" points="243.99 296.76 211.58 296.76 227.79 307.27 243.99 296.76"/><rect class="cls-10" x="215.97" y="308.04" width="2.36" height="2.36"/><rect class="cls-4" x="219.5" y="308.04" width="2.35" height="2.36"/><rect class="cls-14" x="223.47" y="309.01" width="8.64" height="1.38"/><g class="cls-11"><g class="cls-12"><rect class="cls-4" x="211.58" y="296.76" width="16.21" height="15.22"/></g></g><polygon class="cls-15" points="228.72 75.14 212.51 64.63 212.51 79.85 244.93 79.85 244.93 64.63 228.72 75.14"/><polygon class="cls-13" points="244.93 64.63 212.51 64.63 228.72 75.14 244.93 64.63"/><rect class="cls-10" x="216.9" y="75.91" width="2.35" height="2.36"/><rect class="cls-4" x="220.44" y="75.91" width="2.35" height="2.36"/><rect class="cls-14" x="224.4" y="76.88" width="8.64" height="1.38"/><g class="cls-11"><g class="cls-12"><rect class="cls-4" x="212.51" y="64.63" width="16.21" height="15.22"/></g></g><circle class="cls-14" cx="177.1" cy="169.08" r="56.55"/><path class="cls-4" d="M183.45,203.47q0,9.76,8.2,9.76a13.42,13.42,0,0,0,2.79-.28,27.94,27.94,0,0,0,3.2-.92,24.73,24.73,0,0,1,2,6.82c-.89.34-1.72.61-2.49.83a19,19,0,0,1-2.21.49c-.71.11-1.41.18-2.1.23s-1.41.07-2.14.07a17.38,17.38,0,0,1-6.89-1.27,13.74,13.74,0,0,1-5-3.52,14.9,14.9,0,0,1-3-5.39,22.08,22.08,0,0,1-1-6.82,21.42,21.42,0,0,1,1.06-6.84,15.89,15.89,0,0,1,3.07-5.46,13.72,13.72,0,0,1,5-3.59,16.5,16.5,0,0,1,6.68-1.29,25.92,25.92,0,0,1,4.2.33,21.5,21.5,0,0,1,4.42,1.29,13.44,13.44,0,0,1-.69,3.66,27,27,0,0,1-1.24,3.11c-.62-.22-1.17-.4-1.68-.55s-1-.28-1.45-.37-.92-.16-1.38-.21-1-.07-1.47-.07A7,7,0,0,0,185.5,196Q183.45,198.5,183.45,203.47Z" transform="translate(-42.17 -34.18)"/><path class="cls-4" d="M203.76,186.93l4.17-.44a37.39,37.39,0,0,1,4-.21,27.09,27.09,0,0,1,5.06.48,13.6,13.6,0,0,1,4.51,1.68,9.45,9.45,0,0,1,3.23,3.27A10.1,10.1,0,0,1,226,197a11.25,11.25,0,0,1-.39,3.06,10.74,10.74,0,0,1-1,2.42,9.73,9.73,0,0,1-1.38,1.84,12.81,12.81,0,0,1-1.5,1.34l7.19,14.19q-1.11.19-2.42.28c-.87.06-1.66.09-2.37.09s-1.33,0-2.14-.09a17.71,17.71,0,0,1-2.14-.28l-6.54-15.06.41-.23a5.26,5.26,0,0,0,1.22-.92,8.79,8.79,0,0,0,1.24-1.55,9.73,9.73,0,0,0,1-2,6.92,6.92,0,0,0,.39-2.3,4.09,4.09,0,0,0-1.29-3.36,4.85,4.85,0,0,0-3.18-1.06,5.48,5.48,0,0,0-.78,0,1.6,1.6,0,0,0-.42.09v26.35a24.6,24.6,0,0,1-4,.42,24.34,24.34,0,0,1-4.1-.42Z" transform="translate(-42.17 -34.18)"/><path class="cls-4" d="M233.11,186.93c.65-.09,1.35-.18,2.1-.25s1.45-.12,2.1-.12a19.3,19.3,0,0,1,2,.12c.72.07,1.39.16,2,.25l6.54,17.14,6.78-17.14c.62-.09,1.23-.18,1.86-.25a15.54,15.54,0,0,1,1.87-.12,17.81,17.81,0,0,1,2,.12c.67.07,1.33.16,2,.25l1.57,32.89-1.64.28a16.25,16.25,0,0,1-2.37.14,20.93,20.93,0,0,1-3.83-.42l-.64-19.07-5.07,12.58c-.55.09-1.1.17-1.66.23a14.08,14.08,0,0,1-1.52.09c-.46,0-.94,0-1.43-.07a11.31,11.31,0,0,1-1.52-.25l-4.51-12.39-.51,18.88a17.39,17.39,0,0,1-3.69.42,19.48,19.48,0,0,1-3.73-.42Z" transform="translate(-42.17 -34.18)"/><path class="cls-6" d="M290.71,203.26a71.34,71.34,0,0,0-66.1-71.05v5.88a65.37,65.37,0,0,1,0,130.35v5.88A71.34,71.34,0,0,0,290.71,203.26Z" transform="translate(-42.17 -34.18)"/><path class="cls-16" d="M154.05,203.26a65.47,65.47,0,0,1,60.31-65.18V132.2a71.24,71.24,0,0,0,0,142.11v-5.88A65.47,65.47,0,0,1,154.05,203.26Z" transform="translate(-42.17 -34.18)"/><path class="cls-17" d="M219.15,123.64a79.71,79.71,0,0,1,79.37,73.6h5.88a85.46,85.46,0,0,0-170.49,0h5.88A79.71,79.71,0,0,1,219.15,123.64Z" transform="translate(-42.17 -34.18)"/><path class="cls-18" d="M219.15,282.88a79.72,79.72,0,0,1-79.5-75.39h-5.87a85.48,85.48,0,0,0,170.74,0h-5.87A79.72,79.72,0,0,1,219.15,282.88Z" transform="translate(-42.17 -34.18)"/><polygon class="cls-17" points="258.75 169.88 250.23 156.23 267.26 156.23 258.75 169.88"/><polygon class="cls-18" points="95.06 166.48 103.58 180.13 86.55 180.13 95.06 166.48"/><polygon class="cls-6" points="175.61 236.78 189.27 228.27 189.27 245.3 175.61 236.78"/><polygon class="cls-16" points="179.02 101.44 165.37 109.95 165.37 92.93 179.02 101.44"/><g class="cls-19"><path class="cls-4" d="M219.15,172.56a34.82,34.82,0,0,1,16.18,4,7.51,7.51,0,0,0,8.8-1.33h0a7.53,7.53,0,0,0-1.79-12,50,50,0,0,0-46.39,0,7.53,7.53,0,0,0-1.79,12h0a7.51,7.51,0,0,0,8.8,1.33A34.8,34.8,0,0,1,219.15,172.56Z" transform="translate(-42.17 -34.18)"/></g><g class="cls-20"><path class="cls-21" d="M217.78,232.67a34.79,34.79,0,0,1-16.18-4,7.51,7.51,0,0,0-8.8,1.34h0a7.54,7.54,0,0,0,1.79,12A50,50,0,0,0,241,242a7.54,7.54,0,0,0,1.79-12h0a7.51,7.51,0,0,0-8.8-1.34A34.79,34.79,0,0,1,217.78,232.67Z" transform="translate(-42.17 -34.18)"/></g><path class="cls-22" d="M193.45,271.91c0,3.06,2.45,4.77,5.57,7.05h0a5.54,5.54,0,0,0,5.53-5.56l0-14.62a5.55,5.55,0,0,0-5.57-5.53h0a5.54,5.54,0,0,0-5.53,5.56Z" transform="translate(-42.17 -34.18)"/><path class="cls-23" d="M243.41,292.38l-.13-43.19v-1.31a5.55,5.55,0,1,0-11.09,0v-4.16a5.54,5.54,0,1,0-11.09,0v-3.62a5.53,5.53,0,0,0-11.05-.35V216.64a5.56,5.56,0,0,0-11.12,0v27.52h0l.14,44.19c0,.08,0,.16,0,.24l.06,12.63,44.35-.14Z" transform="translate(-42.17 -34.18)"/><path class="cls-4" d="M231.37,284.88a10.16,10.16,0,1,0-10.13,10.18A10.17,10.17,0,0,0,231.37,284.88Z" transform="translate(-42.17 -34.18)"/><path class="cls-13" d="M233.31,278.73a13.57,13.57,0,0,0-24.22.08l-10.07,0,0,14.48,11.47,0a13.55,13.55,0,0,0,21.43-.07l11.47,0,0-14.48Zm-12.06,16.33a10.15,10.15,0,1,1,10.13-10.18A10.17,10.17,0,0,1,221.25,295.06Z" transform="translate(-42.17 -34.18)"/><path class="cls-24" d="M227.64,284.35h-4.56a2,2,0,0,0-1.33-1.31v-6.33h-1.09l0,6.34a1.94,1.94,0,1,0,2.41,2.4h4.56Z" transform="translate(-42.17 -34.18)"/><path class="cls-5" d="M199.11,300.8h-1.6a21,21,0,0,0,21.08,21h2.74l0-21Z" transform="translate(-42.17 -34.18)"/><path class="cls-6" d="M245.07,300.66h-1.6l-22.19.07,0,21h2.79a21,21,0,0,0,21-21.07Z" transform="translate(-42.17 -34.18)"/><g class="cls-20"><path class="cls-25" d="M141.48,198.47v-1.95h-1.59v-16a3.86,3.86,0,0,0-3.86-3.86h-3a2,2,0,0,0-3.93,0h-1.19l-11.17-19.34H99.28v-3.1H91v3.1H73.41L62.24,176.63H61.15a2,2,0,0,0-3.93,0h-3a3.86,3.86,0,0,0-3.86,3.86v16H48.75v1.95h-1.5v7.64h0a37.71,37.71,0,0,0,37.67,37.38H105.5A37.72,37.72,0,0,0,143,206.11h0v-7.64Z" transform="translate(-42.17 -34.18)"/></g><path class="cls-15" d="M88.22,238.41h0Z" transform="translate(-42.17 -34.18)"/><path class="cls-15" d="M83.08,238.41h0Z" transform="translate(-42.17 -34.18)"/><path class="cls-15" d="M136.41,193.39H124.85v25.47a6.5,6.5,0,0,1-6.5,6.5H90v13.06h10.39A37.71,37.71,0,0,0,137.9,201h0v-7.64Zm-1.18,4a1.34,1.34,0,1,1,1.34-1.34A1.34,1.34,0,0,1,135.22,197.41Z" transform="translate(-42.17 -34.18)"/><g class="cls-26"><path class="cls-4" d="M83.82,225.36h0Z" transform="translate(-42.17 -34.18)"/></g><path class="cls-15" d="M88.21,225.36H61.72a6.5,6.5,0,0,1-6.5-6.5V193.39H42.17V201h0a37.71,37.71,0,0,0,37.67,37.38H90V225.36ZM44.85,197.41a1.34,1.34,0,1,1,1.34-1.34A1.34,1.34,0,0,1,44.85,197.41Z" transform="translate(-42.17 -34.18)"/><g class="cls-26"><path class="cls-4" d="M88.21,225.36H61.72a6.5,6.5,0,0,1-6.5-6.5V193.39H42.17V201h0a37.71,37.71,0,0,0,37.67,37.38H90V225.36ZM44.85,197.41a1.34,1.34,0,1,1,1.34-1.34A1.34,1.34,0,0,1,44.85,197.41Z" transform="translate(-42.17 -34.18)"/></g><path class="cls-27" d="M67.39,177.7a8.12,8.12,0,0,1,.46-2.67H56.08v1.6l11.31,19.59Z" transform="translate(-42.17 -34.18)"/><path class="cls-27" d="M116.23,189.91l4.42-7.66h0l3.34-5.78V175h-9.05a8.09,8.09,0,0,1,1.29,4.39Z" transform="translate(-42.17 -34.18)"/><path class="cls-27" d="M100,182.49v-.31h0C99.94,182.28,100,182.38,100,182.49Z" transform="translate(-42.17 -34.18)"/><path class="cls-5" d="M61.36,175h6.48a8.14,8.14,0,0,1,7.68-5.48A5.57,5.57,0,0,1,70,164a5.49,5.49,0,0,1,.11-1.13c0-.12.08-.24.11-.36a5.06,5.06,0,0,1,.21-.68c.06-.13.14-.25.2-.38a5.53,5.53,0,0,1,.31-.57c.08-.12.19-.23.29-.35a5.62,5.62,0,0,1,.4-.48c.11-.11.24-.2.36-.3a5,5,0,0,1,.47-.38c.13-.09.28-.15.42-.23a5.42,5.42,0,0,1,.53-.28c.12,0,.26-.08.39-.12l.27-.08c.13,0,.26-.09.39-.12l.19,0a5.55,5.55,0,0,1,.75-.07l.17,0h0a5.35,5.35,0,0,1,1.05.11l.07,0a5.45,5.45,0,0,1,1,.31h0A5.58,5.58,0,0,1,80.78,162h0a5.53,5.53,0,0,1-5.2,7.53A8.14,8.14,0,0,1,83,174.4c.17,0,.35,0,.53,0l.17,0h0a5.45,5.45,0,0,1,1,.11l.08,0a5.41,5.41,0,0,1,1,.31h0c.13.05.27.1.39.17v-6.17a5.55,5.55,0,0,1,.12-1.12c0-.13.08-.24.11-.37a5.74,5.74,0,0,1,.21-.68c.05-.13.14-.25.2-.37a5.07,5.07,0,0,1,.31-.57c.08-.12.19-.23.29-.35a5.21,5.21,0,0,1,.4-.48c.11-.11.24-.2.36-.29a5.71,5.71,0,0,1,.47-.38c.13-.09.28-.15.42-.23a5.77,5.77,0,0,1,.53-.28c.12-.05.26-.08.39-.12l.27-.08c.13,0,.26-.09.39-.12l.19,0a5.86,5.86,0,0,1,.75-.07l.17,0h0a5.66,5.66,0,0,1,1.05.11l.07,0a5.42,5.42,0,0,1,1,.31h0a5.57,5.57,0,0,1,3.07,3.18h0a5.49,5.49,0,0,1,.37,2v4.43c.08-.09.15-.2.24-.29s.24-.2.36-.29a4.89,4.89,0,0,1,.47-.38,4.53,4.53,0,0,1,.42-.23,5.39,5.39,0,0,1,.53-.29c.12-.05.26-.08.39-.12l.27-.08c.13,0,.26-.09.39-.12l.19,0a5.49,5.49,0,0,1,.75-.07l.17,0h0a5.6,5.6,0,0,1,1.05.11l.08,0a5.71,5.71,0,0,1,1,.3h0a5.91,5.91,0,0,1,.76.39,8.09,8.09,0,0,1,3.6-.85,5.53,5.53,0,0,1-5.2-7.53h0a5.58,5.58,0,0,1,3.07-3.18h0a5.41,5.41,0,0,1,1-.3l.07,0a5.66,5.66,0,0,1,1.05-.11h0l.17,0a5.55,5.55,0,0,1,.75.07l.19,0c.14,0,.26.08.39.12l.27.08c.13,0,.26.07.39.12a4.47,4.47,0,0,1,.52.28c.14.08.3.14.43.23a5.15,5.15,0,0,1,.46.38,4.34,4.34,0,0,1,.37.3,5.3,5.3,0,0,1,.39.47c.1.12.21.23.29.36a5.27,5.27,0,0,1,.3.56c.07.13.15.25.21.38a6.31,6.31,0,0,1,.21.67c0,.13.09.25.12.38a5.58,5.58,0,0,1-5.46,6.7,8.12,8.12,0,0,1,6.85,3.75h3.77a3.47,3.47,0,0,1-3.47-3.47h7.57l-11.17-19.35H94.2v3.11H85.88v-3.11H68.33L57.16,171.56h7.66A3.47,3.47,0,0,1,61.36,175Z" transform="translate(-42.17 -34.18)"/><rect class="cls-28" x="43.71" y="118.03" width="8.32" height="3.11"/><rect class="cls-28" x="43.71" y="114.93" width="8.32" height="3.1"/><g class="cls-29"><rect class="cls-4" x="43.71" y="114.93" width="8.32" height="3.1"/></g><path class="cls-30" d="M67.39,196.22l.94,1.63h7.2V193a7.59,7.59,0,0,1,2.57-5.69v-7.35a5.62,5.62,0,0,1,.11-1.12c0-.13.08-.24.11-.36a5.87,5.87,0,0,1,.21-.69c.06-.13.14-.25.2-.37a5.6,5.6,0,0,1,.31-.57c.08-.12.19-.23.29-.35a5.39,5.39,0,0,1,.4-.48c.11-.11.24-.19.36-.29a5.89,5.89,0,0,1,.47-.39c.13-.09.28-.15.42-.23a5.83,5.83,0,0,1,.53-.28c.13-.05.26-.08.39-.12l.27-.08c.13,0,.26-.09.39-.12l.19,0,.21,0a8.14,8.14,0,0,0-15.58,3.3Z" transform="translate(-42.17 -34.18)"/><path class="cls-22" d="M75.53,158.41l-.17,0,.19,0Z" transform="translate(-42.17 -34.18)"/><path class="cls-22" d="M70,164a5.49,5.49,0,0,1,.11-1.13A5.49,5.49,0,0,0,70,164Z" transform="translate(-42.17 -34.18)"/><path class="cls-22" d="M72,159.74a5,5,0,0,1,.47-.38A5,5,0,0,0,72,159.74Z" transform="translate(-42.17 -34.18)"/><path class="cls-22" d="M81.1,164a5.55,5.55,0,0,0-.37-2h-.11a3.94,3.94,0,0,1-2.54-1,3.83,3.83,0,0,0-2.5-.92l-.29,0A5.55,5.55,0,0,1,70,164H70a5.57,5.57,0,0,0,11.14,0Z" transform="translate(-42.17 -34.18)"/><path class="cls-22" d="M71.2,160.52a5.62,5.62,0,0,1,.4-.48A5.62,5.62,0,0,0,71.2,160.52Z" transform="translate(-42.17 -34.18)"/><path class="cls-22" d="M70.6,161.43a5.53,5.53,0,0,1,.31-.57A5.53,5.53,0,0,0,70.6,161.43Z" transform="translate(-42.17 -34.18)"/><path class="cls-22" d="M76.63,158.52l.07,0Z" transform="translate(-42.17 -34.18)"/><path class="cls-22" d="M77.69,158.85h0Z" transform="translate(-42.17 -34.18)"/><path class="cls-22" d="M70.19,162.49a5.2,5.2,0,0,1,.21-.68A5.06,5.06,0,0,0,70.19,162.49Z" transform="translate(-42.17 -34.18)"/><path class="cls-22" d="M72.85,159.13a5.42,5.42,0,0,1,.53-.28A5.42,5.42,0,0,0,72.85,159.13Z" transform="translate(-42.17 -34.18)"/><path class="cls-22" d="M74.43,158.52c-.14,0-.26.08-.39.12h0C74.18,158.6,74.3,158.55,74.43,158.52Z" transform="translate(-42.17 -34.18)"/><path class="cls-31" d="M75.29,160.11l.29,0a3.83,3.83,0,0,1,2.5.92,3.94,3.94,0,0,0,2.54,1h.16a5.58,5.58,0,0,0-3.07-3.18h0a5.45,5.45,0,0,0-1-.31l-.07,0a5.35,5.35,0,0,0-1.05-.11h0A5.45,5.45,0,0,1,75.29,160.11Z" transform="translate(-42.17 -34.18)"/><path class="cls-31" d="M74.05,158.64h0l-.27.08Z" transform="translate(-42.17 -34.18)"/><path class="cls-31" d="M75.56,158.41h0l-.19,0a5.55,5.55,0,0,0-.75.07A5.63,5.63,0,0,1,75.56,158.41Z" transform="translate(-42.17 -34.18)"/><path class="cls-32" d="M75.29,160.11a5.45,5.45,0,0,0,.29-1.69h0a5.63,5.63,0,0,0-1,.09l-.19,0c-.13,0-.25.08-.37.11l-.29.09c-.13,0-.26.07-.39.12a5.42,5.42,0,0,0-.53.28c-.14.08-.29.14-.42.23a5,5,0,0,0-.47.38c-.12.1-.25.19-.36.3a5.62,5.62,0,0,0-.4.48c-.09.12-.2.22-.29.35a5.53,5.53,0,0,0-.31.57c-.07.13-.15.25-.2.38a5.2,5.2,0,0,0-.21.68c0,.12-.09.24-.11.36A5.49,5.49,0,0,0,70,164H70A5.55,5.55,0,0,0,75.29,160.11Z" transform="translate(-42.17 -34.18)"/><path class="cls-10" d="M106.8,174.91h0a5.54,5.54,0,0,1-5.2,7.53,5.6,5.6,0,0,1-1.61-.26v.35a7.57,7.57,0,0,1,1.08-.09h.53a8.14,8.14,0,0,1,8.14,8.14v7.28h2l4.58-7.94v-10.5a8.13,8.13,0,0,0-11.74-7.29A5.6,5.6,0,0,1,106.8,174.91Z" transform="translate(-42.17 -34.18)"/><path class="cls-22" d="M113.22,163.53a6.31,6.31,0,0,1,.21.67A6.31,6.31,0,0,0,113.22,163.53Z" transform="translate(-42.17 -34.18)"/><path class="cls-22" d="M108.09,160.13h0l.19,0Z" transform="translate(-42.17 -34.18)"/><path class="cls-22" d="M110.25,160.57a4.47,4.47,0,0,1,.52.28A4.47,4.47,0,0,0,110.25,160.57Z" transform="translate(-42.17 -34.18)"/><path class="cls-22" d="M111.2,161.08a5.15,5.15,0,0,1,.46.38A5.15,5.15,0,0,0,111.2,161.08Z" transform="translate(-42.17 -34.18)"/><path class="cls-22" d="M112,161.76a5.3,5.3,0,0,1,.39.47A5.3,5.3,0,0,0,112,161.76Z" transform="translate(-42.17 -34.18)"/><path class="cls-22" d="M106.92,160.27l.07,0Z" transform="translate(-42.17 -34.18)"/><path class="cls-22" d="M112.71,162.59a5.27,5.27,0,0,1,.3.56A5.27,5.27,0,0,0,112.71,162.59Z" transform="translate(-42.17 -34.18)"/><path class="cls-22" d="M109.59,160.37c-.13,0-.26-.09-.39-.12.13,0,.25.08.37.12Z" transform="translate(-42.17 -34.18)"/><path class="cls-22" d="M113.66,165.71h-.05a5.55,5.55,0,0,1-5.28-3.88l-.29,0a3.84,3.84,0,0,0-2.5.92,3.93,3.93,0,0,1-2.54,1h-.11a5.56,5.56,0,1,0,10.77,2Z" transform="translate(-42.17 -34.18)"/><path class="cls-22" d="M113.55,164.58a5.61,5.61,0,0,1,.11,1.13A5.61,5.61,0,0,0,113.55,164.58Z" transform="translate(-42.17 -34.18)"/><path class="cls-22" d="M105.92,160.58h0Z" transform="translate(-42.17 -34.18)"/><path class="cls-31" d="M109,160.23a5.55,5.55,0,0,0-.75-.07l-.19,0h0A5.43,5.43,0,0,1,109,160.23Z" transform="translate(-42.17 -34.18)"/><path class="cls-31" d="M109.86,160.45l-.27-.08h0Z" transform="translate(-42.17 -34.18)"/><path class="cls-31" d="M105.54,162.74a3.84,3.84,0,0,1,2.5-.92l.29,0a5.52,5.52,0,0,1-.29-1.69h0a5.66,5.66,0,0,0-1.05.11l-.07,0a5.41,5.41,0,0,0-1,.3h0a5.58,5.58,0,0,0-3.07,3.18H103A3.93,3.93,0,0,0,105.54,162.74Z" transform="translate(-42.17 -34.18)"/><path class="cls-32" d="M108.33,161.83a5.55,5.55,0,0,0,5.28,3.88h.05a5.61,5.61,0,0,0-.11-1.12c0-.13-.08-.25-.12-.38a6.31,6.31,0,0,0-.21-.67c-.06-.14-.14-.25-.21-.38a5.27,5.27,0,0,0-.3-.56c-.09-.13-.2-.24-.29-.36a5.3,5.3,0,0,0-.39-.47,4.34,4.34,0,0,0-.37-.3,5.15,5.15,0,0,0-.46-.38c-.14-.09-.29-.16-.43-.23a4.47,4.47,0,0,0-.52-.28c-.12-.05-.26-.08-.39-.12l-.29-.09c-.13,0-.25-.09-.37-.12l-.19,0a5.43,5.43,0,0,0-.95-.09h0A5.52,5.52,0,0,0,108.33,161.83Z" transform="translate(-42.17 -34.18)"/><polygon class="cls-4" points="78.49 148.07 78.49 148.07 78.49 148.07 78.49 148.07"/><path class="cls-6" d="M90,220.63H88.31v-1.2H90V204.06H85.88v-6.21H68.33l-.94-1.63L56.08,176.63v8.08a3.89,3.89,0,0,1-.86,2.42v31.72a6.5,6.5,0,0,0,6.5,6.5H90Zm-12.48-1.2v1.2H74v-1.2Zm-10.76,0h3.58v1.2H66.8Zm-7.26-29.62h1.2v3.58h-1.2Zm0,7.17h1.2v3.59h-1.2Zm0,7.17h1.2v3.59h-1.2Zm0,7.17h1.2v3.59h-1.2Zm3.67,9.3h-.7a3,3,0,0,1-2.79-1.94l1.13-.42a1.78,1.78,0,0,0,1.66,1.16h.7Zm21.52,0H81.14v-1.2h3.58Z" transform="translate(-42.17 -34.18)"/><path class="cls-21" d="M124,184.71v-8.25l-3.34,5.78h0l-4.42,7.66-4.58,7.94H94.2v6.21H90v15.38H91.9v1.2H90v4.72h28.31a6.5,6.5,0,0,0,6.5-6.5V187.14A3.9,3.9,0,0,1,124,184.71Zm-4.53,5.09h1.2v3.59h-1.2Zm0,7.17h1.2v3.59h-1.2Zm0,7.17h1.2v3.59h-1.2Zm-6,15.29v1.2h-3.59v-1.2Zm-7.17,0v1.2h-3.59v-1.2Zm-7.17,1.2H95.48v-1.2h3.59Zm18.62,0H117v-1.2h.68a1.78,1.78,0,0,0,1.67-1.17l1.13.41A3,3,0,0,1,117.69,220.63Zm1.77-5.73v-3.59h1.2v3.59Z" transform="translate(-42.17 -34.18)"/><polygon class="cls-33" points="43.71 166.78 43.71 169.88 47.87 169.88 52.03 169.88 52.03 166.78 43.71 166.78"/><rect class="cls-6" x="46.14" y="185.26" width="1.72" height="1.2"/><g class="cls-34"><rect class="cls-4" x="46.14" y="185.26" width="1.72" height="1.2"/></g><rect class="cls-6" x="17.37" y="155.63" width="1.2" height="3.58"/><g class="cls-34"><rect class="cls-4" x="17.37" y="155.63" width="1.2" height="3.58"/></g><rect class="cls-6" x="24.63" y="185.26" width="3.59" height="1.2"/><g class="cls-34"><rect class="cls-4" x="24.63" y="185.26" width="3.59" height="1.2"/></g><rect class="cls-6" x="17.37" y="162.8" width="1.2" height="3.59"/><g class="cls-34"><rect class="cls-4" x="17.37" y="162.8" width="1.2" height="3.59"/></g><rect class="cls-6" x="17.37" y="177.15" width="1.2" height="3.59"/><g class="cls-34"><rect class="cls-4" x="17.37" y="177.15" width="1.2" height="3.59"/></g><rect class="cls-6" x="31.8" y="185.26" width="3.59" height="1.2"/><g class="cls-34"><rect class="cls-4" x="31.8" y="185.26" width="3.59" height="1.2"/></g><rect class="cls-6" x="17.37" y="169.98" width="1.2" height="3.59"/><g class="cls-34"><rect class="cls-4" x="17.37" y="169.98" width="1.2" height="3.59"/></g><rect class="cls-6" x="38.97" y="185.26" width="3.58" height="1.2"/><g class="cls-34"><rect class="cls-4" x="38.97" y="185.26" width="3.58" height="1.2"/></g><path class="cls-6" d="M60.85,218.28l-1.12.42a3,3,0,0,0,2.79,1.94h.7v-1.2h-.7A1.78,1.78,0,0,1,60.85,218.28Z" transform="translate(-42.17 -34.18)"/><g class="cls-34"><path class="cls-4" d="M60.85,218.28l-1.12.42a3,3,0,0,0,2.79,1.94h.7v-1.2h-.7A1.78,1.78,0,0,1,60.85,218.28Z" transform="translate(-42.17 -34.18)"/></g><rect class="cls-21" x="77.29" y="177.14" width="1.2" height="3.59"/><g class="cls-34"><rect class="cls-4" x="77.29" y="177.14" width="1.2" height="3.59"/></g><rect class="cls-21" x="77.29" y="162.79" width="1.2" height="3.59"/><g class="cls-34"><rect class="cls-4" x="77.29" y="162.79" width="1.2" height="3.59"/></g><rect class="cls-21" x="67.66" y="185.26" width="3.59" height="1.2"/><g class="cls-34"><rect class="cls-4" x="67.66" y="185.26" width="3.59" height="1.2"/></g><rect class="cls-21" x="53.32" y="185.26" width="3.59" height="1.2"/><g class="cls-34"><rect class="cls-4" x="53.32" y="185.26" width="3.59" height="1.2"/></g><rect class="cls-21" x="60.49" y="185.26" width="3.59" height="1.2"/><g class="cls-34"><rect class="cls-4" x="60.49" y="185.26" width="3.59" height="1.2"/></g><rect class="cls-21" x="77.29" y="155.62" width="1.2" height="3.59"/><g class="cls-34"><rect class="cls-4" x="77.29" y="155.62" width="1.2" height="3.59"/></g><rect class="cls-21" x="77.29" y="169.96" width="1.2" height="3.59"/><g class="cls-34"><rect class="cls-4" x="77.29" y="169.96" width="1.2" height="3.59"/></g><rect class="cls-21" x="47.87" y="185.26" width="1.86" height="1.2"/><g class="cls-34"><rect class="cls-4" x="47.87" y="185.26" width="1.86" height="1.2"/></g><path class="cls-21" d="M117.69,219.44H117v1.2h.68a3,3,0,0,0,2.79-2l-1.13-.41A1.78,1.78,0,0,1,117.69,219.44Z" transform="translate(-42.17 -34.18)"/><g class="cls-34"><path class="cls-4" d="M117.69,219.44H117v1.2h.68a3,3,0,0,0,2.79-2l-1.13-.41A1.78,1.78,0,0,1,117.69,219.44Z" transform="translate(-42.17 -34.18)"/></g><polygon class="cls-33" points="49.64 163.67 47.87 163.67 43.71 163.67 43.71 166.78 52.03 166.78 52.03 163.67 51.25 163.67 49.64 163.67"/><g class="cls-29"><polygon class="cls-4" points="49.64 163.67 47.87 163.67 43.71 163.67 43.71 166.78 52.03 166.78 52.03 163.67 51.25 163.67 49.64 163.67"/></g><path class="cls-31" d="M91.81,174.35a8.07,8.07,0,0,1,4.33,1.26c0-.08,0-.15.07-.23a5.82,5.82,0,0,1,.21-.68c.06-.13.14-.25.2-.38a5.4,5.4,0,0,1,.31-.57c.08-.12.19-.23.29-.35l.16-.19v-4.43A5.57,5.57,0,0,1,91.81,174.35Z" transform="translate(-42.17 -34.18)"/><path class="cls-31" d="M90.27,174.1v.39a8.06,8.06,0,0,1,1.54-.15A5.54,5.54,0,0,1,90.27,174.1Z" transform="translate(-42.17 -34.18)"/><path class="cls-18" d="M91.81,193.48v4.37h1.61v-7.8a7.61,7.61,0,0,1,6.54-7.53v0c0-.11,0-.21,0-.32a5.55,5.55,0,0,1-3.84-6.43s0-.09,0-.14a8.07,8.07,0,0,0-5.87-1.11v2.88a4,4,0,0,1-1,2.66v7.52A8.11,8.11,0,0,1,91.81,193.48Z" transform="translate(-42.17 -34.18)"/><path class="cls-22" d="M86.88,166.23a5.07,5.07,0,0,1,.31-.57A5.07,5.07,0,0,0,86.88,166.23Z" transform="translate(-42.17 -34.18)"/><path class="cls-22" d="M92.91,163.31l.07,0Z" transform="translate(-42.17 -34.18)"/><path class="cls-22" d="M90.71,163.32c-.14,0-.26.08-.39.12h0C90.46,163.39,90.58,163.34,90.71,163.32Z" transform="translate(-42.17 -34.18)"/><path class="cls-22" d="M94,163.64h0Z" transform="translate(-42.17 -34.18)"/><path class="cls-22" d="M86.24,168.78a5.55,5.55,0,0,1,.12-1.12A5.55,5.55,0,0,0,86.24,168.78Z" transform="translate(-42.17 -34.18)"/><path class="cls-22" d="M94.36,165.8a3.83,3.83,0,0,0-2.5-.93l-.29,0a5.56,5.56,0,0,1-1.3,2.2v7A5.52,5.52,0,0,0,97,166.82H96.9A3.94,3.94,0,0,1,94.36,165.8Z" transform="translate(-42.17 -34.18)"/><path class="cls-22" d="M86.47,167.29a5.74,5.74,0,0,1,.21-.68A5.74,5.74,0,0,0,86.47,167.29Z" transform="translate(-42.17 -34.18)"/><path class="cls-22" d="M87.48,165.31a5.21,5.21,0,0,1,.4-.48A5.21,5.21,0,0,0,87.48,165.31Z" transform="translate(-42.17 -34.18)"/><path class="cls-22" d="M89.13,163.92a5.77,5.77,0,0,1,.53-.28A5.77,5.77,0,0,0,89.13,163.92Z" transform="translate(-42.17 -34.18)"/><path class="cls-22" d="M88.24,164.54a5.71,5.71,0,0,1,.47-.38A5.71,5.71,0,0,0,88.24,164.54Z" transform="translate(-42.17 -34.18)"/><path class="cls-22" d="M91.81,163.21l-.17,0h.17Z" transform="translate(-42.17 -34.18)"/><path class="cls-31" d="M91.84,163.21h-.2a5.86,5.86,0,0,0-.75.07A5.64,5.64,0,0,1,91.84,163.21Z" transform="translate(-42.17 -34.18)"/><path class="cls-31" d="M91.86,163.21a5.54,5.54,0,0,1-.29,1.69l.29,0a3.83,3.83,0,0,1,2.5.93,3.94,3.94,0,0,0,2.54,1h.16A5.57,5.57,0,0,0,94,163.65h0a5.42,5.42,0,0,0-1-.31l-.07,0a5.66,5.66,0,0,0-1.05-.11h0Z" transform="translate(-42.17 -34.18)"/><path class="cls-31" d="M90.33,163.43h0l-.27.08Z" transform="translate(-42.17 -34.18)"/><path class="cls-31" d="M88.92,178h0a5.55,5.55,0,0,1,.37,2V180a4,4,0,0,0,1-2.66V167.1a5.54,5.54,0,0,1-4,1.68h-.05v6.17A5.6,5.6,0,0,1,88.92,178Z" transform="translate(-42.17 -34.18)"/><path class="cls-32" d="M90.27,167.1a5.87,5.87,0,0,0,1.59-3.89h0a5.64,5.64,0,0,0-.95.09l-.19,0c-.13,0-.25.08-.37.11l-.29.09c-.13,0-.26.07-.39.12a5.77,5.77,0,0,0-.53.28c-.14.08-.29.14-.42.23a5.71,5.71,0,0,0-.47.38c-.12.1-.25.19-.36.29a5.21,5.21,0,0,0-.4.48c-.09.12-.2.22-.29.35a5.07,5.07,0,0,0-.31.57c-.07.13-.15.24-.2.37a5.74,5.74,0,0,0-.21.68c0,.13-.09.24-.11.37a5.55,5.55,0,0,0-.12,1.13h.05A5.54,5.54,0,0,0,90.27,167.1Z" transform="translate(-42.17 -34.18)"/><path class="cls-31" d="M78.1,179.91v7.35a7.57,7.57,0,0,1,4.46-1.89A5.57,5.57,0,0,1,78.1,179.91Z" transform="translate(-42.17 -34.18)"/><path class="cls-31" d="M84.57,185.39a8.1,8.1,0,0,1,4.68,2.16v-7.65A5.56,5.56,0,0,1,84.57,185.39Z" transform="translate(-42.17 -34.18)"/><path class="cls-17" d="M91.81,197.85v-4.37a8.16,8.16,0,0,0-7.24-8.09,5.64,5.64,0,0,1-.9.09h0v12.37h8.14Z" transform="translate(-42.17 -34.18)"/><path class="cls-22" d="M85.83,174.77h0Z" transform="translate(-42.17 -34.18)"/><path class="cls-22" d="M84.77,174.45l.08,0Z" transform="translate(-42.17 -34.18)"/><path class="cls-22" d="M83.67,174.34l-.17,0h.17Z" transform="translate(-42.17 -34.18)"/><path class="cls-22" d="M78.33,178.42a5.87,5.87,0,0,1,.21-.69A5.87,5.87,0,0,0,78.33,178.42Z" transform="translate(-42.17 -34.18)"/><path class="cls-22" d="M78.1,179.91a5.62,5.62,0,0,1,.11-1.12A5.62,5.62,0,0,0,78.1,179.91Z" transform="translate(-42.17 -34.18)"/><path class="cls-22" d="M78.74,177.36a5.6,5.6,0,0,1,.31-.57A5.6,5.6,0,0,0,78.74,177.36Z" transform="translate(-42.17 -34.18)"/><path class="cls-22" d="M80.1,175.67a5.89,5.89,0,0,1,.47-.39A5.89,5.89,0,0,0,80.1,175.67Z" transform="translate(-42.17 -34.18)"/><path class="cls-22" d="M79.34,176.44a5.39,5.39,0,0,1,.4-.48A5.39,5.39,0,0,0,79.34,176.44Z" transform="translate(-42.17 -34.18)"/><path class="cls-22" d="M81.52,174.77a5.83,5.83,0,0,0-.53.28A5.83,5.83,0,0,1,81.52,174.77Z" transform="translate(-42.17 -34.18)"/><path class="cls-22" d="M82.57,174.45c-.14,0-.26.08-.39.12h0A3.68,3.68,0,0,1,82.57,174.45Z" transform="translate(-42.17 -34.18)"/><path class="cls-22" d="M82.56,185.37l.59,0h.53v.14h0a5.64,5.64,0,0,0,.9-.09A5.51,5.51,0,0,0,88.87,178h-.12a3.92,3.92,0,0,1-2.54-1,3.84,3.84,0,0,0-2.5-.93l-.29,0a5.55,5.55,0,0,1-5.28,3.88H78.1A5.57,5.57,0,0,0,82.56,185.37Z" transform="translate(-42.17 -34.18)"/><path class="cls-31" d="M83.7,174.34h-.2c-.18,0-.36,0-.53,0l-.21,0A5.39,5.39,0,0,1,83.7,174.34Z" transform="translate(-42.17 -34.18)"/><path class="cls-31" d="M83.72,174.35a5.48,5.48,0,0,1-.29,1.69l.29,0a3.84,3.84,0,0,1,2.5.93,3.92,3.92,0,0,0,2.54,1h.16a5.6,5.6,0,0,0-2.68-3c-.12-.07-.26-.11-.39-.17h0a5.41,5.41,0,0,0-1-.31l-.08,0a5.45,5.45,0,0,0-1-.11h0Z" transform="translate(-42.17 -34.18)"/><path class="cls-31" d="M82.19,174.56h0l-.27.08Z" transform="translate(-42.17 -34.18)"/><path class="cls-32" d="M82.75,174.43l-.19,0a3.68,3.68,0,0,0-.37.11l-.29.09c-.13,0-.26.07-.39.12a5.83,5.83,0,0,0-.53.28c-.14.08-.29.14-.42.23a5.89,5.89,0,0,0-.47.39c-.12.1-.25.18-.36.29a5.39,5.39,0,0,0-.4.48c-.09.12-.2.22-.29.35a5.6,5.6,0,0,0-.31.57c-.07.13-.15.24-.2.38a5.87,5.87,0,0,0-.21.69c0,.12-.09.23-.11.36a5.62,5.62,0,0,0-.11,1.13h.05A5.55,5.55,0,0,0,83.43,176a5.48,5.48,0,0,0,.29-1.69h0A5.39,5.39,0,0,0,82.75,174.43Z" transform="translate(-42.17 -34.18)"/><path class="cls-5" d="M101.56,182.44h0v15.42h8.14v-7.28A8.14,8.14,0,0,0,101.56,182.44Z" transform="translate(-42.17 -34.18)"/><path class="cls-22" d="M100.45,171.41c-.14,0-.26.08-.39.12h0C100.2,171.48,100.32,171.43,100.45,171.41Z" transform="translate(-42.17 -34.18)"/><path class="cls-22" d="M98.87,172a5.39,5.39,0,0,1,.53-.29A5.39,5.39,0,0,0,98.87,172Z" transform="translate(-42.17 -34.18)"/><path class="cls-22" d="M103.71,171.73h0Z" transform="translate(-42.17 -34.18)"/><path class="cls-22" d="M98,172.63a4.89,4.89,0,0,1,.47-.38A4.89,4.89,0,0,0,98,172.63Z" transform="translate(-42.17 -34.18)"/><path class="cls-22" d="M102.65,171.4l.08,0Z" transform="translate(-42.17 -34.18)"/><path class="cls-22" d="M101.56,171.3l-.17,0h.17Z" transform="translate(-42.17 -34.18)"/><path class="cls-22" d="M96.42,174.69a5.82,5.82,0,0,0-.21.68A5.82,5.82,0,0,1,96.42,174.69Z" transform="translate(-42.17 -34.18)"/><path class="cls-22" d="M97.62,172.92c-.09.09-.16.19-.24.29l-.16.19A5.49,5.49,0,0,1,97.62,172.92Z" transform="translate(-42.17 -34.18)"/><path class="cls-22" d="M96.63,174.32a5.4,5.4,0,0,1,.31-.57A5.4,5.4,0,0,0,96.63,174.32Z" transform="translate(-42.17 -34.18)"/><path class="cls-22" d="M99.93,182.17h0a5.5,5.5,0,0,0,7.18-5.31,5.54,5.54,0,0,0-.37-2h-.12a3.94,3.94,0,0,1-2.54-1,3.83,3.83,0,0,0-2.5-.92l-.29,0A5.55,5.55,0,0,1,96,176.87H96A5.54,5.54,0,0,0,99.93,182.17Z" transform="translate(-42.17 -34.18)"/><path class="cls-22" d="M96.1,175.74a5.6,5.6,0,0,0-.11,1.13A5.6,5.6,0,0,1,96.1,175.74Z" transform="translate(-42.17 -34.18)"/><path class="cls-31" d="M100.08,171.52h0l-.27.08Z" transform="translate(-42.17 -34.18)"/><path class="cls-31" d="M101.58,171.3h-.2a5.49,5.49,0,0,0-.75.07A5.58,5.58,0,0,1,101.58,171.3Z" transform="translate(-42.17 -34.18)"/><path class="cls-31" d="M101.6,171.3a5.46,5.46,0,0,1-.29,1.69l.29,0a3.83,3.83,0,0,1,2.5.92,3.94,3.94,0,0,0,2.54,1h.16a5.6,5.6,0,0,0-2.31-2.79,5.91,5.91,0,0,0-.76-.39h0a5.71,5.71,0,0,0-1-.3l-.08,0a5.6,5.6,0,0,0-1-.11h0Z" transform="translate(-42.17 -34.18)"/><path class="cls-32" d="M97.23,173.4c-.09.12-.2.22-.29.35a5.4,5.4,0,0,0-.31.57c-.07.13-.15.24-.2.38a5.82,5.82,0,0,0-.21.68c0,.08-.05.15-.07.23s0,.09,0,.14a5.6,5.6,0,0,0-.11,1.13H96a5.55,5.55,0,0,0,5.28-3.88,5.46,5.46,0,0,0,.29-1.69h0a5.58,5.58,0,0,0-.95.09l-.19,0c-.13,0-.25.08-.37.11l-.29.09c-.13,0-.26.07-.39.12a5.39,5.39,0,0,0-.53.29,4.53,4.53,0,0,0-.42.23,4.89,4.89,0,0,0-.47.38c-.12.1-.25.18-.36.29A5.49,5.49,0,0,0,97.23,173.4Z" transform="translate(-42.17 -34.18)"/><path class="cls-30" d="M78.1,187.56v-.29A7.59,7.59,0,0,0,75.53,193v.53A8.11,8.11,0,0,1,78.1,187.56Z" transform="translate(-42.17 -34.18)"/><g class="cls-35"><path class="cls-4" d="M78.1,187.56v-.29A7.59,7.59,0,0,0,75.53,193v.53A8.11,8.11,0,0,1,78.1,187.56Z" transform="translate(-42.17 -34.18)"/></g><path class="cls-31" d="M82.78,185.39l-.22,0a7.57,7.57,0,0,0-4.46,1.89v.29A8.1,8.1,0,0,1,82.78,185.39Z" transform="translate(-42.17 -34.18)"/><g class="cls-35"><path class="cls-4" d="M82.78,185.39l-.22,0a7.57,7.57,0,0,0-4.46,1.89v.29A8.1,8.1,0,0,1,82.78,185.39Z" transform="translate(-42.17 -34.18)"/></g><path class="cls-17" d="M83.67,185.48a5.64,5.64,0,0,1-.9-.09,8.16,8.16,0,0,0-7.25,8.09v4.37h8.14Z" transform="translate(-42.17 -34.18)"/><g class="cls-35"><path class="cls-4" d="M83.67,185.48a5.64,5.64,0,0,1-.9-.09,8.16,8.16,0,0,0-7.25,8.09v4.37h8.14Z" transform="translate(-42.17 -34.18)"/></g><path class="cls-22" d="M83.67,185.34h-.53l-.59,0,.22,0a5.64,5.64,0,0,0,.9.09Z" transform="translate(-42.17 -34.18)"/><g class="cls-35"><path class="cls-4" d="M83.67,185.34h-.53l-.59,0,.22,0a5.64,5.64,0,0,0,.9.09Z" transform="translate(-42.17 -34.18)"/></g><path class="cls-10" d="M101.56,182.44H101a7.57,7.57,0,0,0-1.08.09v.07A8.22,8.22,0,0,1,101.56,182.44Z" transform="translate(-42.17 -34.18)"/><g class="cls-35"><path class="cls-4" d="M101.56,182.44H101a7.57,7.57,0,0,0-1.08.09v.07A8.22,8.22,0,0,1,101.56,182.44Z" transform="translate(-42.17 -34.18)"/></g><path class="cls-18" d="M93.42,190.05v.53a8.14,8.14,0,0,1,6.54-8v-.07A7.61,7.61,0,0,0,93.42,190.05Z" transform="translate(-42.17 -34.18)"/><g class="cls-35"><path class="cls-4" d="M93.42,190.05v.53a8.14,8.14,0,0,1,6.54-8v-.07A7.61,7.61,0,0,0,93.42,190.05Z" transform="translate(-42.17 -34.18)"/></g><path class="cls-5" d="M100,182.6a8.14,8.14,0,0,0-6.54,8v7.28h8.14V182.44A8.22,8.22,0,0,0,100,182.6Z" transform="translate(-42.17 -34.18)"/><g class="cls-35"><path class="cls-4" d="M100,182.6a8.14,8.14,0,0,0-6.54,8v7.28h8.14V182.44A8.22,8.22,0,0,0,100,182.6Z" transform="translate(-42.17 -34.18)"/></g><path class="cls-22" d="M52.13,175v-3.47h-3a3.86,3.86,0,0,0-3.86,3.86v12.71h6.88Z" transform="translate(-42.17 -34.18)"/><polygon class="cls-22" points="9.97 154.48 9.97 153.94 3.09 153.94 3.09 154.48 3.09 157.26 9.97 157.26 9.97 154.48"/><path class="cls-22" d="M56.08,175h5.28a3.47,3.47,0,0,0,3.46-3.47H56.07s0,.06,0,.1Z" transform="translate(-42.17 -34.18)"/><path class="cls-22" d="M52.14,171.56h0v.1S52.14,171.59,52.14,171.56Z" transform="translate(-42.17 -34.18)"/><path class="cls-23" d="M52.13,175v13.64a4,4,0,0,0,3.95-3.94V175h0v-3.37s0-.06,0-.1a2,2,0,0,0-3.93,0s0,.06,0,.1Z" transform="translate(-42.17 -34.18)"/><polygon class="cls-5" points="11.55 159.21 11.55 159.21 11.55 157.26 9.97 157.26 3.09 157.26 1.5 157.26 1.5 159.21 1.5 159.21 11.55 159.21"/><path class="cls-22" d="M127.94,175v13.1h6.88V175.41a3.86,3.86,0,0,0-3.86-3.86h-3V175Z" transform="translate(-42.17 -34.18)"/><polygon class="cls-22" points="85.77 154.48 85.77 157.26 92.65 157.26 92.65 154.48 92.65 153.94 85.77 153.94 85.77 154.48"/><path class="cls-22" d="M118.71,175H124v-3.37s0-.06,0-.1h-8.76A3.47,3.47,0,0,0,118.71,175Z" transform="translate(-42.17 -34.18)"/><path class="cls-22" d="M127.94,171.56h0s0,.06,0,.1Z" transform="translate(-42.17 -34.18)"/><path class="cls-23" d="M124,175h0v9.68a4,4,0,0,0,3.95,3.94v-17s0-.06,0-.1a2,2,0,0,0-3.93,0s0,.06,0,.1Z" transform="translate(-42.17 -34.18)"/><polygon class="cls-5" points="84.19 157.26 84.19 159.21 84.19 159.21 94.24 159.21 94.24 159.21 94.24 157.26 92.65 157.26 85.77 157.26 84.19 157.26"/><circle class="cls-5" cx="93.06" cy="161.89" r="1.34"/><circle class="cls-5" cx="2.68" cy="161.89" r="1.34"/><path class="cls-14" d="M264,46.67l5-.52a44.54,44.54,0,0,1,4.79-.25,31.9,31.9,0,0,1,6,.57,16.07,16.07,0,0,1,5.36,2,11.2,11.2,0,0,1,3.84,3.89,12,12,0,0,1,1.48,6.24,13.29,13.29,0,0,1-.46,3.64,12.72,12.72,0,0,1-1.2,2.88,11.54,11.54,0,0,1-1.65,2.19,14.74,14.74,0,0,1-1.78,1.59l8.54,16.86c-.88.15-1.83.26-2.88.33s-2,.11-2.82.11-1.58,0-2.55-.11a21,21,0,0,1-2.54-.33l-7.77-17.9.49-.28a6.14,6.14,0,0,0,1.45-1.09,10.2,10.2,0,0,0,1.48-1.83,11.69,11.69,0,0,0,1.15-2.38,8.18,8.18,0,0,0,.46-2.74,4.87,4.87,0,0,0-1.53-4A5.76,5.76,0,0,0,275,54.28a7.25,7.25,0,0,0-.93.05,2,2,0,0,0-.49.11V85.76a29.4,29.4,0,0,1-4.76.49,29.08,29.08,0,0,1-4.87-.49Z" transform="translate(-42.17 -34.18)"/><path class="cls-14" d="M298.86,46.67c.77-.11,1.6-.21,2.49-.3a24.55,24.55,0,0,1,2.49-.14,22.48,22.48,0,0,1,2.38.14c.86.09,1.65.19,2.38.3L316.38,67l8.05-20.37,2.21-.3a18.22,18.22,0,0,1,2.22-.14,20.84,20.84,0,0,1,2.36.14c.8.09,1.59.19,2.35.3l1.86,39.09c-.59.11-1.24.22-1.95.33a19.58,19.58,0,0,1-2.82.16,25,25,0,0,1-4.54-.49l-.77-22.67-6,14.95c-.65.11-1.31.2-2,.27a16.72,16.72,0,0,1-1.81.11q-.82,0-1.7-.08a13.13,13.13,0,0,1-1.8-.3l-5.37-14.73-.61,22.45a20.78,20.78,0,0,1-4.38.49,23.29,23.29,0,0,1-4.43-.49Z" transform="translate(-42.17 -34.18)"/><circle class="cls-36" cx="200.9" cy="32" r="20.91"/><circle class="cls-4" cx="200.84" cy="31.89" r="16.67"/><path class="cls-17" d="M243.11,45.23h0Z" transform="translate(-42.17 -34.18)"/><path class="cls-17" d="M246.93,45.59q.62.12,1.27.28C247.77,45.77,247.35,45.67,246.93,45.59Z" transform="translate(-42.17 -34.18)"/><path class="cls-17" d="M240.93,45.34l.16,0Z" transform="translate(-42.17 -34.18)"/><path class="cls-17" d="M241,87h0Z" transform="translate(-42.17 -34.18)"/><path class="cls-17" d="M245.58,87l-.62.06Z" transform="translate(-42.17 -34.18)"/><path class="cls-17" d="M251.55,85.37c-.88.34-1.68.67-2.45.9A20.44,20.44,0,0,0,251.55,85.37Z" transform="translate(-42.17 -34.18)"/><path class="cls-17" d="M248.69,46c.37.1.74.21,1.13.34C249.45,46.22,249.07,46.11,248.69,46Z" transform="translate(-42.17 -34.18)"/><path class="cls-17" d="M247.63,86.65l-.68.13Z" transform="translate(-42.17 -34.18)"/><path class="cls-10" d="M251.79,85.27v0l-.24.12Z" transform="translate(-42.17 -34.18)"/><path class="cls-10" d="M246.1,86.94l.85-.16c-.45.08-.91.15-1.37.21Z" transform="translate(-42.17 -34.18)"/><path class="cls-10" d="M248.87,86.35l.22-.08c-.48.14-1,.27-1.47.38C248,86.56,248.48,86.46,248.87,86.35Z" transform="translate(-42.17 -34.18)"/><path class="cls-10" d="M246.16,45.45a18.51,18.51,0,0,0-3-.21,21.18,21.18,0,0,1,3.75.36Z" transform="translate(-42.17 -34.18)"/><path class="cls-10" d="M241,87a14,14,0,0,0,2.54.11l1.42-.09c-.61.05-1.22.09-1.84.09A21,21,0,0,1,241,87Z" transform="translate(-42.17 -34.18)"/><path class="cls-10" d="M241.1,45.33c.63-.05,1.27-.09,1.92-.09Q242.08,45.24,241.1,45.33Z" transform="translate(-42.17 -34.18)"/><path class="cls-10" d="M248.19,45.87l.5.13Z" transform="translate(-42.17 -34.18)"/><path class="cls-10" d="M251.23,46.86c-.49-.2-1-.36-1.42-.52.48.16,1,.33,1.42.52Z" transform="translate(-42.17 -34.18)"/><path class="cls-14" d="M243.11,78.45a12.26,12.26,0,0,1-6.18-22.84h0A12.22,12.22,0,0,1,249,55.43l2.23-8.57c-.46-.19-.94-.36-1.42-.52s-.76-.24-1.13-.34l-.5-.13q-.64-.16-1.27-.28a21.18,21.18,0,0,0-3.75-.36H243c-.65,0-1.29,0-1.92.09l-.16,0a21,21,0,0,0-18.76,20.49c0,.14,0,.27,0,.41A21,21,0,0,0,241,87h0a21,21,0,0,0,2.11.11c.62,0,1.23,0,1.84-.09l.62-.06c.46-.06.92-.13,1.37-.21l.68-.13c.49-.11,1-.23,1.47-.38.77-.23,1.58-.56,2.45-.9l.24-.12-2.44-8.52A12.18,12.18,0,0,1,243.11,78.45Z" transform="translate(-42.17 -34.18)"/><path class="cls-18" d="M236.94,55.61h0a12.22,12.22,0,1,0,6.18-1.68A12.25,12.25,0,0,0,236.93,55.61Z" transform="translate(-42.17 -34.18)"/><circle class="cls-4" cx="200.97" cy="31.89" r="8.1"/><circle class="cls-17" cx="200.94" cy="31.89" r="4.05"/><path class="cls-6" d="M156.77,66.19h0a1.56,1.56,0,0,0,1.56,1.56h85V64.63h-85A1.56,1.56,0,0,0,156.77,66.19Z" transform="translate(-42.17 -34.18)"/><polygon class="cls-13" points="204.25 32 200.95 35.31 200.94 28.7 204.25 32"/><path class="cls-15" d="M163,60.84h-6.87a.62.62,0,0,0-.44,1.06l2.73,2.73h10.81l-2.06-2.06A5.9,5.9,0,0,0,163,60.84Z" transform="translate(-42.17 -34.18)"/><path class="cls-13" d="M163,71.53h-6.87a.62.62,0,0,1-.44-1.06l2.73-2.73h10.81l-2.06,2.06A5.89,5.89,0,0,1,163,71.53Z" transform="translate(-42.17 -34.18)"/><polygon class="cls-18" points="95.74 246.15 62.82 224.81 62.82 255.72 128.66 255.72 128.66 224.81 95.74 246.15"/><polygon class="cls-17" points="128.66 224.81 62.82 224.81 95.74 246.15 128.66 224.81"/><rect class="cls-10" x="71.73" y="247.71" width="4.78" height="4.78"/><rect class="cls-4" x="78.91" y="247.71" width="4.78" height="4.78"/><rect class="cls-6" x="86.97" y="249.68" width="17.55" height="2.81"/><g class="cls-11"><g class="cls-12"><rect class="cls-4" x="62.82" y="224.8" width="32.92" height="30.92"/></g></g><polygon class="cls-18" points="290.69 237.54 268.67 223.26 268.67 243.94 312.72 243.94 312.72 223.26 290.69 237.54"/><polygon class="cls-17" points="312.72 223.26 268.67 223.26 290.69 237.54 312.72 223.26"/><rect class="cls-10" x="274.64" y="238.59" width="3.2" height="3.2"/><rect class="cls-4" x="279.44" y="238.59" width="3.2" height="3.2"/><rect class="cls-6" x="284.83" y="239.91" width="11.74" height="1.88"/><g class="cls-11"><g class="cls-12"><rect class="cls-4" x="268.67" y="223.26" width="22.02" height="20.68"/></g></g><polygon class="cls-18" points="146.64 71.2 124.61 56.92 124.61 77.6 168.66 77.6 168.66 56.92 146.64 71.2"/><polygon class="cls-17" points="168.66 56.92 124.61 56.92 146.64 71.2 168.66 56.92"/><rect class="cls-10" x="130.58" y="72.24" width="3.2" height="3.2"/><rect class="cls-4" x="135.38" y="72.24" width="3.2" height="3.2"/><rect class="cls-6" x="140.77" y="73.56" width="11.74" height="1.88"/><g class="cls-11"><g class="cls-12"><rect class="cls-4" x="124.62" y="56.92" width="22.02" height="20.68"/></g></g><g class="cls-20"><polygon class="cls-25" points="137.72 272.93 100.27 272.93 100.27 308.1 137.72 308.1 175.18 308.1 175.18 272.93 137.72 272.93"/></g><polygon class="cls-6" points="130.76 290.25 93.31 265.96 93.31 301.13 168.21 301.13 168.21 265.96 130.76 290.25"/><polygon class="cls-9" points="168.21 265.96 93.31 265.96 130.76 290.25 168.21 265.96"/><rect class="cls-10" x="103.45" y="292.02" width="5.44" height="5.44"/><rect class="cls-4" x="111.61" y="292.02" width="5.44" height="5.44"/><rect class="cls-4" x="120.78" y="294.26" width="19.96" height="3.2"/><g class="cls-11"><g class="cls-12"><rect class="cls-4" x="93.3" y="265.97" width="37.45" height="35.17"/></g></g><g class="cls-2"><g class="cls-20"><path class="cls-25" d="M366,141.19a6.4,6.4,0,0,0-.43-2.26h.05a6.47,6.47,0,0,0-3.55-3.68h0a6.14,6.14,0,0,0-1.14-.36l-.08,0a6.38,6.38,0,0,0-1.22-.13h-.05l-.2,0a7.06,7.06,0,0,0-.87.08l-.22,0c-.16,0-.3.09-.45.14l-.31.1c-.15,0-.3.08-.45.14a6.43,6.43,0,0,0-.61.33,3.44,3.44,0,0,0-1,.71,5,5,0,0,0-.42.35,6.5,6.5,0,0,0-.45.54c-.11.14-.24.26-.34.41a6.58,6.58,0,0,0-.36.65c-.08.15-.17.29-.24.44a6.6,6.6,0,0,0-.25.8c0,.14-.1.27-.13.41a6.52,6.52,0,0,0-.13,1.3,6.44,6.44,0,0,0,12.89,0Z" transform="translate(-42.17 -34.18)"/></g><g class="cls-20"><path class="cls-25" d="M415.24,201.11l-7.06-5.38v3h-1.76l-.11-.14A88,88,0,0,0,385,179l1.53-1.54,2.12,2.13,1.19-8.79L381.1,172l2.12,2.12-2.42,2.42A46.48,46.48,0,0,0,362,170.84V162.1h7v-5.67a8.81,8.81,0,0,0-8.81-8.81H359a8.81,8.81,0,0,0-8.81,8.81v5.67h7v8.73a46.48,46.48,0,0,0-18.85,5.69l-2.42-2.42,2.12-2.12-8.79-1.19,1.19,8.79,2.12-2.12,1.53,1.53a88,88,0,0,0-21.26,19.59l-.11.14H311v-3l-7.06,5.38,7.06,5.38v-3h1.76l.11.14a88.1,88.1,0,0,0,21.26,19.59l-2.41,2.41-2.12-2.12-1.19,8.79,8.79-1.19L335.07,229l3.29-3.29a46.49,46.49,0,0,0,18.85,5.7v2.71h-3l5.38,7.06L365,234.1h-3v-2.71a46.49,46.49,0,0,0,18.85-5.7l3.25,3.25-2.12,2.12,8.79,1.19-1.19-8.79-2.12,2.13L385,223.21a88.1,88.1,0,0,0,21.26-19.59l.11-.14h1.76v3Z" transform="translate(-42.17 -34.18)"/></g></g><path class="cls-18" d="M349.88,150.36l5.38-7.06h-.61a8.81,8.81,0,0,0-8.81,8.81v5.66h7v-7.41Z" transform="translate(-42.17 -34.18)"/><path class="cls-18" d="M357.63,150.36v7.41h7v-5.66a8.81,8.81,0,0,0-8.81-8.81h-.61l5.38,7.06Z" transform="translate(-42.17 -34.18)"/><path class="cls-22" d="M351.13,131.95a6.28,6.28,0,0,1,.54-.44A6.44,6.44,0,0,0,351.13,131.95Z" transform="translate(-42.17 -34.18)"/><path class="cls-22" d="M350.25,132.84a6.26,6.26,0,0,1,.45-.54A6.26,6.26,0,0,0,350.25,132.84Z" transform="translate(-42.17 -34.18)"/><path class="cls-22" d="M355.25,130.41l-.2,0,.22,0Z" transform="translate(-42.17 -34.18)"/><path class="cls-22" d="M352.16,131.24a6.62,6.62,0,0,1,.6-.33A6.62,6.62,0,0,0,352.16,131.24Z" transform="translate(-42.17 -34.18)"/><path class="cls-22" d="M348.81,136.86a6.44,6.44,0,0,1,.13-1.3A6.44,6.44,0,0,0,348.81,136.86Z" transform="translate(-42.17 -34.18)"/><path class="cls-22" d="M361.7,136.86a6.4,6.4,0,0,0-.43-2.26h-.13a4.56,4.56,0,0,1-2.94-1.18,4.45,4.45,0,0,0-2.89-1.07l-.34,0a6.42,6.42,0,0,1-6.1,4.48h-.06a6.44,6.44,0,1,0,12.89,0Z" transform="translate(-42.17 -34.18)"/><path class="cls-22" d="M349.07,135.14a6.29,6.29,0,0,1,.25-.8A6.29,6.29,0,0,0,349.07,135.14Z" transform="translate(-42.17 -34.18)"/><path class="cls-22" d="M349.56,133.9a6.35,6.35,0,0,1,.36-.65A6.35,6.35,0,0,0,349.56,133.9Z" transform="translate(-42.17 -34.18)"/><path class="cls-22" d="M356.52,130.54l.09,0Z" transform="translate(-42.17 -34.18)"/><path class="cls-22" d="M354,130.54c-.16,0-.3.09-.45.13h0C353.69,130.63,353.83,130.57,354,130.54Z" transform="translate(-42.17 -34.18)"/><path class="cls-22" d="M357.75,130.92h0Z" transform="translate(-42.17 -34.18)"/><path class="cls-31" d="M355,132.37l.34,0a4.45,4.45,0,0,1,2.89,1.07,4.56,4.56,0,0,0,2.94,1.18h.19a6.46,6.46,0,0,0-3.55-3.67h0a6.25,6.25,0,0,0-1.14-.35l-.09,0a6.37,6.37,0,0,0-1.21-.13h0A6.34,6.34,0,0,1,355,132.37Z" transform="translate(-42.17 -34.18)"/><path class="cls-31" d="M353.54,130.67h0l-.31.1Z" transform="translate(-42.17 -34.18)"/><path class="cls-31" d="M355.29,130.42h0l-.22,0a6.31,6.31,0,0,0-.86.09A6.32,6.32,0,0,1,355.29,130.42Z" transform="translate(-42.17 -34.18)"/><path class="cls-32" d="M355,132.37a6.34,6.34,0,0,0,.34-2h0a6.32,6.32,0,0,0-1.1.1l-.22,0c-.15,0-.29.09-.43.13l-.33.1c-.15.05-.3.08-.45.14a6.62,6.62,0,0,0-.6.33c-.16.09-.34.16-.49.27a6.28,6.28,0,0,0-.54.44c-.14.12-.29.21-.42.34a6.26,6.26,0,0,0-.45.54c-.11.14-.24.26-.34.41a6.35,6.35,0,0,0-.36.65c-.08.15-.17.29-.24.44a6.29,6.29,0,0,0-.25.8c0,.14-.1.27-.13.41a6.44,6.44,0,0,0-.13,1.3h.06A6.42,6.42,0,0,0,355,132.37Z" transform="translate(-42.17 -34.18)"/><path class="cls-21" d="M357.63,166.51V150.36h3l-5.38-7.06-5.38,7.06h3v16.15c.79,0,1.58-.08,2.38-.08S356.84,166.46,357.63,166.51Z" transform="translate(-42.17 -34.18)"/><path class="cls-14" d="M331.62,169.79l2.12-2.12-8.79-1.19,1.19,8.79,2.12-2.12,1.53,1.53c1.36-.87,2.78-1.7,4.24-2.47Z" transform="translate(-42.17 -34.18)"/><polygon class="cls-14" points="266.25 160.22 264.49 160.22 264.49 157.22 257.43 162.6 264.49 167.98 264.49 164.97 266.25 164.97 264.49 162.6 266.25 160.22"/><path class="cls-14" d="M327.38,221.29l-2.12-2.12L324.07,228l8.79-1.19-2.12-2.12,3.29-3.29c-1.46-.78-2.88-1.61-4.24-2.47Z" transform="translate(-42.17 -34.18)"/><path class="cls-14" d="M352.88,227.06v2.71h-3l5.38,7.06,5.38-7.06h-3v-2.71c-.79,0-1.58.08-2.38.08S353.67,227.1,352.88,227.06Z" transform="translate(-42.17 -34.18)"/><path class="cls-14" d="M379.73,224.62l-2.12,2.12,8.79,1.19-1.19-8.79-2.12,2.12-2.37-2.37q-2,1.3-4.24,2.47Z" transform="translate(-42.17 -34.18)"/><polygon class="cls-14" points="368.74 162.6 361.69 157.22 361.69 160.22 359.92 160.22 361.69 162.6 359.92 164.97 361.69 164.97 361.69 167.98 368.74 162.6"/><path class="cls-14" d="M382.25,173.14l2.12,2.13,1.19-8.79-8.79,1.19,2.12,2.13-2.42,2.42c1.46.78,2.88,1.61,4.24,2.47Z" transform="translate(-42.17 -34.18)"/><path class="cls-3" d="M330.47,205a7.88,7.88,0,0,1-1-.92,9.19,9.19,0,0,1-1.87-3.33,13.65,13.65,0,0,1-.62-4.21,13.22,13.22,0,0,1,.65-4.23,9.91,9.91,0,0,1,1.89-3.38,8.5,8.5,0,0,1,1.19-1.1,26.11,26.11,0,0,1,24.53-17.19c-23.93,0-43.34,26.13-43.34,26.13s19.4,26.13,43.34,26.13A26.13,26.13,0,0,1,330.47,205Z" transform="translate(-42.17 -34.18)"/><path class="cls-3" d="M398.59,196.78s-19.4-26.12-43.34-26.12a26.11,26.11,0,0,1,23.84,15.48c.25,0,.49,0,.75,0l1.22.15,1,20.33-1,.17a10.09,10.09,0,0,1-1.47.08h-.21a26.14,26.14,0,0,1-24.09,16C379.19,222.91,398.59,196.78,398.59,196.78Z" transform="translate(-42.17 -34.18)"/><path class="cls-21" d="M402.09,194.41l-.11-.14a88,88,0,0,0-21.26-19.59c-1.36-.87-2.78-1.7-4.24-2.47a46.45,46.45,0,0,0-18.84-5.69c-.79,0-1.58-.08-2.38-.08s-1.59,0-2.38.08A46.45,46.45,0,0,0,334,172.2c-1.46.78-2.88,1.61-4.24,2.47a88.05,88.05,0,0,0-21.26,19.59l-.11.14-1.76,2.37,1.76,2.38.11.14a88,88,0,0,0,21.26,19.59c1.36.87,2.78,1.7,4.24,2.47a46.45,46.45,0,0,0,18.85,5.7c.79,0,1.58.08,2.38.08s1.59,0,2.38-.08a46.45,46.45,0,0,0,18.84-5.7q2.19-1.17,4.24-2.47A88,88,0,0,0,402,199.3l.11-.14,1.76-2.38Zm-46.83,28.5c-23.93,0-43.34-26.13-43.34-26.13s19.4-26.12,43.34-26.12,43.34,26.13,43.34,26.13S379.19,222.91,355.25,222.91Z" transform="translate(-42.17 -34.18)"/><path class="cls-6" d="M379.35,206.91a13.48,13.48,0,0,1-2.15-.24l-.4-11.79-3.13,7.77-1,.14a8.3,8.3,0,0,1-.94.06,8.6,8.6,0,0,1-.88,0,6.68,6.68,0,0,1-.94-.16L367.09,195l-.31,11.67a10.8,10.8,0,0,1-2.28.26,12.1,12.1,0,0,1-2.31-.26l.83-20.33c.4-.06.83-.11,1.3-.15a12.46,12.46,0,0,1,1.3-.07,11.46,11.46,0,0,1,1.24.07c.45,0,.86.1,1.24.15l4,10.59,4.19-10.59,1.15-.15a9.28,9.28,0,0,1,1.15-.07l.48,0a26.1,26.1,0,0,0-48.37,1.72,8.73,8.73,0,0,1,1.88-1.12,10.2,10.2,0,0,1,4.13-.8,16.16,16.16,0,0,1,2.59.2,13.34,13.34,0,0,1,2.73.79,8.33,8.33,0,0,1-.43,2.26,17.18,17.18,0,0,1-.77,1.92l-1-.34c-.31-.09-.61-.17-.9-.23a8.55,8.55,0,0,0-.85-.13q-.43,0-.91,0a4.35,4.35,0,0,0-3.58,1.55,7.2,7.2,0,0,0-1.27,4.63q0,6,5.07,6a8.25,8.25,0,0,0,1.72-.17,17.17,17.17,0,0,0,2-.57,15.27,15.27,0,0,1,1.25,4.21c-.55.21-1.06.38-1.54.51a11.41,11.41,0,0,1-1.37.3q-.66.1-1.29.14c-.43,0-.87,0-1.33,0a10.79,10.79,0,0,1-4.26-.78,8.75,8.75,0,0,1-2.09-1.26,26.12,26.12,0,0,0,48.87,1.88ZM345.5,178.06a21,21,0,0,1,19.52,0,3.17,3.17,0,0,1-3,5.61,14.67,14.67,0,0,0-13.62,0,3.16,3.16,0,0,1-3.7-.56h0A3.17,3.17,0,0,1,345.5,178.06Zm1.91,28.86a15.14,15.14,0,0,1-2.54-.26V186.33l2.58-.27a23,23,0,0,1,2.49-.13,16.68,16.68,0,0,1,3.13.3,8.38,8.38,0,0,1,2.79,1,5.81,5.81,0,0,1,2,2,6.24,6.24,0,0,1,.77,3.25,6.91,6.91,0,0,1-.24,1.89,6.6,6.6,0,0,1-.63,1.49,5.89,5.89,0,0,1-.85,1.14,7.9,7.9,0,0,1-.92.83l4.44,8.77c-.45.07-1,.13-1.5.17s-1,.06-1.46.06-.82,0-1.33-.06a11.74,11.74,0,0,1-1.32-.17l-4-9.31.26-.14a3.22,3.22,0,0,0,.75-.57,5.37,5.37,0,0,0,.77-1,6.26,6.26,0,0,0,.6-1.24,4.28,4.28,0,0,0,.24-1.42,2.53,2.53,0,0,0-.8-2.08,3,3,0,0,0-2-.66,4,4,0,0,0-.48,0,.91.91,0,0,0-.26.06v16.29A15.3,15.3,0,0,1,347.41,206.92Zm-1.91,8.84a3.17,3.17,0,0,1,3-5.6,14.68,14.68,0,0,0,13.62,0,3.17,3.17,0,0,1,3,5.6,21,21,0,0,1-19.52,0Z" transform="translate(-42.17 -34.18)"/><path class="cls-24" d="M329.54,188.95a9.91,9.91,0,0,0-1.89,3.38,13.22,13.22,0,0,0-.65,4.23,13.65,13.65,0,0,0,.62,4.21,9.19,9.19,0,0,0,1.87,3.33,7.88,7.88,0,0,0,1,.92,8.75,8.75,0,0,0,2.09,1.26,10.79,10.79,0,0,0,4.26.78c.46,0,.9,0,1.33,0s.86-.07,1.29-.14a11.41,11.41,0,0,0,1.37-.3c.48-.13,1-.3,1.54-.51a15.27,15.27,0,0,0-1.25-4.21,17.17,17.17,0,0,1-2,.57,8.25,8.25,0,0,1-1.72.17q-5.07,0-5.07-6a7.2,7.2,0,0,1,1.27-4.63,4.35,4.35,0,0,1,3.58-1.55q.48,0,.91,0a8.55,8.55,0,0,1,.85.13c.29.06.58.13.9.23l1,.34a17.18,17.18,0,0,0,.77-1.92,8.33,8.33,0,0,0,.43-2.26,13.34,13.34,0,0,0-2.73-.79,16.16,16.16,0,0,0-2.59-.2,10.2,10.2,0,0,0-4.13.8,8.73,8.73,0,0,0-1.88,1.12A8.5,8.5,0,0,0,329.54,188.95Z" transform="translate(-42.17 -34.18)"/><path class="cls-24" d="M349.89,190.38a.91.91,0,0,1,.26-.06,4,4,0,0,1,.48,0,3,3,0,0,1,2,.66,2.53,2.53,0,0,1,.8,2.08,4.28,4.28,0,0,1-.24,1.42,6.26,6.26,0,0,1-.6,1.24,5.37,5.37,0,0,1-.77,1,3.22,3.22,0,0,1-.75.57l-.26.14,4,9.31a11.74,11.74,0,0,0,1.32.17q.76.06,1.33.06c.44,0,.93,0,1.46-.06s1-.1,1.5-.17L356,197.89a7.9,7.9,0,0,0,.92-.83,5.89,5.89,0,0,0,.85-1.14,6.6,6.6,0,0,0,.63-1.49,6.91,6.91,0,0,0,.24-1.89,6.24,6.24,0,0,0-.77-3.25,5.81,5.81,0,0,0-2-2,8.38,8.38,0,0,0-2.79-1,16.68,16.68,0,0,0-3.13-.3,23,23,0,0,0-2.49.13l-2.58.27v20.33a15.14,15.14,0,0,0,2.54.26,15.3,15.3,0,0,0,2.48-.26Z" transform="translate(-42.17 -34.18)"/><path class="cls-24" d="M377.47,186.18l-1.15.15-4.19,10.59-4-10.59c-.38-.06-.79-.11-1.24-.15a11.46,11.46,0,0,0-1.24-.07,12.46,12.46,0,0,0-1.3.07c-.46,0-.9.1-1.3.15l-.83,20.33a12.1,12.1,0,0,0,2.31.26,10.8,10.8,0,0,0,2.28-.26l.31-11.67,2.79,7.66a6.68,6.68,0,0,0,.94.16,8.6,8.6,0,0,0,.88,0,8.3,8.3,0,0,0,.94-.06l1-.14,3.13-7.77.4,11.79a13.48,13.48,0,0,0,2.15.24h.21a10.09,10.09,0,0,0,1.47-.08l1-.17-1-20.33-1.22-.15c-.26,0-.5,0-.75,0l-.48,0A9.28,9.28,0,0,0,377.47,186.18Z" transform="translate(-42.17 -34.18)"/><path class="cls-6" d="M344.74,183.1a3.16,3.16,0,0,0,3.7.56,14.67,14.67,0,0,1,13.62,0,3.17,3.17,0,0,0,3-5.61,21,21,0,0,0-19.52,0,3.17,3.17,0,0,0-.75,5Z" transform="translate(-42.17 -34.18)"/><g class="cls-37"><path class="cls-4" d="M344.74,183.1a3.16,3.16,0,0,0,3.7.56,14.67,14.67,0,0,1,13.62,0,3.17,3.17,0,0,0,3-5.61,21,21,0,0,0-19.52,0,3.17,3.17,0,0,0-.75,5Z" transform="translate(-42.17 -34.18)"/></g><path class="cls-6" d="M365,215.76a3.17,3.17,0,0,0-3-5.6,14.68,14.68,0,0,1-13.62,0,3.17,3.17,0,0,0-3,5.6,21,21,0,0,0,19.52,0Z" transform="translate(-42.17 -34.18)"/><g class="cls-20"><path class="cls-21" d="M365,215.76a3.17,3.17,0,0,0-3-5.6,14.68,14.68,0,0,1-13.62,0,3.17,3.17,0,0,0-3,5.6,21,21,0,0,0,19.52,0Z" transform="translate(-42.17 -34.18)"/></g></g></g></svg>