<?xml version="1.0" encoding="UTF-8"?>
<svg width="2032px" height="1245px" viewBox="0 0 2032 1245" version="1.1" xmlns="http://www.w3.org/2000/svg" xmlns:xlink="http://www.w3.org/1999/xlink">
    <!-- Generator: Sketch 52.1 (67048) - http://www.bohemiancoding.com/sketch -->
    <title>Better Confetti</title>
    <desc>Created with Sketch.</desc>
    <g id="Better-Confetti" stroke="none" stroke-width="1" fill="none" fill-rule="evenodd">
        <path d="M1905.16957,384.098908 L1904.96011,402.573683 C1904.94282,404.099191 1903.67735,405.322005 1902.13361,405.304914 C1901.63703,405.299416 1901.15089,405.163288 1900.72521,404.910533 L1884.52581,395.291894 C1883.20248,394.506149 1882.7743,392.80908 1883.56943,391.501382 C1883.82521,391.080727 1884.18977,390.735001 1884.62561,390.499768 L1901.03447,381.643633 C1902.38939,380.91236 1904.08767,381.404955 1904.82768,382.743875 C1905.05721,383.159161 1905.17493,383.625749 1905.16957,384.098908 Z" id="Triangle" fill="#4AB2E7" fill-rule="nonzero" transform="translate(1894.169742, 393.305091) rotate(-301.000000) translate(-1894.169742, -393.305091) "></path>
        <path d="M1694.95454,1155.54164 L1694.78316,1170.93729 C1694.76901,1172.20854 1693.73363,1173.22756 1692.47057,1173.21331 C1692.06428,1173.20873 1691.66653,1173.09529 1691.31824,1172.88466 L1678.06419,1164.86913 C1676.98147,1164.21434 1676.63113,1162.80012 1677.2817,1161.71037 C1677.49097,1161.35982 1677.78925,1161.07172 1678.14585,1160.87569 L1691.57128,1153.49558 C1692.67985,1152.88619 1694.06935,1153.29668 1694.67481,1154.41245 C1694.86261,1154.75852 1694.95893,1155.14734 1694.95454,1155.54164 Z" id="Triangle" fill="#4AB2E7" fill-rule="nonzero" transform="translate(1685.954680, 1163.213461) rotate(-57.000000) translate(-1685.954680, -1163.213461) "></path>
        <path d="M1742.39046,767.750143 L1742.20005,784.685354 C1742.18433,786.083736 1741.0339,787.204649 1739.6305,787.188982 C1739.17906,787.183942 1738.73712,787.059158 1738.35014,786.827466 L1723.62341,778.01038 C1722.42038,777.290115 1722.03113,775.734467 1722.75398,774.535744 C1722.9865,774.150144 1723.31792,773.833229 1723.71414,773.617599 L1738.63128,765.499475 C1739.86303,764.829141 1741.40692,765.280686 1742.07966,766.50803 C1742.28832,766.888708 1742.39534,767.316414 1742.39046,767.750143 Z" id="Triangle" fill="#4AB2E7" fill-rule="nonzero" transform="translate(1732.390621, 776.189144) rotate(-354.000000) translate(-1732.390621, -776.189144) "></path>
        <path d="M1747.61171,270.273799 L1747.39273,289.518356 C1747.37465,291.107427 1746.05166,292.381191 1744.43775,292.363388 C1743.9186,292.357662 1743.41036,292.215862 1742.96533,291.952575 L1726.02959,281.933159 C1724.64612,281.114676 1724.19847,279.346894 1725.02975,277.984709 C1725.29715,277.546527 1725.67828,277.186396 1726.13394,276.941362 L1743.28865,267.716221 C1744.70516,266.954478 1746.48063,267.467598 1747.25428,268.862306 C1747.49424,269.294896 1747.61731,269.780925 1747.61171,270.273799 Z" id="Triangle" fill="#4AB2E7" fill-rule="nonzero" transform="translate(1736.111890, 279.863573) rotate(-349.000000) translate(-1736.111890, -279.863573) "></path>
        <path d="M1568.35036,925.971105 L1568.13139,945.985444 C1568.11331,947.638078 1566.79032,948.962793 1565.17641,948.944277 C1564.65726,948.938322 1564.14902,948.79085 1563.70399,948.517032 L1546.76825,938.096839 C1545.38478,937.245616 1544.93713,935.407124 1545.76841,933.990451 C1546.03581,933.534742 1546.41694,933.160205 1546.8726,932.90537 L1564.02731,923.311223 C1565.44382,922.519011 1567.21929,923.052655 1567.99294,924.503152 C1568.2329,924.953045 1568.35597,925.458516 1568.35036,925.971105 Z" id="Triangle" fill="#4AB2E7" fill-rule="nonzero" transform="translate(1556.850548, 935.944469) rotate(-173.000000) translate(-1556.850548, -935.944469) "></path>
        <path d="M1562.30687,381.548681 L1562.15454,395.404762 C1562.14196,396.548893 1561.22162,397.466004 1560.0989,397.453186 C1559.73775,397.449062 1559.3842,397.346966 1559.07461,397.1574 L1547.29323,389.94342 C1546.33081,389.354112 1546.0194,388.08131 1546.59768,387.100537 C1546.7837,386.785046 1547.04883,386.525751 1547.36581,386.349326 L1559.29953,379.707225 C1560.28492,379.15877 1561.52004,379.528216 1562.05823,380.532406 C1562.22515,380.843871 1562.31077,381.193812 1562.30687,381.548681 Z" id="Triangle" fill="#4AB2E7" fill-rule="nonzero" transform="translate(1554.306997, 388.453318) rotate(-122.000000) translate(-1554.306997, -388.453318) "></path>
        <path d="M1406.7609,1161.00677 L1406.55144,1180.25133 C1406.53414,1181.8404 1405.26868,1183.11416 1403.72494,1183.09636 C1403.22836,1183.09063 1402.74222,1182.94883 1402.31654,1182.68555 L1386.11713,1172.66613 C1384.79381,1171.84765 1384.36563,1170.07987 1385.16076,1168.71768 C1385.41654,1168.2795 1385.7811,1167.91937 1386.21694,1167.67433 L1402.6258,1158.44919 C1403.98072,1157.68745 1405.679,1158.20057 1406.41901,1159.59528 C1406.64854,1160.02787 1406.76626,1160.5139 1406.7609,1161.00677 Z" id="Triangle" fill="#4AB2E7" fill-rule="nonzero" transform="translate(1395.761071, 1170.596545) rotate(-343.000000) translate(-1395.761071, -1170.596545) "></path>
        <path d="M1273.65234,576.651177 L1273.4524,595.125952 C1273.43589,596.65146 1272.22795,597.874274 1270.75438,597.857183 C1270.28037,597.851685 1269.81633,597.715557 1269.41,597.462802 L1253.94693,587.844163 C1252.68376,587.058418 1252.27503,585.361349 1253.03403,584.053651 C1253.27818,583.632996 1253.62617,583.28727 1254.0422,583.052037 L1269.7052,574.195902 C1270.99853,573.464629 1272.61962,573.957224 1273.32599,575.296144 C1273.54508,575.71143 1273.65746,576.178018 1273.65234,576.651177 Z" id="Triangle" fill="#4AB2E7" fill-rule="nonzero" transform="translate(1263.152504, 585.857360) rotate(-243.000000) translate(-1263.152504, -585.857360) "></path>
        <path d="M528.687468,425.00493 L528.497054,441.94014 C528.481331,443.338523 527.330906,444.459435 525.927508,444.443768 C525.476068,444.438729 525.034126,444.313945 524.647143,444.082253 L509.920413,435.265167 C508.71739,434.544901 508.328132,432.989254 509.050981,431.790531 C509.283504,431.404931 509.614924,431.088015 510.011146,430.872385 L524.92829,422.754261 C526.160036,422.083927 527.703925,422.535473 528.376663,423.762816 C528.585323,424.143495 528.692344,424.571201 528.687468,425.00493 Z" id="Triangle" fill="#4AB2E7" fill-rule="nonzero" transform="translate(518.687627, 433.443931) rotate(-197.000000) translate(-518.687627, -433.443931) "></path>
        <path d="M255.013406,774.020687 L254.851554,788.646551 C254.83819,789.854245 253.860329,790.822305 252.66744,790.808775 C252.283717,790.804423 251.908066,790.696655 251.57913,790.496557 L239.061409,782.881801 C238.03884,782.259753 237.707971,780.91624 238.322393,779.880979 C238.520037,779.547961 238.801744,779.274261 239.138533,779.088035 L251.818105,772.076928 C252.865089,771.498003 254.177395,771.887974 254.749222,772.947953 C254.926583,773.276721 255.017551,773.646103 255.013406,774.020687 Z" id="Triangle" fill="#4AB2E7" fill-rule="nonzero" transform="translate(246.513542, 781.308915) rotate(-4.000000) translate(-246.513542, -781.308915) "></path>
        <path d="M115.213261,545.483677 L115.06093,559.339759 C115.048352,560.48389 114.128012,561.401 113.005293,561.388182 C112.644142,561.384058 112.290588,561.281962 111.981001,561.092396 L100.199617,553.878417 C99.2371992,553.289108 98.925793,552.016306 99.5040722,551.035533 C99.6900906,550.720042 99.955226,550.460747 100.272204,550.284323 L112.205919,543.642221 C113.191316,543.093766 114.426427,543.463213 114.964618,544.467403 C115.131545,544.778867 115.217163,545.128808 115.213261,545.483677 Z" id="Triangle" fill="#4AB2E7" fill-rule="nonzero" transform="translate(107.213389, 552.388314) rotate(-279.000000) translate(-107.213389, -552.388314) "></path>
        <path d="M1688.5495,556.068256 L1688.41622,568.384773 C1688.40521,569.401778 1687.59991,570.216988 1686.61753,570.205594 C1686.30153,570.201928 1685.99217,570.111176 1685.72128,569.942673 L1675.41257,563.530247 C1674.57045,563.006417 1674.29797,561.875038 1674.80396,561.003239 C1674.96673,560.722803 1675.19872,560.492319 1675.47608,560.335497 L1685.91808,554.431406 C1686.7803,553.943891 1687.86102,554.272288 1688.33194,555.164901 C1688.478,555.441758 1688.55292,555.752817 1688.5495,556.068256 Z" id="Triangle" fill="#774EE0" fill-rule="nonzero" transform="translate(1681.549616, 562.205712) rotate(-111.000000) translate(-1681.549616, -562.205712) "></path>
        <path d="M1826.40292,401.842674 L1826.20299,419.547667 C1826.18648,421.009612 1824.97854,422.181475 1823.50497,422.165097 C1823.03096,422.159828 1822.56692,422.029372 1822.16058,421.787148 L1806.69752,412.569285 C1805.43434,411.816281 1805.02562,410.189922 1805.78461,408.936712 C1806.02876,408.533584 1806.37675,408.202264 1806.79279,407.976832 L1822.45579,399.489702 C1823.74912,398.788899 1825.3702,399.260969 1826.07658,400.544101 C1826.29567,400.942083 1826.40805,401.38923 1826.40292,401.842674 Z" id="Triangle" fill="#774EE0" fill-rule="nonzero" transform="translate(1815.903092, 410.665266) rotate(-306.000000) translate(-1815.903092, -410.665266) "></path>
        <path d="M1470.93299,1188.49089 L1470.73306,1206.96567 C1470.71655,1208.49117 1469.5086,1209.71399 1468.03503,1209.6969 C1467.56102,1209.6914 1467.09698,1209.55527 1466.69065,1209.30252 L1451.22758,1199.68388 C1449.96441,1198.89813 1449.55569,1197.20106 1450.31468,1195.89336 C1450.55883,1195.47271 1450.90682,1195.12698 1451.32285,1194.89175 L1466.98585,1186.03562 C1468.27919,1185.30434 1469.90027,1185.79694 1470.60665,1187.13586 C1470.82574,1187.55114 1470.93811,1188.01773 1470.93299,1188.49089 Z" id="Triangle" fill="#774EE0" fill-rule="nonzero" transform="translate(1460.433159, 1197.697073) rotate(-336.000000) translate(-1460.433159, -1197.697073) "></path>
        <path d="M1561.82417,787.489064 L1561.6052,807.503403 C1561.58712,809.156037 1560.26413,810.480752 1558.65022,810.462237 C1558.13106,810.456281 1557.62283,810.308809 1557.1778,810.034991 L1540.24206,799.614798 C1538.85858,798.763575 1538.41094,796.925083 1539.24221,795.508411 C1539.50961,795.052701 1539.89075,794.678165 1540.3464,794.423329 L1557.50112,784.829183 C1558.91763,784.03697 1560.6931,784.570615 1561.46675,786.021111 C1561.70671,786.471004 1561.82978,786.976475 1561.82417,787.489064 Z" id="Triangle" fill="#774EE0" fill-rule="nonzero" transform="translate(1550.324356, 797.462429) rotate(-234.000000) translate(-1550.324356, -797.462429) "></path>
        <path d="M1337.64419,754.321787 L1337.48234,768.177868 C1337.46898,769.321999 1336.49111,770.239109 1335.29823,770.226291 C1334.9145,770.222168 1334.53885,770.120072 1334.20992,769.930506 L1321.6922,762.716526 C1320.66963,762.127218 1320.33876,760.854415 1320.95318,759.873642 C1321.15082,759.558151 1321.43253,759.298857 1321.76932,759.122432 L1334.44889,752.48033 C1335.49588,751.931876 1336.80818,752.301322 1337.38001,753.305512 C1337.55737,753.616976 1337.64834,753.966917 1337.64419,754.321787 Z" id="Triangle" fill="#774EE0" fill-rule="nonzero" transform="translate(1329.144328, 761.226424) rotate(-343.000000) translate(-1329.144328, -761.226424) "></path>
        <path d="M193.669556,316.178386 L193.469622,333.883379 C193.453113,335.345324 192.245167,336.517187 190.771599,336.500808 C190.297587,336.495539 189.833548,336.365084 189.427215,336.12286 L173.964149,326.904997 C172.700975,326.151992 172.292255,324.525634 173.051246,323.272423 C173.295395,322.869296 173.643385,322.537975 174.059419,322.312544 L189.72242,313.825414 C191.015753,313.124611 192.636837,313.596681 193.343212,314.879813 C193.562304,315.277795 193.674677,315.724942 193.669556,316.178386 Z" id="Triangle" fill="#774EE0" fill-rule="nonzero" transform="translate(183.169724, 325.000978) rotate(-171.000000) translate(-183.169724, -325.000978) "></path>
        <path d="M884.805701,1076.85102 L884.615288,1093.78623 C884.599565,1095.18461 883.44914,1096.30552 882.045741,1096.28985 C881.594302,1096.28482 881.15236,1096.16003 880.765376,1095.92834 L866.038646,1087.11125 C864.835624,1086.39099 864.446366,1084.83534 865.169215,1083.63662 C865.401738,1083.25102 865.733157,1082.9341 866.12938,1082.71847 L881.046524,1074.60035 C882.278269,1073.93001 883.822158,1074.38156 884.494897,1075.6089 C884.703556,1075.98958 884.810578,1076.41729 884.805701,1076.85102 Z" id="Triangle" fill="#774EE0" fill-rule="nonzero" transform="translate(874.805861, 1085.290017) rotate(-352.000000) translate(-874.805861, -1085.290017) "></path>
        <path d="M630.780274,1062.04029 L630.627943,1075.12659 C630.615365,1076.20716 629.695025,1077.07332 628.572306,1077.06121 C628.211155,1077.05732 627.857601,1076.9609 627.548015,1076.78186 L615.76663,1069.96866 C614.804212,1069.41209 614.492806,1068.21 615.071085,1067.28371 C615.257104,1066.98575 615.522239,1066.74086 615.839217,1066.57424 L627.772932,1060.30114 C628.758329,1059.78315 629.99344,1060.13208 630.531631,1061.08048 C630.698558,1061.37464 630.784176,1061.70514 630.780274,1062.04029 Z" id="Triangle" fill="#774EE0" fill-rule="nonzero" transform="translate(622.780402, 1068.561339) rotate(-83.000000) translate(-622.780402, -1068.561339) "></path>
        <path d="M798.790346,912.713307 L798.628495,927.33917 C798.61513,928.546864 797.637269,929.514925 796.44438,929.501395 C796.060657,929.497042 795.685006,929.389274 795.35607,929.189177 L782.83835,921.57442 C781.81578,920.952373 781.484911,919.608859 782.099333,918.573599 C782.296977,918.24058 782.578684,917.966881 782.915473,917.780654 L795.595045,910.769547 C796.642029,910.190623 797.954335,910.580594 798.526162,911.640572 C798.703523,911.96934 798.794491,912.338723 798.790346,912.713307 Z" id="Triangle" fill="#774EE0" fill-rule="nonzero" transform="translate(790.290482, 920.001535) rotate(-161.000000) translate(-790.290482, -920.001535) "></path>
        <path d="M651.408906,579.321741 L651.237534,594.717387 C651.223383,595.988643 650.188001,597.007655 648.924942,596.993412 C648.518647,596.988831 648.120899,596.875391 647.772614,596.664762 L634.518557,588.649229 C633.435836,587.994442 633.085504,586.580217 633.736068,585.490469 C633.945339,585.139924 634.243616,584.851819 634.600217,584.655791 L648.025646,577.275678 C649.134217,576.666284 650.523718,577.07678 651.129182,578.192547 C651.316976,578.538618 651.413295,578.927442 651.408906,579.321741 Z" id="Triangle" fill="#774EE0" fill-rule="nonzero" transform="translate(642.409050, 586.993560) rotate(-281.000000) translate(-642.409050, -586.993560) "></path>
        <path d="M125.955987,688.79285 L125.756053,706.497842 C125.739544,707.959788 124.531598,709.131651 123.058029,709.115272 C122.584018,709.110003 122.119979,708.979547 121.713646,708.737324 L106.25058,699.519461 C104.987406,698.766456 104.578685,697.140097 105.337677,695.886887 C105.581826,695.48376 105.929816,695.152439 106.34585,694.927007 L122.008851,686.439878 C123.302184,685.739074 124.923267,686.211145 125.629642,687.494276 C125.848735,687.892259 125.961108,688.339406 125.955987,688.79285 Z" id="Triangle" fill="#774EE0" fill-rule="nonzero" transform="translate(115.456155, 697.615441) rotate(-313.000000) translate(-115.456155, -697.615441) "></path>
        <g id="Group" transform="translate(2006.302775, 1103.199509) rotate(-118.000000) translate(-2006.302775, -1103.199509) translate(1995.802775, 1094.199509)" fill-rule="nonzero">
            <path d="M13.9551156,5.92305532 L17.4909676,11.9845159 C18.6040887,13.8927236 17.9595438,16.3419945 16.0513361,17.4551156 C15.4395919,17.8119664 14.7440706,18 14.035852,18 L6.964148,18 C4.755009,18 2.964148,16.209139 2.964148,14 C2.964148,13.2917815 3.15218159,12.5962601 3.50903239,11.9845159 L7.0448844,5.92305532 C8.15800553,4.01484766 10.6072764,3.37030269 12.5154841,4.48342382 C13.1114986,4.83109897 13.6074405,5.32704078 13.9551156,5.92305532 Z" id="Triangle" fill="#2B5BE6"></path>
            <path d="M12.4817666,9.11703994 L14.114088,11.9033127 C14.672433,12.8563734 14.3524527,14.0816098 13.399392,14.6399547 C13.0927589,14.819594 12.7437979,14.9142857 12.388419,14.9142857 L9.12377612,14.9142857 C8.01920662,14.9142857 7.12377612,14.0188552 7.12377612,12.9142857 C7.12377612,12.5589069 7.21846788,12.2099459 7.39810709,11.9033127 L9.03042854,9.11703994 C9.58877351,8.16397926 10.8140099,7.84399895 11.7670706,8.40234392 C12.0625635,8.57545669 12.3086538,8.82154705 12.4817666,9.11703994 Z" id="Triangle" fill="#FFFFFF"></path>
        </g>
        <g id="Group" transform="translate(1723.700782, 924.290491) rotate(-68.000000) translate(-1723.700782, -924.290491) translate(1711.700782, 914.290491)" fill-rule="nonzero">
            <path d="M15.4299717,5.7166195 L20.3652102,13.942017 C21.5018028,15.836338 20.8875426,18.2933791 18.9932215,19.4299717 C18.3715599,19.8029687 17.6602143,20 16.9352385,20 L7.06476152,20 C4.85562252,20 3.06476152,18.209139 3.06476152,16 C3.06476152,15.2750242 3.26179285,14.5636786 3.63478981,13.942017 L8.5700283,5.7166195 C9.70662094,3.82229844 12.163662,3.20803819 14.057983,4.34463082 C14.6209814,4.68242987 15.0921727,5.15362109 15.4299717,5.7166195 Z" id="Triangle" fill="#2B5BE6"></path>
            <path d="M14.005714,9.69995867 L16.3191652,13.539186 C16.889257,14.485267 16.5844576,15.7143678 15.6383767,16.2844596 C15.326797,16.4722121 14.96991,16.5714286 14.6061341,16.5714286 L9.97923171,16.5714286 C8.87466221,16.5714286 7.97923171,15.6759981 7.97923171,14.5714286 C7.97923171,14.2076527 8.07844822,13.8507657 8.26620066,13.539186 L10.5796519,9.69995867 C11.1497437,8.75387774 12.3788445,8.44907834 13.3249255,9.01917014 C13.6039051,9.18727841 13.8376057,9.420979 14.005714,9.69995867 Z" id="Triangle" fill="#FFFFFF"></path>
        </g>
        <g id="Group" transform="translate(1678.730452, 658.926052) rotate(-225.000000) translate(-1678.730452, -658.926052) translate(1664.730452, 646.926052)" fill-rule="nonzero">
            <path d="M17.4551156,5.92305532 L24.4909676,17.9845159 C25.6040887,19.8927236 24.9595438,22.3419945 23.0513361,23.4551156 C22.4395919,23.8119664 21.7440706,24 21.035852,24 L6.964148,24 C4.755009,24 2.964148,22.209139 2.964148,20 C2.964148,19.2917815 3.15218159,18.5962601 3.50903239,17.9845159 L10.5448844,5.92305532 C11.6580055,4.01484766 14.1072764,3.37030269 16.0154841,4.48342382 C16.6114986,4.83109897 17.1074405,5.32704078 17.4551156,5.92305532 Z" id="Triangle" fill="#2B5BE6"></path>
            <path d="M16.0671324,11.1741828 L19.406771,16.8747413 C19.9651159,17.827802 19.6451356,19.0530383 18.6920749,19.6113833 C18.3854418,19.7910225 18.0364808,19.8857143 17.6811019,19.8857143 L11.0018249,19.8857143 C9.8972554,19.8857143 9.0018249,18.9902838 9.0018249,17.8857143 C9.0018249,17.5303354 9.09651666,17.1813744 9.27615587,16.8747413 L12.6157944,11.1741828 C13.1741394,10.2211221 14.3993757,9.90114181 15.3524364,10.4594868 C15.6479293,10.6325995 15.8940197,10.8786899 16.0671324,11.1741828 Z" id="Triangle" fill="#FFFFFF"></path>
        </g>
        <g id="Group" transform="translate(1330.468041, 1060.846881) rotate(-149.000000) translate(-1330.468041, -1060.846881) translate(1320.968041, 1052.846881)" fill-rule="nonzero">
            <path d="M12.939419,5.79270564 L15.4124705,9.95784498 C16.5403215,11.8573836 15.9147451,14.3115679 14.0152065,15.439419 C13.3972127,15.8063528 12.6917704,16 11.9730515,16 L7.02694852,16 C4.81780952,16 3.02694852,14.209139 3.02694852,12 C3.02694852,11.2812811 3.2205957,10.5758388 3.58752954,9.95784498 L6.06058102,5.79270564 C7.1884321,3.89316699 9.64261637,3.26759061 11.542155,4.39544168 C12.1174338,4.73701347 12.5978472,5.21742685 12.939419,5.79270564 Z" id="Triangle" fill="#2B5BE6"></path>
            <path d="M11.4494866,8.36641723 L12.5624339,10.2328215 C13.128151,11.1815248 12.8176793,12.4092051 11.868976,12.9749221 C11.5592255,13.1596281 11.2052952,13.2571429 10.8446546,13.2571429 L8.61876003,13.2571429 C7.51419053,13.2571429 6.61876003,12.3617124 6.61876003,11.2571429 C6.61876003,10.8965022 6.7162748,10.5425719 6.90098075,10.2328215 L8.01392803,8.36641723 C8.57964512,7.41771393 9.80732541,7.10724226 10.7560287,7.67295935 C11.0411501,7.84297884 11.2794671,8.08129581 11.4494866,8.36641723 Z" id="Triangle" fill="#FFFFFF"></path>
        </g>
        <g id="Group" transform="translate(1412.624852, 408.814958) rotate(-94.000000) translate(-1412.624852, -408.814958) translate(1397.624852, 396.314958)" fill-rule="nonzero">
            <path d="M18.4299717,5.7166195 L26.3652102,18.942017 C27.5018028,20.836338 26.8875426,23.2933791 24.9932215,24.4299717 C24.3715599,24.8029687 23.6602143,25 22.9352385,25 L7.06476152,25 C4.85562252,25 3.06476152,23.209139 3.06476152,21 C3.06476152,20.2750242 3.26179285,19.5636786 3.63478981,18.942017 L11.5700283,5.7166195 C12.7066209,3.82229844 15.163662,3.20803819 17.057983,4.34463082 C17.6209814,4.68242987 18.0921727,5.15362109 18.4299717,5.7166195 Z" id="Triangle" fill="#2B5BE6"></path>
            <path d="M17.0788847,11.4142444 L20.8557506,17.6820432 C21.4258424,18.6281241 21.121043,19.857225 20.174962,20.4273168 C19.8633824,20.6150692 19.5064953,20.7142857 19.1427195,20.7142857 L11.5889878,20.7142857 C10.4844183,20.7142857 9.58898781,19.8188552 9.58898781,18.7142857 C9.58898781,18.3505099 9.68820432,17.9936228 9.87595676,17.6820432 L13.6528226,11.4142444 C14.2229144,10.4681635 15.4520153,10.1633641 16.3980962,10.7334559 C16.6770759,10.9015641 16.9107764,11.1352647 17.0788847,11.4142444 Z" id="Triangle" fill="#FFFFFF"></path>
        </g>
        <g id="Group" transform="translate(914.932083, 702.864702) rotate(-233.000000) translate(-914.932083, -702.864702) translate(903.932083, 693.364702)" fill-rule="nonzero">
            <path d="M14.4617051,5.97930888 L18.523916,12.9958549 C19.6307748,14.9077019 18.9782029,17.3548464 17.0663559,18.4617051 C16.4572946,18.8143196 15.7659812,19 15.0622109,19 L6.93778914,19 C4.72865014,19 2.93778914,17.209139 2.93778914,15 C2.93778914,14.2962296 3.12346951,13.6049163 3.47608399,12.9958549 L7.53829486,5.97930888 C8.64515362,4.06746192 11.0922981,3.41489006 13.0041451,4.52174882 C13.6089912,4.87192287 14.1115311,5.3744628 14.4617051,5.97930888 Z" id="Triangle" fill="#2B5BE6"></path>
            <path d="M12.9972741,9.48790916 L14.8867483,12.7375595 C15.4419589,13.6924496 15.1179546,14.916628 14.1630646,15.4718385 C13.8577699,15.6493489 13.5109167,15.7428571 13.1577669,15.7428571 L9.37881843,15.7428571 C8.27424893,15.7428571 7.37881843,14.8474266 7.37881843,13.7428571 C7.37881843,13.3897074 7.47232671,13.0428542 7.64983704,12.7375595 L9.53931129,9.48790916 C10.0945219,8.53301911 11.3187003,8.20901486 12.2735903,8.76422542 C12.5735009,8.93860519 12.8228943,9.1879986 12.9972741,9.48790916 Z" id="Triangle" fill="#FFFFFF"></path>
        </g>
        <g id="Group" transform="translate(547.575415, 595.187710) rotate(-128.000000) translate(-547.575415, -595.187710) translate(537.575415, 586.687710)" fill-rule="nonzero">
            <path d="M13.4477369,5.86115266 L16.4540703,10.9719195 C17.5741482,12.876052 16.9385464,15.3276589 15.0344139,16.4477369 C14.4197074,16.809329 13.7195045,17 13.0063334,17 L6.99366657,17 C4.78452757,17 2.99366657,15.209139 2.99366657,13 C2.99366657,12.2868289 3.1843376,11.5866261 3.54592971,10.9719195 L6.55226314,5.86115266 C7.67234107,3.95702017 10.123948,3.32141837 12.0280805,4.44149631 C12.6142952,4.78632847 13.1029047,5.274938 13.4477369,5.86115266 Z" id="Triangle" fill="#2B5BE6"></path>
            <path d="M11.9658625,8.74335788 L13.3394428,11.0684368 C13.9012696,12.0194491 13.5857725,13.2458476 12.6347602,13.8076744 C12.3266493,13.9896962 11.9753434,14.0857143 11.6174827,14.0857143 L8.87032217,14.0857143 C7.76575267,14.0857143 6.87032217,13.1902838 6.87032217,12.0857143 C6.87032217,11.7278536 6.96634029,11.3765477 7.14836208,11.0684368 L8.52194235,8.74335788 C9.08376917,7.79234558 10.3101676,7.47684842 11.2611799,8.03867525 C11.551771,8.21034693 11.7941909,8.45276677 11.9658625,8.74335788 Z" id="Triangle" fill="#FFFFFF"></path>
        </g>
        <g id="Group" transform="translate(32.563477, 326.232695) rotate(-62.000000) translate(-32.563477, -326.232695) translate(23.063477, 318.232695)" fill-rule="nonzero">
            <path d="M12.939419,5.79270564 L15.4124705,9.95784498 C16.5403215,11.8573836 15.9147451,14.3115679 14.0152065,15.439419 C13.3972127,15.8063528 12.6917704,16 11.9730515,16 L7.02694852,16 C4.81780952,16 3.02694852,14.209139 3.02694852,12 C3.02694852,11.2812811 3.2205957,10.5758388 3.58752954,9.95784498 L6.06058102,5.79270564 C7.1884321,3.89316699 9.64261637,3.26759061 11.542155,4.39544168 C12.1174338,4.73701347 12.5978472,5.21742685 12.939419,5.79270564 Z" id="Triangle" fill="#2B5BE6"></path>
            <path d="M11.4494866,8.36641723 L12.5624339,10.2328215 C13.128151,11.1815248 12.8176793,12.4092051 11.868976,12.9749221 C11.5592255,13.1596281 11.2052952,13.2571429 10.8446546,13.2571429 L8.61876003,13.2571429 C7.51419053,13.2571429 6.61876003,12.3617124 6.61876003,11.2571429 C6.61876003,10.8965022 6.7162748,10.5425719 6.90098075,10.2328215 L8.01392803,8.36641723 C8.57964512,7.41771393 9.80732541,7.10724226 10.7560287,7.67295935 C11.0411501,7.84297884 11.2794671,8.08129581 11.4494866,8.36641723 Z" id="Triangle" fill="#FFFFFF"></path>
        </g>
        <g id="Group" transform="translate(131.541382, 42.691094) rotate(-215.000000) translate(-131.541382, -42.691094) translate(121.041382, 33.691094)" fill-rule="nonzero">
            <path d="M13.9551156,5.92305532 L17.4909676,11.9845159 C18.6040887,13.8927236 17.9595438,16.3419945 16.0513361,17.4551156 C15.4395919,17.8119664 14.7440706,18 14.035852,18 L6.964148,18 C4.755009,18 2.964148,16.209139 2.964148,14 C2.964148,13.2917815 3.15218159,12.5962601 3.50903239,11.9845159 L7.0448844,5.92305532 C8.15800553,4.01484766 10.6072764,3.37030269 12.5154841,4.48342382 C13.1114986,4.83109897 13.6074405,5.32704078 13.9551156,5.92305532 Z" id="Triangle" fill="#2B5BE6"></path>
            <path d="M12.4817666,9.11703994 L14.114088,11.9033127 C14.672433,12.8563734 14.3524527,14.0816098 13.399392,14.6399547 C13.0927589,14.819594 12.7437979,14.9142857 12.388419,14.9142857 L9.12377612,14.9142857 C8.01920662,14.9142857 7.12377612,14.0188552 7.12377612,12.9142857 C7.12377612,12.5589069 7.21846788,12.2099459 7.39810709,11.9033127 L9.03042854,9.11703994 C9.58877351,8.16397926 10.8140099,7.84399895 11.7670706,8.40234392 C12.0625635,8.57545669 12.3086538,8.82154705 12.4817666,9.11703994 Z" id="Triangle" fill="#FFFFFF"></path>
        </g>
        <circle id="Oval" fill="#ED7639" fill-rule="nonzero" transform="translate(1869.824946, 700.409756) rotate(-173.000000) translate(-1869.824946, -700.409756) " cx="1869.82495" cy="700.409756" r="5"></circle>
        <circle id="Oval" fill="#ED7639" fill-rule="nonzero" transform="translate(1879.625547, 166.356624) rotate(-196.000000) translate(-1879.625547, -166.356624) " cx="1879.62555" cy="166.356624" r="7"></circle>
        <circle id="Oval" fill="#ED7639" fill-rule="nonzero" transform="translate(1141.082432, 779.010375) rotate(-238.000000) translate(-1141.082432, -779.010375) " cx="1141.08243" cy="779.010375" r="4.5"></circle>
        <circle id="Oval" fill="#ED7639" fill-rule="nonzero" transform="translate(831.007669, 1155.723312) rotate(-9.000000) translate(-831.007669, -1155.723312) " cx="831.007669" cy="1155.72331" r="7"></circle>
        <circle id="Oval" fill="#ED7639" fill-rule="nonzero" transform="translate(916.159022, 468.663814) rotate(-233.000000) translate(-916.159022, -468.663814) " cx="916.159022" cy="468.663814" r="5"></circle>
        <circle id="Oval" fill="#ED7639" fill-rule="nonzero" transform="translate(476.219696, 1198.721008) rotate(-320.000000) translate(-476.219696, -1198.721008) " cx="476.219696" cy="1198.72101" r="6.5"></circle>
        <circle id="Oval" fill="#ED7639" fill-rule="nonzero" transform="translate(509.368763, 1045.027473) rotate(-41.000000) translate(-509.368763, -1045.027473) " cx="509.368763" cy="1045.02747" r="4.5"></circle>
        <circle id="Oval" fill="#ED7639" fill-rule="nonzero" transform="translate(496.433671, 904.897185) rotate(-130.000000) translate(-496.433671, -904.897185) " cx="496.433671" cy="904.897185" r="4.5"></circle>
        <circle id="Oval" fill="#ED7639" fill-rule="nonzero" transform="translate(379.998650, 899.028048) rotate(-212.000000) translate(-379.998650, -899.028048) " cx="379.99865" cy="899.028048" r="5"></circle>
        <circle id="Oval" fill="#ED7639" fill-rule="nonzero" transform="translate(284.645578, 641.903998) rotate(-312.000000) translate(-284.645578, -641.903998) " cx="284.645578" cy="641.903998" r="7"></circle>
        <circle id="Oval" fill="#E94962" fill-rule="nonzero" transform="translate(1940.366419, 791.924692) rotate(-358.000000) translate(-1940.366419, -791.924692) " cx="1940.36642" cy="791.924692" r="4.5"></circle>
        <circle id="Oval" fill="#E94962" fill-rule="nonzero" transform="translate(1835.393814, 537.058018) rotate(-248.000000) translate(-1835.393814, -537.058018) " cx="1835.39381" cy="537.058018" r="5.5"></circle>
        <circle id="Oval" fill="#E94962" fill-rule="nonzero" transform="translate(1631.434346, 1002.166904) rotate(-298.000000) translate(-1631.434346, -1002.166904) " cx="1631.43435" cy="1002.1669" r="4.5"></circle>
        <circle id="Oval" fill="#E94962" fill-rule="nonzero" transform="translate(1324.819589, 903.864780) rotate(-347.000000) translate(-1324.819589, -903.864780) " cx="1324.81959" cy="903.86478" r="6.5"></circle>
        <circle id="Oval" fill="#E94962" fill-rule="nonzero" transform="translate(1070.210137, 1063.258190) rotate(-253.000000) translate(-1070.210137, -1063.258190) " cx="1070.21014" cy="1063.25819" r="5.5"></circle>
        <circle id="Oval" fill="#E94962" fill-rule="nonzero" transform="translate(1167.064754, 700.741430) rotate(-236.000000) translate(-1167.064754, -700.741430) " cx="1167.06475" cy="700.74143" r="5"></circle>
        <circle id="Oval" fill="#E94962" fill-rule="nonzero" transform="translate(1162.887034, 475.807326) rotate(-152.000000) translate(-1162.887034, -475.807326) " cx="1162.88703" cy="475.807326" r="7"></circle>
        <circle id="Oval" fill="#E94962" fill-rule="nonzero" transform="translate(874.625434, 507.723860) rotate(-230.000000) translate(-874.625434, -507.723860) " cx="874.625434" cy="507.72386" r="4.5"></circle>
        <circle id="Oval" fill="#E94962" fill-rule="nonzero" transform="translate(657.998769, 1180.148171) rotate(-149.000000) translate(-657.998769, -1180.148171) " cx="657.998769" cy="1180.14817" r="4.5"></circle>
        <circle id="Oval" fill="#E94962" fill-rule="nonzero" transform="translate(711.709988, 811.617694) rotate(-41.000000) translate(-711.709988, -811.617694) " cx="711.709988" cy="811.617694" r="5"></circle>
        <circle id="Oval" fill="#E94962" fill-rule="nonzero" transform="translate(699.327733, 382.309433) rotate(-300.000000) translate(-699.327733, -382.309433) " cx="699.327733" cy="382.309433" r="7"></circle>
        <circle id="Oval" fill="#E94962" fill-rule="nonzero" transform="translate(298.417415, 1072.270523) rotate(-3.000000) translate(-298.417415, -1072.270523) " cx="298.417415" cy="1072.27052" r="5"></circle>
        <circle id="Oval" fill="#E94962" fill-rule="nonzero" transform="translate(250.359182, 540.303679) rotate(-116.000000) translate(-250.359182, -540.303679) " cx="250.359182" cy="540.303679" r="4.5"></circle>
        <circle id="Oval" fill="#E94962" fill-rule="nonzero" transform="translate(333.422176, 453.122498) rotate(-240.000000) translate(-333.422176, -453.122498) " cx="333.422176" cy="453.122498" r="5"></circle>
        <circle id="Oval" fill="#E94962" fill-rule="nonzero" transform="translate(183.419380, 1009.177596) rotate(-303.000000) translate(-183.419380, -1009.177596) " cx="183.41938" cy="1009.1776" r="6.5"></circle>
        <circle id="Oval" fill="#E94962" fill-rule="nonzero" transform="translate(108.651477, 979.945206) rotate(-178.000000) translate(-108.651477, -979.945206) " cx="108.651477" cy="979.945206" r="7"></circle>
        <circle id="Oval" fill="#E94962" fill-rule="nonzero" transform="translate(7.899417, 837.776302) rotate(-138.000000) translate(-7.899417, -837.776302) " cx="7.89941719" cy="837.776302" r="4.5"></circle>
        <path d="M1866.75097,1177.38157 L1866.55103,1195.08656 C1866.53452,1196.5485 1865.32658,1197.72037 1863.85301,1197.70399 C1863.379,1197.69872 1862.91496,1197.56826 1862.50863,1197.32604 L1847.04556,1188.10818 C1845.78239,1187.35517 1845.37367,1185.72881 1846.13266,1184.4756 C1846.37681,1184.07248 1846.7248,1183.74116 1847.14083,1183.51572 L1862.80383,1175.02859 C1864.09716,1174.32779 1865.71825,1174.79986 1866.42462,1176.08299 C1866.64372,1176.48098 1866.75609,1176.92812 1866.75097,1177.38157 Z" id="Triangle" fill="#5EC3A6" fill-rule="nonzero" transform="translate(1856.251136, 1186.204159) rotate(-286.000000) translate(-1856.251136, -1186.204159) "></path>
        <path d="M1924.63161,64.07646 L1924.4888,76.3929767 C1924.47701,77.4099821 1923.61419,78.2251912 1922.56165,78.2137972 C1922.22307,78.2101321 1921.89161,78.1193801 1921.60137,77.9508768 L1910.55632,71.5384504 C1909.65406,71.014621 1909.36211,69.8832411 1909.90425,69.0114426 C1910.07864,68.7310061 1910.32721,68.5005221 1910.62437,68.3437002 L1921.81223,62.43961 C1922.73604,61.9520946 1923.89396,62.2804913 1924.39851,63.1731047 C1924.55501,63.4499619 1924.63527,63.7610207 1924.63161,64.07646 Z" id="Triangle" fill="#5EC3A6" fill-rule="nonzero" transform="translate(1917.131735, 70.213915) rotate(-255.000000) translate(-1917.131735, -70.213915) "></path>
        <path d="M1714.92564,220.859457 L1714.77331,234.715538 C1714.76073,235.859669 1713.84039,236.77678 1712.71767,236.763961 C1712.35652,236.759838 1712.00297,236.657742 1711.69338,236.468176 L1699.91199,229.254196 C1698.94958,228.664888 1698.63817,227.392086 1699.21645,226.411312 C1699.40247,226.095821 1699.6676,225.836527 1699.98458,225.660102 L1711.9183,219.018001 C1712.90369,218.469546 1714.1388,218.838992 1714.67699,219.843182 C1714.84392,220.154647 1714.92954,220.504588 1714.92564,220.859457 Z" id="Triangle" fill="#5EC3A6" fill-rule="nonzero" transform="translate(1706.925766, 227.764094) rotate(-55.000000) translate(-1706.925766, -227.764094) "></path>
        <path d="M261.96446,134.084051 L261.745484,153.328609 C261.727403,154.91768 260.404414,156.191444 258.790506,156.173641 C258.271351,156.167914 257.763117,156.026114 257.318086,155.762828 L240.382347,145.743411 C238.998871,144.924928 238.551224,143.157147 239.382501,141.794962 C239.649902,141.35678 240.031034,140.996648 240.48669,140.751614 L257.641406,131.526473 C259.057913,130.76473 260.833386,131.27785 261.607035,132.672559 C261.846993,133.105148 261.970068,133.591177 261.96446,134.084051 Z" id="Triangle" fill="#5EC3A6" fill-rule="nonzero" transform="translate(250.464643, 143.673825) rotate(-101.000000) translate(-250.464643, -143.673825) "></path>
        <path d="M1458.89741,510.257439 L1458.7546,522.573956 C1458.74281,523.590961 1457.87999,524.40617 1456.82744,524.394776 C1456.48886,524.391111 1456.15741,524.300359 1455.86717,524.131856 L1444.82212,517.71943 C1443.91985,517.1956 1443.62791,516.06422 1444.17005,515.192422 C1444.34444,514.911985 1444.593,514.681501 1444.89017,514.524679 L1456.07803,508.620589 C1457.00184,508.133074 1458.15975,508.461471 1458.66431,509.354084 C1458.8208,509.630941 1458.90107,509.942 1458.89741,510.257439 Z" id="Triangle" fill="#5EC3A6" fill-rule="nonzero" transform="translate(1451.397531, 516.394894) rotate(-283.000000) translate(-1451.397531, -516.394894) "></path>
        <path d="M1139.81383,1178.4994 L1139.60437,1196.97418 C1139.58708,1198.49968 1138.32161,1199.7225 1136.77787,1199.70541 C1136.28129,1199.69991 1135.79515,1199.56378 1135.36947,1199.31103 L1119.17007,1189.69239 C1117.84674,1188.90664 1117.41856,1187.20957 1118.21369,1185.90188 C1118.46947,1185.48122 1118.83403,1185.13549 1119.26987,1184.90026 L1135.67873,1176.04413 C1137.03365,1175.31285 1138.73193,1175.80545 1139.47194,1177.14437 C1139.70147,1177.55965 1139.81919,1178.02624 1139.81383,1178.4994 Z" id="Triangle" fill="#5EC3A6" fill-rule="nonzero" transform="translate(1128.814004, 1187.705584) rotate(-243.000000) translate(-1128.814004, -1187.705584) "></path>
        <path d="M1039.25188,912.566328 L1039.11859,924.882844 C1039.10759,925.89985 1038.30229,926.715059 1037.31991,926.703665 C1037.0039,926.7 1036.69454,926.609248 1036.42365,926.440745 L1026.11494,920.028318 C1025.27283,919.504489 1025.00035,918.373109 1025.50634,917.50131 C1025.66911,917.220874 1025.9011,916.99039 1026.17846,916.833568 L1036.62046,910.929478 C1037.48268,910.441962 1038.5634,910.770359 1039.03432,911.662972 C1039.18038,911.93983 1039.2553,912.250888 1039.25188,912.566328 Z" id="Triangle" fill="#5EC3A6" fill-rule="nonzero" transform="translate(1032.251994, 918.703783) rotate(-237.000000) translate(-1032.251994, -918.703783) "></path>
        <path d="M677.105798,635.540781 L676.934426,650.936427 C676.920275,652.207684 675.884893,653.226695 674.621834,653.212453 C674.215539,653.207871 673.817791,653.094431 673.469506,652.883802 L660.215449,644.868269 C659.132729,644.213482 658.782397,642.799258 659.432961,641.709509 C659.642231,641.358964 659.940509,641.070859 660.297109,640.874831 L673.722539,633.494719 C674.83111,632.885324 676.22061,633.29582 676.826074,634.411587 C677.013868,634.757659 677.110187,635.146482 677.105798,635.540781 Z" id="Triangle" fill="#5EC3A6" fill-rule="nonzero" transform="translate(668.105942, 643.212600) rotate(-228.000000) translate(-668.105942, -643.212600) "></path>
        <path d="M503.614312,784.221429 L503.461981,798.07751 C503.449403,799.221641 502.529063,800.138752 501.406344,800.125933 C501.045193,800.12181 500.691639,800.019714 500.382052,799.830148 L488.600668,792.616168 C487.63825,792.02686 487.326844,790.754058 487.905123,789.773284 C488.091142,789.457793 488.356277,789.198499 488.673255,789.022074 L500.60697,782.379973 C501.592367,781.831518 502.827478,782.200964 503.365669,783.205154 C503.532596,783.516619 503.618214,783.86656 503.614312,784.221429 Z" id="Triangle" fill="#5EC3A6" fill-rule="nonzero" transform="translate(495.614440, 791.126066) rotate(-140.000000) translate(-495.614440, -791.126066) "></path>
        <circle id="Oval" fill="#EAC12F" fill-rule="nonzero" transform="translate(1836.062850, 938.496177) rotate(-113.000000) translate(-1836.062850, -938.496177) " cx="1836.06285" cy="938.496177" r="5.5"></circle>
        <circle id="Oval" fill="#EAC12F" fill-rule="nonzero" transform="translate(1875.556538, 309.579198) rotate(-290.000000) translate(-1875.556538, -309.579198) " cx="1875.55654" cy="309.579198" r="4.5"></circle>
        <circle id="Oval" fill="#EAC12F" fill-rule="nonzero" transform="translate(1518.703235, 691.980590) rotate(-83.000000) translate(-1518.703235, -691.980590) " cx="1518.70323" cy="691.98059" r="6"></circle>
        <circle id="Oval" fill="#EAC12F" fill-rule="nonzero" transform="translate(1081.554927, 567.181995) rotate(-103.000000) translate(-1081.554927, -567.181995) " cx="1081.55493" cy="567.181995" r="6.5"></circle>
        <circle id="Oval" fill="#EAC12F" fill-rule="nonzero" transform="translate(965.261601, 327.554322) rotate(-237.000000) translate(-965.261601, -327.554322) " cx="965.261601" cy="327.554322" r="6"></circle>
        <circle id="Oval" fill="#EAC12F" fill-rule="nonzero" transform="translate(322.419502, 1177.404555) rotate(-283.000000) translate(-322.419502, -1177.404555) " cx="322.419502" cy="1177.40456" r="5.5"></circle>
        <circle id="Oval" fill="#EAC12F" fill-rule="nonzero" transform="translate(108.917655, 170.976743) rotate(-231.000000) translate(-108.917655, -170.976743) " cx="108.917655" cy="170.976743" r="4.5"></circle>
        <circle id="Oval" fill="#E16AC0" fill-rule="nonzero" transform="translate(992.924831, 969.588630) rotate(-81.000000) translate(-992.924831, -969.588630) " cx="992.924831" cy="969.58863" r="6.5"></circle>
        <circle id="Oval" fill="#E16AC0" fill-rule="nonzero" transform="translate(986.411776, 782.954363) rotate(-129.000000) translate(-986.411776, -782.954363) " cx="986.411776" cy="782.954363" r="4.5"></circle>
        <circle id="Oval" fill="#E16AC0" fill-rule="nonzero" transform="translate(550.900024, 645.975287) rotate(-79.000000) translate(-550.900024, -645.975287) " cx="550.900024" cy="645.975287" r="6.5"></circle>
        <circle id="Oval" fill="#E16AC0" fill-rule="nonzero" transform="translate(172.375585, 1157.967503) rotate(-69.000000) translate(-172.375585, -1157.967503) " cx="172.375585" cy="1157.9675" r="6"></circle>
        <circle id="Oval" fill="#E16AC0" fill-rule="nonzero" transform="translate(93.014401, 455.963966) rotate(-220.000000) translate(-93.014401, -455.963966) " cx="93.0144006" cy="455.963966" r="5.5"></circle>
    </g>
</svg>